<?xml version="1.0" encoding="UTF-8"?>
<!DOCTYPE svg PUBLIC "-//W3C//DTD SVG 1.1//EN" "http://www.w3.org/Graphics/SVG/1.1/DTD/svg11.dtd">
<!-- Creator: CorelDRAW 2018 (64-Bit) -->
<svg xmlns="http://www.w3.org/2000/svg" xml:space="preserve" width="256px" height="256px" version="1.1" style="shape-rendering:geometricPrecision; text-rendering:geometricPrecision; image-rendering:optimizeQuality; fill-rule:evenodd; clip-rule:evenodd"
viewBox="0 0 256 256"
 xmlns:xlink="http://www.w3.org/1999/xlink">
 <defs>
  <style type="text/css">
   <![CDATA[
    .fil0 {fill:url(#id0)}
   ]]>
  </style>
  <linearGradient id="id0" gradientUnits="userSpaceOnUse" x1="35.93" y1="229.98" x2="364.21" y2="-18.97">
   <stop offset="0" style="stop-opacity:1; stop-color:#2B2A29"/>
   <stop offset="1" style="stop-opacity:1; stop-color:red"/>
  </linearGradient>
 </defs>
 <g id="Слой_x0020_1">
  <metadata id="CorelCorpID_0Corel-Layer"/>
  <path class="fil0" d="M157.09 189.25c0.8,-0.83 0.9,-1.96 0.97,-4.47 0.07,-2.5 0.11,-6.38 0.05,-8.72 -0.05,-2.33 -0.2,-3.12 -1.02,-3.7 -0.81,-0.58 -2.29,-0.94 -3.71,-0.89 -1.42,0.05 -2.77,0.51 -3.63,1.33 -0.86,0.82 -1.21,2 -1.35,3.76 -0.14,1.76 -0.07,4.09 -0.07,6.08 -0.01,1.98 -0.1,3.61 0.14,4.83 0.24,1.22 0.8,2.03 1.66,2.57 0.85,0.54 2,0.82 3.33,0.69 1.33,-0.13 2.83,-0.65 3.63,-1.48zm-12.91 0.88c0.81,-0.83 0.9,-1.96 0.97,-4.46 0.07,-2.51 0.11,-6.39 0.05,-8.73 -0.05,-2.33 -0.2,-3.12 -1.01,-3.69 -0.82,-0.58 -2.29,-0.95 -3.71,-0.9 -1.42,0.05 -2.78,0.52 -3.64,1.34 -0.85,0.82 -1.2,1.99 -1.34,3.75 -0.14,1.76 -0.07,4.1 -0.08,6.08 -0.01,1.98 -0.1,3.61 0.14,4.83 0.24,1.22 0.8,2.03 1.66,2.58 0.86,0.54 2.01,0.81 3.34,0.68 1.32,-0.12 2.82,-0.65 3.62,-1.48zm-13.03 1.06c0.8,-0.83 0.89,-1.96 0.96,-4.46 0.07,-2.51 0.11,-6.39 0.06,-8.73 -0.06,-2.33 -0.21,-3.12 -1.02,-3.7 -0.82,-0.57 -2.29,-0.94 -3.71,-0.89 -1.42,0.05 -2.78,0.51 -3.63,1.33 -0.86,0.82 -1.21,2 -1.35,3.76 -0.14,1.76 -0.07,4.09 -0.08,6.08 -0.01,1.98 -0.09,3.61 0.14,4.83 0.24,1.22 0.81,2.03 1.66,2.57 0.86,0.55 2.01,0.82 3.34,0.69 1.32,-0.12 2.82,-0.65 3.63,-1.48zm-12.62 1.11c0.8,-0.83 0.9,-1.96 0.97,-4.46 0.06,-2.51 0.1,-6.39 0.05,-8.73 -0.06,-2.33 -0.21,-3.12 -1.02,-3.7 -0.81,-0.57 -2.29,-0.94 -3.71,-0.89 -1.42,0.05 -2.78,0.51 -3.63,1.33 -0.86,0.83 -1.21,2 -1.35,3.76 -0.14,1.76 -0.07,4.1 -0.08,6.08 0,1.98 -0.09,3.61 0.15,4.83 0.24,1.22 0.8,2.03 1.66,2.57 0.85,0.55 2,0.82 3.33,0.69 1.33,-0.12 2.83,-0.65 3.63,-1.48zm-11.06 -16.74c0.68,-0.04 1.5,-0.76 2.72,-1.57 1.22,-0.8 2.85,-1.68 4.08,-2.12 1.24,-0.43 2.08,-0.4 2.86,-0.15 0.77,0.26 1.48,0.76 2.14,1.31 0.66,0.54 1.29,1.13 2.04,1.11 0.74,-0.02 1.62,-0.65 2.56,-1.41 0.95,-0.77 1.96,-1.66 2.67,-2.15 0.71,-0.49 1.1,-0.58 1.86,-0.33 0.75,0.25 1.87,0.83 2.79,1.62 0.92,0.79 1.66,1.8 2.44,1.79 0.78,0 1.62,-1.01 2.71,-1.94 1.09,-0.92 2.45,-1.77 3.74,-2.03 1.29,-0.26 2.52,0.07 3.56,0.69 1.05,0.61 1.91,1.51 3.02,1.52 1.1,0.02 2.46,-0.84 3.62,-1.66 1.17,-0.81 2.14,-1.58 3.19,-1.73 1.05,-0.14 2.18,0.32 3.21,0.93 1.03,0.61 1.96,1.36 2.58,1.89 0.61,0.53 0.91,0.85 1.88,0.05 0.97,-0.8 2.63,-2.72 4.64,-5.47 2.02,-2.75 4.41,-6.35 6.06,-9.4 1.65,-3.05 2.57,-5.56 3.43,-8.08 0.87,-2.52 1.69,-5.05 2.21,-7.66 0.51,-2.62 0.72,-5.31 0.46,-6.13 -0.26,-0.81 -0.99,0.26 -2.36,2.13 -1.36,1.86 -3.35,4.52 -5.39,7.1 -2.03,2.58 -4.12,5.08 -6.73,7.27 -2.6,2.19 -5.72,4.07 -8.45,5.63 -2.73,1.56 -5.07,2.79 -8.01,3.74 -2.93,0.95 -6.46,1.6 -10,1.8 -3.53,0.19 -7.07,-0.08 -10.74,-0.94 -3.67,-0.85 -7.47,-2.29 -10.78,-4.3 -3.32,-2 -6.16,-4.57 -8.58,-7.33 -2.43,-2.76 -4.45,-5.72 -6.01,-8.66 -1.57,-2.95 -2.69,-5.88 -3.45,-9.04 -0.76,-3.16 -1.17,-6.55 -1.34,-10.09 -0.17,-3.55 -0.1,-7.25 0.21,-10.02 0.31,-2.78 0.86,-4.63 0.54,-4.48 -0.32,0.14 -1.52,2.28 -2.69,4.81 -1.16,2.54 -2.29,5.47 -3.07,8.9 -0.77,3.43 -1.2,7.36 -1.35,11.02 -0.14,3.66 -0.02,7.05 0.33,10.23 0.34,3.18 0.91,6.14 2,9.47 1.08,3.34 2.69,7.04 4.17,9.89 1.48,2.84 2.84,4.83 4.39,6.77 1.55,1.95 3.3,3.85 4.45,5.13 1.15,1.27 1.7,1.92 2.39,1.89zm57.62 -37.63c1.07,-1.14 1.7,-2.56 1.97,-4.12 0.28,-1.57 0.21,-3.28 -0.22,-4.62 -0.44,-1.34 -1.23,-2.29 -2.62,-2.64 -1.4,-0.34 -3.4,-0.06 -5.58,0.4 -2.17,0.46 -4.51,1.1 -7.23,1.48 -2.72,0.37 -5.81,0.49 -8.52,0.09 -2.72,-0.41 -5.06,-1.33 -6.99,-2.83 -1.94,-1.5 -3.46,-3.58 -4.27,-5.86 -0.8,-2.28 -0.89,-4.77 -0.89,-7.48 -0.01,-2.71 0.06,-5.64 0.48,-8.17 0.43,-2.54 1.2,-4.69 1.05,-5.16 -0.16,-0.48 -1.24,0.72 -2.23,2.63 -0.99,1.92 -1.88,4.55 -2.43,7.45 -0.55,2.89 -0.76,6.04 -0.58,9.29 0.17,3.25 0.74,6.61 1.61,9.51 0.88,2.9 2.06,5.34 4.08,7.65 2.02,2.31 4.87,4.5 7.32,5.77 2.44,1.27 4.49,1.62 6.76,1.81 2.26,0.18 4.74,0.2 7.14,-0.22 2.4,-0.41 4.72,-1.24 6.64,-2.1 1.92,-0.85 3.44,-1.73 4.51,-2.88zm5.18 -5.75c0.9,-0.75 3.02,-3.36 4.9,-6.59 1.87,-3.23 3.51,-7.08 4.4,-11.19 0.89,-4.12 1.03,-8.5 0.63,-12.28 -0.39,-3.79 -1.32,-6.96 -3.17,-9.98 -1.85,-3.03 -4.62,-5.9 -7.2,-7.84 -2.58,-1.93 -4.98,-2.94 -7.76,-3.31 -2.78,-0.37 -5.94,-0.11 -8.83,0.6 -2.89,0.71 -5.52,1.86 -8.04,3.59 -2.53,1.73 -4.96,4.03 -6.69,6.31 -1.74,2.29 -2.78,4.57 -3.48,6.84 -0.69,2.26 -1.03,4.52 -1.38,7.21 -0.35,2.7 -0.72,5.83 -0.53,8.44 0.18,2.61 0.91,4.7 2.15,6.57 1.25,1.87 3,3.52 5.13,4.51 2.13,1 4.64,1.35 7.31,1.18 2.66,-0.17 5.49,-0.86 7.86,-1.4 2.37,-0.55 4.29,-0.94 6.05,-1.12 1.76,-0.17 3.37,-0.12 4.71,0.5 1.34,0.62 2.42,1.81 2.98,2.98 0.57,1.17 0.62,2.32 0.49,3.46 -0.12,1.14 -0.43,2.26 0.47,1.52zm-50.91 -40.52c0.74,0.7 2.13,1.82 3.75,2.5 1.62,0.67 3.49,0.9 4.88,0.55 1.4,-0.35 2.33,-1.28 3.24,-2.35 0.91,-1.07 1.8,-2.28 2.34,-3.6 0.55,-1.33 0.75,-2.77 0.76,-4.34 0.01,-1.58 -0.16,-3.29 -0.83,-4.56 -0.68,-1.28 -1.87,-2.12 -2.92,-2.81 -1.06,-0.69 -1.99,-1.23 -3.11,-1.46 -1.11,-0.23 -2.41,-0.14 -3.58,0.39 -1.17,0.53 -2.22,1.51 -3.16,2.55 -0.94,1.04 -1.77,2.13 -2.31,3.44 -0.55,1.31 -0.8,2.84 -0.76,4.29 0.05,1.45 0.38,2.82 0.61,3.64 0.23,0.81 0.34,1.07 1.09,1.76zm5.24 -3.12c0.78,0.77 1.77,1.39 2.59,1.64 0.82,0.26 1.47,0.16 2.2,-0.38 0.73,-0.53 1.55,-1.5 2.05,-2.47 0.49,-0.98 0.66,-1.96 0.58,-3.07 -0.08,-1.11 -0.4,-2.34 -0.96,-3.21 -0.57,-0.87 -1.37,-1.37 -2.08,-1.61 -0.7,-0.22 -1.31,-0.18 -2.12,0.19 -0.81,0.36 -1.83,1.04 -2.56,1.74 -0.72,0.71 -1.16,1.43 -1.39,2.19 -0.22,0.76 -0.24,1.55 0.05,2.41 0.28,0.86 0.86,1.79 1.64,2.57zm37.06 87.6c0.78,-0.63 2.41,-1.45 4.44,-2.45 2.02,-0.99 4.44,-2.17 6.91,-3.59 2.47,-1.42 4.99,-3.08 7.91,-5.14 2.91,-2.07 6.21,-4.55 8.8,-7.02 2.59,-2.48 4.47,-4.96 5.89,-7.63 1.43,-2.66 2.4,-5.49 3.12,-7.94 0.72,-2.45 1.19,-4.5 1.76,-7.46 0.57,-2.97 1.25,-6.84 1.48,-10.83 0.23,-3.99 0.02,-8.09 -0.74,-11.42 -0.76,-3.33 -2.07,-5.89 -3.44,-7.99 -1.37,-2.1 -2.8,-3.74 -4.13,-4.79 -1.34,-1.05 -2.58,-1.51 -3.72,-1.74 -1.14,-0.24 -2.19,-0.24 -3,-0.13 -0.81,0.12 -1.39,0.36 -2.03,0.88 -0.64,0.52 -1.35,1.32 -1.71,1.04 -0.36,-0.28 -0.37,-1.65 -0.56,-3.3 -0.19,-1.65 -0.56,-3.59 -1.4,-5.94 -0.84,-2.36 -2.15,-5.14 -3.54,-7.4 -1.39,-2.25 -2.86,-3.97 -4.19,-5.37 -1.34,-1.4 -2.54,-2.46 -3.34,-3.27 -0.8,-0.81 -1.21,-1.36 -1.12,-1.84 0.09,-0.48 0.68,-0.89 0.85,-1.28 0.17,-0.4 -0.08,-0.77 -0.52,-1.11 -0.44,-0.33 -1.06,-0.62 -1.7,-1.02 -0.64,-0.4 -1.31,-0.9 -1.42,-1.34 -0.11,-0.44 0.33,-0.83 0.88,-1.37 0.55,-0.54 1.21,-1.24 1.65,-1.84 0.45,-0.6 0.67,-1.09 0.34,-1.57 -0.34,-0.48 -1.25,-0.93 -2.42,-1.54 -1.18,-0.61 -2.64,-1.38 -4.03,-1.82 -1.39,-0.45 -2.71,-0.58 -3.98,-0.53 -1.27,0.06 -2.49,0.29 -3.59,0.77 -1.11,0.48 -2.11,1.22 -3.33,2.08 -1.23,0.87 -2.66,1.85 -4.43,2.42 -1.78,0.57 -3.88,0.72 -5.98,0.89 -2.1,0.18 -4.21,0.36 -6.27,0.87 -2.07,0.5 -4.1,1.33 -6.18,2.31 -2.07,0.97 -4.19,2.09 -6.09,3.34 -1.89,1.26 -3.57,2.65 -5.46,4.33 -1.88,1.68 -3.97,3.64 -5.96,5.86 -1.99,2.21 -3.88,4.68 -5.35,6.8 -1.47,2.11 -2.51,3.87 -3.56,5.45 -1.05,1.58 -2.11,2.99 -2.87,4.21 -0.76,1.23 -1.23,2.28 -1.93,2.33 -0.7,0.06 -1.63,-0.89 -2.56,-1.52 -0.93,-0.63 -1.86,-0.94 -2.77,-1.27 -0.9,-0.33 -1.77,-0.67 -3.07,-0.26 -1.3,0.4 -3.02,1.56 -4.97,2.89 -1.95,1.33 -4.12,2.84 -5.67,4.65 -1.54,1.82 -2.46,3.95 -3.66,6.72 -1.2,2.77 -2.68,6.18 -3.64,9.23 -0.96,3.05 -1.4,5.73 -1.89,9.24 -0.49,3.51 -1.04,7.84 -0.98,11.63 0.06,3.78 0.74,7.02 1.79,9.77 1.04,2.75 2.45,5.02 4.3,7.62 1.85,2.61 4.13,5.56 6.24,7.69 2.1,2.13 4.02,3.44 5.35,4.61 1.32,1.17 2.05,2.2 1.89,2.89 -0.17,0.69 -1.25,1.04 -2.52,1.49 -1.27,0.44 -2.73,0.99 -4.5,1.36 -1.78,0.37 -3.85,0.57 -5.65,0.78 -1.8,0.21 -3.32,0.44 -3.27,1.02 0.05,0.59 1.67,1.52 3.09,2.63 1.41,1.11 2.63,2.39 4.13,3.19 1.49,0.79 3.27,1.11 3.66,1.49 0.38,0.37 -0.62,0.8 -1.86,1.22 -1.24,0.43 -2.72,0.85 -3.43,1.29 -0.7,0.45 -0.63,0.93 0.4,1.58 1.04,0.65 3.05,1.47 4.82,2.06 1.78,0.58 3.33,0.93 5.17,1.08 1.83,0.15 3.95,0.09 6.12,-0.28 2.18,-0.37 4.41,-1.04 6.05,-1.76 1.64,-0.72 2.7,-1.5 3.7,-2.29 1.01,-0.79 1.95,-1.61 2.5,-1.63 0.55,-0.02 0.71,0.76 1.09,1.91 0.39,1.16 1.01,2.69 1.76,3.78 0.75,1.09 1.62,1.74 2.65,2.08 1.03,0.34 2.22,0.37 3.24,0.14 1.01,-0.24 1.86,-0.74 2.86,-1.57 1,-0.83 2.16,-1.99 3.13,-2.11 0.96,-0.13 1.74,0.77 2.77,1.48 1.03,0.7 2.31,1.21 3.35,1.26 1.04,0.04 1.83,-0.39 2.77,-1.04 0.95,-0.64 2.05,-1.52 2.81,-2.21 0.75,-0.69 1.16,-1.2 1.77,-0.84 0.6,0.35 1.41,1.58 2.49,2.29 1.09,0.72 2.46,0.93 3.82,0.55 1.36,-0.39 2.72,-1.36 3.72,-2.13 1,-0.77 1.65,-1.32 2.3,-1.34 0.65,-0.01 1.3,0.52 1.88,1.1 0.57,0.58 1.08,1.21 1.89,1.55 0.8,0.35 1.9,0.4 3.11,0.12 1.21,-0.29 2.52,-0.91 3.6,-1.71 1.08,-0.8 1.92,-1.78 2.45,-2.85 0.53,-1.06 0.74,-2.23 0.88,-4.06 0.13,-1.84 0.19,-4.36 0.17,-5.84 -0.01,-1.49 -0.09,-1.95 0.68,-2.59zm-46.32 79.82c-0.04,-0.07 -0.57,-0.23 -1.12,-0.38 -0.55,-0.15 -1.12,-0.3 -1.6,-0.39 -0.47,-0.09 -0.85,-0.13 -1.34,-0.18 -0.49,-0.06 -1.11,-0.13 -1.77,-0.19 -0.67,-0.07 -1.38,-0.13 -1.96,-0.16 -0.57,-0.04 -0.99,-0.05 -1.51,-0.11 -0.53,-0.05 -1.14,-0.15 -1.67,-0.22 -0.54,-0.07 -0.98,-0.12 -0.87,-0.07 0.11,0.05 0.77,0.21 1.54,0.36 0.76,0.16 1.62,0.31 2.54,0.45 0.91,0.14 1.89,0.27 2.71,0.37 0.82,0.1 1.48,0.17 2.16,0.26 0.68,0.08 1.36,0.19 1.93,0.24 0.56,0.07 1,0.08 0.96,0.02zm-30.44 -12.67c-0.83,-0.19 -1.88,-0.17 -2.93,-0.14 -1.06,0.02 -2.13,0.05 -3.09,0.06 -0.97,0.02 -1.83,0.02 -2.5,0.02 -0.68,0.01 -1.16,0.02 -1.13,0.17 0.03,0.16 0.57,0.46 1.2,0.8 0.62,0.34 1.32,0.72 2.1,1.13 0.77,0.42 1.63,0.86 2.65,1.36 1.03,0.5 2.22,1.06 3.25,1.53 1.03,0.47 1.9,0.85 2.84,1.24 0.95,0.39 1.97,0.78 2.85,1.11 0.88,0.33 1.63,0.59 2.33,0.82 0.7,0.23 1.36,0.43 2.09,0.52 0.73,0.09 1.55,0.06 2.51,0.03 0.95,-0.02 2.05,-0.05 2.94,-0.08 0.89,-0.02 1.57,-0.04 1.47,-0.23 -0.1,-0.18 -0.97,-0.53 -1.87,-0.9 -0.9,-0.38 -1.83,-0.78 -2.76,-1.2 -0.93,-0.43 -1.86,-0.87 -2.71,-1.3 -0.85,-0.43 -1.61,-0.84 -2.41,-1.27 -0.81,-0.44 -1.66,-0.88 -2.45,-1.34 -0.8,-0.45 -1.54,-0.91 -2.23,-1.34 -0.68,-0.42 -1.31,-0.81 -2.15,-0.99zm-18.53 -14.72c-0.82,-0.19 -2.08,-0.19 -3.33,-0.18 -1.24,0.02 -2.47,0.04 -3.55,0.05 -1.08,0.01 -2.01,0.01 -2.69,0.02 -0.67,0.01 -1.09,0.02 -0.94,0.35 0.15,0.33 0.86,0.96 1.59,1.61 0.73,0.65 1.47,1.31 2.23,1.98 0.75,0.66 1.52,1.32 2.34,1.99 0.82,0.66 1.7,1.33 2.32,1.8 0.63,0.46 1.01,0.72 1.84,0.85 0.83,0.12 2.11,0.12 3.27,0.1 1.17,-0.02 2.21,-0.05 3.18,-0.06 0.96,-0.02 1.85,-0.02 2.5,-0.03 0.64,0 1.02,-0.02 0.76,-0.4 -0.27,-0.38 -1.19,-1.12 -2.03,-1.83 -0.85,-0.7 -1.61,-1.36 -2.32,-1.99 -0.72,-0.64 -1.39,-1.25 -1.98,-1.8 -0.59,-0.54 -1.1,-1.02 -1.55,-1.46 -0.44,-0.43 -0.82,-0.81 -1.64,-1zm-12.59 -14.7c-0.85,-0.26 -2.2,-0.26 -3.44,-0.25 -1.25,0 -2.39,0 -3.47,0.01 -1.08,0.01 -2.11,0.02 -2.88,0.02 -0.78,0 -1.31,-0.01 -1.45,0.15 -0.14,0.17 0.11,0.52 0.46,0.97 0.35,0.47 0.81,1.04 1.28,1.62 0.47,0.59 0.94,1.18 1.43,1.77 0.48,0.6 0.96,1.18 1.45,1.76 0.49,0.57 0.99,1.13 1.34,1.53 0.34,0.4 0.54,0.62 1,0.73 0.45,0.1 1.17,0.08 1.98,0.07 0.81,-0.01 1.71,-0.01 2.8,-0.01 1.1,0.01 2.39,0.02 3.5,0.01 1.12,0 2.06,-0.02 2.57,-0.03 0.52,-0.02 0.61,-0.03 0.41,-0.3 -0.19,-0.26 -0.67,-0.78 -1.09,-1.29 -0.43,-0.5 -0.8,-1 -1.26,-1.6 -0.46,-0.59 -1.01,-1.27 -1.54,-1.94 -0.53,-0.66 -1.05,-1.31 -1.47,-1.89 -0.43,-0.57 -0.77,-1.08 -1.62,-1.33zm-9.5 -14.79c-0.94,-0.15 -2.66,-0.14 -4.07,-0.12 -1.4,0.01 -2.51,0.03 -3.5,0.04 -0.99,0 -1.88,-0.01 -2.52,0 -0.65,0 -1.06,0.02 -1.19,0.15 -0.14,0.13 0,0.37 0.22,0.75 0.22,0.39 0.52,0.92 0.86,1.5 0.34,0.58 0.7,1.2 1.06,1.79 0.35,0.59 0.69,1.15 1.02,1.68 0.33,0.54 0.65,1.04 0.95,1.51 0.31,0.47 0.6,0.91 0.88,1.12 0.29,0.21 0.57,0.2 1.08,0.18 0.51,-0.01 1.26,-0.02 2.32,-0.04 1.06,-0.02 2.44,-0.04 3.63,-0.07 1.19,-0.02 2.18,-0.05 2.95,-0.06 0.77,-0.01 1.32,0 1.64,0 0.32,0 0.43,-0.01 0.23,-0.41 -0.19,-0.39 -0.69,-1.17 -0.97,-1.61 -0.28,-0.45 -0.35,-0.56 -0.59,-0.95 -0.24,-0.4 -0.65,-1.08 -1.03,-1.71 -0.37,-0.62 -0.71,-1.19 -0.98,-1.68 -0.27,-0.48 -0.48,-0.89 -0.67,-1.25 -0.2,-0.36 -0.37,-0.67 -1.32,-0.82zm-6.77 -14.69c-0.77,-0.21 -2.13,-0.21 -3.43,-0.21 -1.29,0 -2.52,-0.01 -3.67,-0.01 -1.15,0 -2.22,0 -2.98,0.01 -0.76,0.01 -1.2,0.02 -1.33,0.27 -0.13,0.26 0.05,0.75 0.29,1.35 0.24,0.59 0.55,1.3 0.87,2.02 0.32,0.73 0.66,1.48 0.95,2.12 0.29,0.64 0.54,1.17 0.75,1.62 0.21,0.45 0.39,0.81 0.68,1 0.29,0.18 0.69,0.18 1.52,0.17 0.83,0 2.09,0 3.37,0 1.28,0 2.58,0 3.63,0 1.05,0 1.85,0 2.43,0 0.58,0 0.94,0 0.99,-0.28 0.04,-0.29 -0.22,-0.86 -0.49,-1.44 -0.27,-0.59 -0.54,-1.18 -0.83,-1.81 -0.29,-0.63 -0.59,-1.3 -0.87,-1.94 -0.28,-0.63 -0.53,-1.25 -0.74,-1.75 -0.21,-0.51 -0.38,-0.92 -1.14,-1.12zm-5.09 -14.88c-0.65,-0.15 -1.86,-0.14 -3.09,-0.13 -1.23,0.02 -2.48,0.05 -3.68,0.06 -1.21,0.01 -2.37,0.01 -3.17,0.01 -0.81,0 -1.25,0 -1.38,0.35 -0.14,0.36 0.03,1.08 0.29,1.98 0.27,0.91 0.61,2 0.88,2.82 0.27,0.82 0.45,1.38 0.63,1.9 0.18,0.53 0.36,1.02 0.9,1.26 0.55,0.25 1.46,0.25 2.54,0.24 1.08,0 2.33,-0.02 3.65,-0.02 1.31,-0.01 2.69,-0.01 3.65,-0.03 0.97,-0.02 1.52,-0.07 1.67,-0.45 0.15,-0.39 -0.1,-1.12 -0.35,-1.83 -0.24,-0.71 -0.47,-1.4 -0.68,-2.05 -0.21,-0.64 -0.41,-1.24 -0.58,-1.79 -0.17,-0.55 -0.32,-1.06 -0.44,-1.47 -0.12,-0.4 -0.2,-0.7 -0.84,-0.85zm-3.52 -14.64c-0.66,-0.27 -1.89,-0.28 -3.19,-0.28 -1.31,0 -2.7,0.01 -3.84,0.01 -1.15,0.01 -2.05,0.01 -2.75,0.01 -0.71,0 -1.21,0 -1.4,0.37 -0.19,0.36 -0.08,1.08 0.08,1.95 0.16,0.87 0.37,1.89 0.55,2.77 0.18,0.88 0.34,1.63 0.47,2.19 0.12,0.56 0.2,0.93 0.63,1.12 0.43,0.19 1.2,0.2 2.36,0.2 1.15,0 2.69,-0.01 4.09,-0.01 1.4,-0.01 2.67,-0.01 3.56,0 0.88,0.01 1.38,0.03 1.55,-0.36 0.16,-0.39 -0.01,-1.19 -0.2,-2.04 -0.19,-0.86 -0.39,-1.78 -0.57,-2.55 -0.17,-0.77 -0.32,-1.39 -0.44,-1.97 -0.13,-0.58 -0.23,-1.13 -0.9,-1.41zm-1.67 -14.7c-0.38,-0.3 -1.11,-0.3 -2.15,-0.3 -1.03,0 -2.37,0.01 -3.76,0.01 -1.39,0 -2.82,-0.01 -3.75,0 -0.93,0 -1.36,0.01 -1.61,0.01 -0.24,0.01 -0.31,0.01 -0.32,0.35 -0.01,0.35 0.04,1.04 0.09,1.67 0.05,0.63 0.09,1.2 0.16,1.83 0.06,0.64 0.14,1.34 0.22,1.96 0.08,0.62 0.17,1.17 0.22,1.62 0.06,0.44 0.1,0.79 0.72,0.96 0.63,0.18 1.85,0.19 3.31,0.19 1.45,0 3.15,-0.01 4.3,-0.01 1.15,0 1.75,0 2.3,-0.01 0.55,-0.02 1.06,-0.04 1.25,-0.47 0.18,-0.43 0.05,-1.27 -0.05,-2.11 -0.1,-0.84 -0.17,-1.69 -0.24,-2.4 -0.07,-0.7 -0.15,-1.26 -0.21,-1.84 -0.05,-0.58 -0.1,-1.17 -0.48,-1.46zm-0.95 -14.99c-0.82,-0.13 -2.46,-0.13 -4.1,-0.13 -1.64,0.01 -3.28,0.02 -4.37,0.03 -1.1,0.01 -1.66,0.01 -2.03,0.02 -0.37,0.01 -0.55,0.02 -0.64,0.34 -0.09,0.31 -0.09,0.92 -0.08,1.95 0.01,1.03 0.02,2.47 0.03,3.48 0.02,1.01 0.04,1.59 0.05,1.99 0.02,0.4 0.02,0.62 0.37,0.72 0.34,0.11 1.03,0.1 1.97,0.1 0.95,0 2.15,0.02 3.34,0.01 1.2,-0.01 2.38,-0.05 3.35,-0.07 0.97,-0.02 1.72,-0.03 2.19,-0.04 0.47,-0.01 0.66,-0.02 0.75,-0.24 0.08,-0.23 0.05,-0.67 0.03,-1.3 -0.03,-0.63 -0.05,-1.46 -0.06,-2.24 -0.01,-0.79 -0.01,-1.53 0,-2.18 0.01,-0.65 0.01,-1.21 0.02,-1.62 0,-0.42 0,-0.68 -0.82,-0.82zm1.18 -14.66c-0.66,-0.12 -2,-0.12 -3.24,-0.13 -1.24,0 -2.39,-0.02 -3.64,-0.03 -1.26,-0.01 -2.63,-0.01 -3.41,-0.01 -0.78,0 -0.98,-0.02 -1.11,0.22 -0.12,0.24 -0.18,0.73 -0.26,1.49 -0.07,0.76 -0.16,1.79 -0.25,2.74 -0.08,0.96 -0.15,1.83 -0.2,2.44 -0.05,0.61 -0.06,0.94 -0.07,1.18 -0.01,0.24 -0.02,0.38 0.37,0.43 0.38,0.07 1.16,0.05 2.14,0.05 0.98,-0.01 2.17,0 3.41,0 1.24,0 2.53,-0.01 3.53,-0.02 1,-0.01 1.69,-0.02 2.09,-0.01 0.4,0 0.51,0.02 0.58,-0.38 0.08,-0.41 0.13,-1.24 0.19,-2.07 0.05,-0.84 0.12,-1.69 0.21,-2.58 0.08,-0.88 0.17,-1.81 0.23,-2.39 0.06,-0.58 0.08,-0.81 -0.57,-0.93zm2.34 -14.83c-0.68,-0.11 -2.09,-0.12 -3.49,-0.14 -1.39,-0.02 -2.77,-0.06 -3.96,-0.08 -1.19,-0.02 -2.19,-0.03 -2.82,-0.03 -0.62,-0.01 -0.87,0 -1.05,0.25 -0.17,0.26 -0.28,0.78 -0.4,1.38 -0.12,0.6 -0.26,1.28 -0.4,2.03 -0.13,0.76 -0.27,1.58 -0.4,2.32 -0.13,0.74 -0.26,1.4 -0.34,1.83 -0.08,0.44 -0.12,0.65 0.31,0.75 0.42,0.1 1.3,0.09 2.73,0.09 1.44,-0.01 3.44,-0.01 4.96,-0.01 1.52,0.01 2.57,0.01 3.17,0.01 0.6,0 0.75,0 0.87,-0.3 0.11,-0.3 0.2,-0.9 0.34,-1.73 0.15,-0.83 0.34,-1.89 0.53,-2.9 0.18,-1.02 0.37,-1.98 0.48,-2.57 0.11,-0.58 0.15,-0.79 -0.53,-0.9zm3.92 -14.92c-0.51,-0.1 -1.51,-0.12 -2.95,-0.15 -1.44,-0.04 -3.32,-0.08 -4.65,-0.11 -1.32,-0.03 -2.08,-0.05 -2.58,-0.07 -0.5,-0.02 -0.75,-0.03 -0.95,0.22 -0.21,0.25 -0.39,0.77 -0.64,1.6 -0.25,0.83 -0.57,1.96 -0.91,3.08 -0.34,1.11 -0.71,2.22 -0.92,2.9 -0.2,0.68 -0.24,0.93 0.06,1.06 0.29,0.13 0.93,0.13 1.99,0.13 1.06,0 2.55,-0.01 4.01,-0.02 1.46,-0.02 2.89,-0.04 3.84,-0.06 0.96,-0.02 1.46,-0.02 1.76,-0.27 0.31,-0.24 0.42,-0.73 0.64,-1.51 0.21,-0.78 0.52,-1.86 0.77,-2.72 0.24,-0.86 0.42,-1.51 0.58,-2.08 0.17,-0.57 0.32,-1.06 0.39,-1.4 0.07,-0.33 0.06,-0.5 -0.44,-0.6zm5.77 -14.66c-0.19,-0.18 -0.69,-0.21 -1.53,-0.24 -0.84,-0.04 -2.01,-0.08 -3.06,-0.12 -1.04,-0.05 -1.96,-0.11 -2.85,-0.17 -0.88,-0.05 -1.74,-0.11 -2.3,-0.15 -0.55,-0.04 -0.81,-0.07 -1.06,0.21 -0.25,0.27 -0.51,0.85 -0.86,1.61 -0.35,0.76 -0.8,1.7 -1.31,2.88 -0.5,1.17 -1.05,2.58 -1.38,3.4 -0.33,0.81 -0.43,1.04 -0.31,1.14 0.11,0.11 0.44,0.09 1.09,0.08 0.65,-0.02 1.61,-0.04 2.8,-0.05 1.18,-0.02 2.59,-0.03 3.83,-0.05 1.23,-0.01 2.31,-0.03 2.94,-0.05 0.63,-0.01 0.81,-0.03 0.99,-0.28 0.18,-0.26 0.36,-0.76 0.66,-1.55 0.29,-0.78 0.7,-1.85 1.11,-2.87 0.4,-1.03 0.78,-2 1.04,-2.65 0.26,-0.65 0.38,-0.97 0.2,-1.14zm-2.09 -15.53c0.46,-0.04 1.31,0.02 2.15,0.07 0.84,0.04 1.68,0.09 2.6,0.14 0.92,0.05 1.93,0.11 2.72,0.17 0.79,0.05 1.37,0.09 1.74,0.12 0.37,0.02 0.53,0.04 0.42,0.39 -0.12,0.36 -0.5,1.06 -0.9,1.77 -0.39,0.71 -0.79,1.42 -1.2,2.2 -0.41,0.77 -0.84,1.61 -1.18,2.28 -0.34,0.68 -0.6,1.19 -0.77,1.53 -0.17,0.35 -0.27,0.53 -0.74,0.62 -0.47,0.09 -1.33,0.09 -2.35,0.11 -1.03,0.02 -2.23,0.07 -3.49,0.11 -1.26,0.05 -2.59,0.11 -3.38,0.15 -0.8,0.03 -1.07,0.05 -1.29,0.05 -0.21,0.01 -0.36,0 -0.34,-0.17 0.01,-0.16 0.19,-0.47 0.51,-1.05 0.33,-0.58 0.8,-1.41 1.22,-2.15 0.41,-0.74 0.78,-1.37 1.27,-2.18 0.48,-0.81 1.09,-1.78 1.52,-2.46 0.42,-0.67 0.65,-1.03 0.81,-1.28 0.15,-0.24 0.22,-0.38 0.68,-0.42zm3.42 -5.19c0.25,0.07 0.89,0.05 1.86,0.01 0.96,-0.03 2.26,-0.07 3.63,-0.12 1.37,-0.05 2.81,-0.11 3.62,-0.16 0.81,-0.04 1,-0.07 1.29,-0.36 0.29,-0.3 0.69,-0.86 1.12,-1.46 0.42,-0.6 0.88,-1.24 1.36,-1.91 0.47,-0.67 0.98,-1.37 1.53,-2.12 0.55,-0.75 1.14,-1.53 1.54,-2.05 0.4,-0.52 0.6,-0.77 0.35,-0.91 -0.24,-0.14 -0.94,-0.18 -1.81,-0.24 -0.87,-0.06 -1.9,-0.13 -2.97,-0.21 -1.07,-0.08 -2.18,-0.16 -2.94,-0.1 -0.77,0.06 -1.18,0.26 -1.57,0.57 -0.38,0.31 -0.72,0.73 -1.21,1.31 -0.49,0.58 -1.12,1.32 -1.77,2.1 -0.64,0.78 -1.28,1.62 -1.96,2.5 -0.68,0.88 -1.38,1.8 -1.8,2.35 -0.41,0.55 -0.53,0.73 -0.27,0.8zm30.27 -23.9c-0.27,-0.27 -1.34,-0.34 -2.41,-0.4 -1.06,-0.07 -2.13,-0.14 -2.89,-0.19 -0.75,-0.05 -1.2,-0.07 -1.61,0.06 -0.41,0.12 -0.78,0.4 -1.36,0.88 -0.58,0.48 -1.36,1.15 -2.28,1.94 -0.91,0.8 -1.97,1.71 -2.88,2.52 -0.91,0.81 -1.68,1.51 -2.36,2.13 -0.68,0.63 -1.27,1.19 -1.66,1.57 -0.39,0.39 -0.58,0.59 -0.52,0.69 0.07,0.1 0.39,0.09 0.89,0.08 0.49,-0.02 1.15,-0.04 2.09,-0.07 0.95,-0.04 2.17,-0.1 3.14,-0.15 0.97,-0.05 1.68,-0.1 2.18,-0.12 0.5,-0.03 0.78,-0.04 1.19,-0.32 0.41,-0.28 0.95,-0.83 1.54,-1.43 0.58,-0.61 1.22,-1.27 1.9,-1.94 0.68,-0.67 1.39,-1.35 2.1,-2.02 0.72,-0.66 1.44,-1.32 2.06,-1.89 0.62,-0.57 1.15,-1.06 0.88,-1.34zm28.2 -17.3c-0.27,-0.13 -2.67,0.44 -4.81,1 -2.15,0.55 -4.04,1.1 -5.53,1.57 -1.49,0.46 -2.57,0.85 -3.71,1.33 -1.14,0.48 -2.34,1.05 -3.69,1.74 -1.36,0.68 -2.86,1.48 -4.3,2.29 -1.43,0.81 -2.8,1.62 -3.83,2.25 -1.03,0.63 -1.73,1.07 -1.82,1.31 -0.08,0.24 0.44,0.27 1.29,0.26 0.84,-0.01 1.99,-0.06 3.07,-0.11 1.08,-0.05 2.07,-0.1 2.9,-0.36 0.83,-0.25 1.48,-0.71 2.47,-1.37 1,-0.66 2.33,-1.54 3.52,-2.27 1.18,-0.73 2.22,-1.33 3.35,-1.96 1.12,-0.63 2.34,-1.3 3.63,-1.96 1.29,-0.66 2.65,-1.32 4.26,-2.05 1.61,-0.73 3.47,-1.55 3.2,-1.67zm-23.28 16.91c0.82,-0.67 1.28,-1.02 1.75,-1.38 0.47,-0.36 0.94,-0.71 1.44,-1.08 0.49,-0.37 1.02,-0.75 1.51,-1.11 0.49,-0.35 0.94,-0.68 1.42,-1.01 0.47,-0.33 0.98,-0.65 1.52,-1 0.55,-0.35 1.14,-0.74 1.72,-1.11 0.59,-0.36 1.17,-0.72 1.8,-1.1 0.63,-0.38 1.32,-0.79 1.95,-1.16 0.63,-0.37 1.21,-0.71 1.95,-1.11 0.75,-0.4 1.65,-0.86 2.41,-1.24 0.75,-0.38 1.35,-0.67 2.03,-1 0.68,-0.33 1.45,-0.69 2.19,-1.03 0.75,-0.34 1.47,-0.65 2.16,-0.95 0.7,-0.3 1.37,-0.57 2.08,-0.84 0.71,-0.27 1.45,-0.55 2.23,-0.83 0.78,-0.29 1.6,-0.59 2.48,-0.88 0.87,-0.29 1.8,-0.58 2.64,-0.83 0.84,-0.26 1.6,-0.48 2.28,-0.67 0.68,-0.2 1.29,-0.36 1.99,-0.55 0.7,-0.18 1.49,-0.38 2.26,-0.56 0.77,-0.18 1.53,-0.33 2.34,-0.5 0.82,-0.17 1.69,-0.37 2.56,-0.52 0.87,-0.16 1.75,-0.28 3.33,-0.39 1.57,-0.11 3.85,-0.21 5.5,-0.24 1.65,-0.03 2.68,0.02 3.6,0.07 0.92,0.05 1.73,0.12 2.62,0.21 0.88,0.08 1.83,0.2 2.72,0.3 0.89,0.1 1.71,0.18 2.51,0.29 0.8,0.11 1.59,0.25 2.36,0.38 0.77,0.14 1.52,0.26 2.56,0.47 1.04,0.2 2.38,0.48 3.47,0.73 1.08,0.24 1.93,0.45 2.84,0.68 0.91,0.24 1.88,0.5 2.79,0.77 0.92,0.26 1.78,0.54 2.6,0.79 0.82,0.26 1.6,0.5 2.41,0.78 0.81,0.27 1.65,0.57 2.48,0.89 0.84,0.31 1.68,0.64 2.58,0.99 0.9,0.36 1.86,0.75 2.65,1.08 0.8,0.33 1.43,0.6 2.21,0.97 0.77,0.36 1.7,0.82 2.7,1.31 1,0.5 2.06,1.03 3.01,1.53 0.94,0.5 1.76,0.96 2.53,1.4 0.77,0.43 1.49,0.83 2.38,1.36 0.9,0.52 1.98,1.18 2.88,1.74 0.9,0.57 1.62,1.05 2.29,1.5 0.66,0.45 1.28,0.87 2.01,1.39 0.74,0.52 1.59,1.13 2.39,1.72 0.81,0.59 1.57,1.16 2.3,1.71 0.72,0.55 1.41,1.08 1.99,1.55 0.58,0.47 1.06,0.88 1.64,1.39 0.59,0.5 1.28,1.1 1.96,1.69 0.68,0.6 1.35,1.19 1.91,1.71 0.57,0.53 1.04,0.98 1.72,1.64 0.67,0.66 1.55,1.52 2.28,2.25 0.73,0.73 1.32,1.33 1.89,1.92 0.57,0.59 1.11,1.16 1.64,1.75 0.54,0.59 1.07,1.2 1.63,1.84 0.56,0.64 1.15,1.32 1.69,1.95 0.55,0.62 1.06,1.21 1.57,1.85 0.52,0.65 1.04,1.35 1.62,2.14 0.59,0.78 1.23,1.65 1.78,2.38 0.55,0.74 0.99,1.35 1.42,1.96 0.42,0.6 0.83,1.21 1.25,1.82 0.42,0.62 0.85,1.25 1.33,1.98 0.47,0.73 0.99,1.56 1.5,2.39 0.5,0.82 0.98,1.63 1.67,2.83 0.7,1.19 1.6,2.77 2.37,4.2 0.77,1.42 1.4,2.71 2.05,4.03 0.65,1.32 1.31,2.68 1.98,4.2 0.67,1.52 1.36,3.2 2.02,4.88 0.66,1.69 1.3,3.4 1.86,4.96 0.55,1.56 1.04,2.99 1.53,4.6 0.49,1.61 0.98,3.42 1.47,5.22 0.48,1.79 0.95,3.59 1.31,5.19 0.36,1.61 0.62,3.03 0.88,4.47 0.27,1.43 0.55,2.88 0.83,4.62 0.28,1.74 0.56,3.78 0.77,5.53 0.22,1.75 0.37,3.23 0.51,4.81 0.14,1.58 0.27,3.27 0.34,5.26 0.07,1.99 0.08,4.28 0.09,6.28 0,2.01 0,3.74 -0.02,5.23 -0.01,1.5 -0.05,2.75 -0.13,4.21 -0.09,1.45 -0.21,3.1 -0.35,4.74 -0.14,1.64 -0.3,3.27 -0.49,4.96 -0.19,1.69 -0.42,3.44 -0.73,5.5 -0.32,2.06 -0.73,4.42 -1.13,6.54 -0.41,2.13 -0.82,4.01 -1.26,5.85 -0.43,1.84 -0.9,3.65 -1.43,5.5 -0.52,1.86 -1.09,3.76 -1.61,5.44 -0.52,1.68 -0.99,3.13 -1.46,4.44 -0.46,1.32 -0.93,2.5 -1.58,4.04 -0.65,1.54 -1.49,3.45 -2.41,5.41 -0.92,1.97 -1.93,3.99 -2.69,5.48 -0.77,1.5 -1.29,2.47 -1.85,3.48 -0.56,1 -1.14,2.04 -1.83,3.17 -0.69,1.13 -1.5,2.37 -2.26,3.54 -0.76,1.18 -1.48,2.29 -2.19,3.31 -0.7,1.02 -1.38,1.94 -2.11,2.93 -0.73,0.99 -1.51,2.05 -2.31,3.09 -0.81,1.04 -1.63,2.07 -2.44,3.03 -0.81,0.96 -1.6,1.86 -2.41,2.78 -0.82,0.91 -1.66,1.86 -2.49,2.74 -0.82,0.89 -1.62,1.73 -2.35,2.46 -0.72,0.73 -1.38,1.36 -2.06,2.01 -0.69,0.66 -1.41,1.34 -2.18,2.06 -0.78,0.71 -1.61,1.45 -2.42,2.14 -0.82,0.69 -1.61,1.32 -2.42,1.97 -0.8,0.65 -1.61,1.33 -2.53,2.05 -0.92,0.72 -1.94,1.48 -2.92,2.18 -0.98,0.71 -1.91,1.36 -2.87,2.01 -0.97,0.65 -1.96,1.3 -2.92,1.91 -0.96,0.61 -1.89,1.17 -2.92,1.77 -1.04,0.6 -2.18,1.24 -3.23,1.81 -1.05,0.57 -2,1.08 -2.98,1.58 -0.98,0.5 -1.99,0.99 -2.98,1.44 -0.99,0.45 -1.95,0.87 -3.06,1.34 -1.1,0.46 -2.34,0.97 -3.46,1.4 -1.11,0.44 -2.11,0.8 -3.15,1.11 -1.04,0.31 -2.12,0.57 -3.39,0.85 -1.28,0.28 -2.74,0.57 -4.3,0.85 -1.56,0.28 -3.21,0.55 -4.59,0.75 -1.37,0.21 -2.46,0.37 -3.78,0.54 -1.32,0.18 -2.88,0.37 -4.41,0.56 -1.53,0.18 -3.05,0.35 -4.55,0.53 -1.51,0.19 -2.99,0.38 -4.29,0.46 -1.3,0.09 -2.41,0.07 -3.66,-0.02 -1.25,-0.1 -2.62,-0.26 -3.91,-0.45 -1.28,-0.18 -2.47,-0.39 -3.92,-0.68 -1.46,-0.29 -3.18,-0.65 -4.98,-1.08 -1.8,-0.43 -3.67,-0.93 -5.16,-1.37 -1.49,-0.44 -2.6,-0.8 -3.65,-1.17 -1.06,-0.37 -2.07,-0.74 -3.13,-1.16 -1.06,-0.41 -2.18,-0.88 -3.32,-1.37 -1.14,-0.49 -2.32,-1.01 -3.62,-1.63 -1.3,-0.63 -2.73,-1.35 -3.98,-2.01 -1.25,-0.66 -2.32,-1.26 -3.3,-1.84 -0.99,-0.58 -1.89,-1.13 -2.78,-1.69 -0.89,-0.56 -1.76,-1.11 -2.64,-1.7 -0.88,-0.59 -1.75,-1.22 -2.58,-1.83 -0.83,-0.6 -1.6,-1.19 -2.35,-1.76 -0.75,-0.58 -1.47,-1.14 -2.23,-1.76 -0.76,-0.62 -1.54,-1.28 -2.28,-1.92 -0.74,-0.63 -1.44,-1.24 -2.17,-1.9 -0.73,-0.67 -1.51,-1.4 -2.2,-2.08 -0.69,-0.68 -1.3,-1.31 -1.97,-1.97 -0.67,-0.66 -1.39,-1.34 -2.09,-2.06 -0.69,-0.71 -1.36,-1.45 -2,-2.18 -0.64,-0.72 -1.26,-1.43 -1.91,-2.2 -0.65,-0.78 -1.34,-1.62 -1.99,-2.43 -0.65,-0.8 -1.25,-1.56 -1.81,-2.3 -0.56,-0.74 -1.07,-1.45 -1.63,-2.22 -0.56,-0.78 -1.17,-1.62 -1.72,-2.39 -0.55,-0.77 -1.04,-1.46 -1.55,-2.24 -0.51,-0.79 -1.04,-1.65 -1.64,-2.59 -0.59,-0.94 -1.25,-1.95 -1.84,-2.93 -0.6,-0.98 -1.14,-1.94 -1.74,-3.01 -0.59,-1.06 -1.24,-2.22 -1.79,-3.26 -0.55,-1.05 -1.01,-1.98 -1.46,-2.89 -0.45,-0.91 -0.88,-1.81 -1.34,-2.76 -0.46,-0.96 -0.94,-1.99 -1.37,-2.96 -0.44,-0.96 -0.83,-1.88 -1.29,-3.02 -0.46,-1.14 -0.99,-2.51 -1.5,-3.84 -0.51,-1.33 -1.01,-2.62 -1.42,-3.77 -0.42,-1.15 -0.76,-2.15 -1.14,-3.35 -0.38,-1.21 -0.82,-2.63 -1.21,-3.96 -0.4,-1.33 -0.76,-2.59 -1.08,-3.75 -0.32,-1.16 -0.6,-2.22 -0.9,-3.41 -0.29,-1.18 -0.61,-2.48 -0.9,-3.86 -0.29,-1.38 -0.56,-2.82 -0.79,-4.1 -0.23,-1.27 -0.42,-2.37 -0.59,-3.45 -0.18,-1.08 -0.34,-2.14 -0.5,-3.26 -0.16,-1.11 -0.31,-2.28 -0.45,-3.5 -0.15,-1.22 -0.28,-2.49 -0.43,-4.4 -0.16,-1.91 -0.33,-4.46 -0.41,-6.85 -0.09,-2.39 -0.09,-4.63 -0.06,-6.71 0.04,-2.09 0.1,-4.02 0.21,-6.17 0.12,-2.15 0.28,-4.53 0.51,-6.96 0.23,-2.44 0.52,-4.93 0.88,-7.41 0.37,-2.49 0.8,-4.96 1.24,-7.31 0.43,-2.35 0.88,-4.58 1.44,-6.92 0.56,-2.33 1.23,-4.79 1.93,-7.14 0.7,-2.36 1.42,-4.62 2.18,-6.81 0.76,-2.2 1.54,-4.32 2.36,-6.43 0.82,-2.11 1.67,-4.2 2.63,-6.31 0.95,-2.11 2,-4.23 3.06,-6.27 1.05,-2.03 2.11,-3.97 3.14,-5.77 1.04,-1.8 2.06,-3.45 3.24,-5.27 1.18,-1.81 2.53,-3.8 3.92,-5.72 1.39,-1.93 2.82,-3.79 4.16,-5.43 1.34,-1.63 2.59,-3.03 4.01,-4.56 1.43,-1.53 3.03,-3.19 4.44,-4.6 1.42,-1.4 2.65,-2.55 3.85,-3.61 1.21,-1.06 2.38,-2.05 3.19,-2.72z"/>
 </g>
</svg>
