<?xml version="1.0" encoding="UTF-8"?>
<!DOCTYPE svg PUBLIC "-//W3C//DTD SVG 1.1//EN" "http://www.w3.org/Graphics/SVG/1.1/DTD/svg11.dtd">
<!-- Creator: CorelDRAW 2018 (64-Bit) -->
<svg xmlns="http://www.w3.org/2000/svg" xml:space="preserve" width="256px" height="256px" version="1.1" style="shape-rendering:geometricPrecision; text-rendering:geometricPrecision; image-rendering:optimizeQuality; fill-rule:evenodd; clip-rule:evenodd"
viewBox="0 0 256 256"
 xmlns:xlink="http://www.w3.org/1999/xlink">
 <defs>
  <style type="text/css">
   <![CDATA[
    .fil0 {fill:url(#id0)}
   ]]>
  </style>
  <linearGradient id="id0" gradientUnits="userSpaceOnUse" x1="35.93" y1="229.98" x2="364.21" y2="-18.97">
   <stop offset="0" style="stop-opacity:1; stop-color:#2B2A29"/>
   <stop offset="1" style="stop-opacity:1; stop-color:red"/>
  </linearGradient>
 </defs>
 <g id="Слой_x0020_1">
  <metadata id="CorelCorpID_0Corel-Layer"/>
  <path class="fil0" d="M76.01 21.1c0.82,-0.67 1.28,-1.02 1.75,-1.38 0.47,-0.36 0.94,-0.71 1.44,-1.08 0.49,-0.37 1.02,-0.75 1.51,-1.11 0.49,-0.35 0.94,-0.68 1.42,-1.01 0.47,-0.33 0.98,-0.65 1.52,-1 0.55,-0.35 1.14,-0.74 1.72,-1.11 0.59,-0.36 1.17,-0.72 1.8,-1.1 0.63,-0.38 1.32,-0.79 1.95,-1.16 0.63,-0.37 1.21,-0.71 1.95,-1.11 0.75,-0.4 1.65,-0.86 2.41,-1.24 0.75,-0.38 1.35,-0.67 2.03,-1 0.68,-0.33 1.45,-0.69 2.19,-1.03 0.75,-0.34 1.47,-0.65 2.16,-0.95 0.7,-0.3 1.37,-0.57 2.08,-0.84 0.71,-0.27 1.45,-0.55 2.23,-0.83 0.78,-0.29 1.6,-0.59 2.48,-0.88 0.87,-0.29 1.8,-0.58 2.64,-0.83 0.84,-0.26 1.6,-0.48 2.28,-0.67 0.68,-0.2 1.29,-0.36 1.99,-0.55 0.7,-0.18 1.49,-0.38 2.26,-0.56 0.77,-0.18 1.53,-0.33 2.34,-0.5 0.82,-0.17 1.69,-0.37 2.56,-0.52 0.87,-0.16 1.75,-0.28 3.33,-0.39 1.57,-0.11 3.85,-0.21 5.5,-0.24 1.65,-0.03 2.68,0.02 3.6,0.07 0.92,0.05 1.73,0.12 2.62,0.21 0.88,0.08 1.83,0.2 2.72,0.3 0.89,0.1 1.71,0.18 2.51,0.29 0.8,0.11 1.59,0.25 2.36,0.38 0.77,0.14 1.52,0.26 2.56,0.47 1.04,0.2 2.38,0.48 3.47,0.73 1.08,0.24 1.93,0.45 2.84,0.68 0.91,0.24 1.88,0.5 2.79,0.77 0.92,0.26 1.78,0.54 2.6,0.79 0.82,0.26 1.6,0.5 2.41,0.78 0.81,0.27 1.65,0.57 2.48,0.89 0.84,0.31 1.68,0.64 2.58,0.99 0.9,0.36 1.86,0.75 2.65,1.08 0.8,0.33 1.43,0.6 2.21,0.97 0.77,0.36 1.7,0.82 2.7,1.31 1,0.5 2.06,1.03 3.01,1.53 0.94,0.5 1.76,0.96 2.53,1.4 0.77,0.43 1.49,0.83 2.38,1.36 0.9,0.52 1.98,1.18 2.88,1.74 0.9,0.57 1.62,1.05 2.29,1.5 0.66,0.45 1.28,0.87 2.01,1.39 0.74,0.52 1.59,1.13 2.39,1.72 0.81,0.59 1.57,1.16 2.3,1.71 0.72,0.55 1.41,1.08 1.99,1.55 0.58,0.47 1.06,0.88 1.64,1.39 0.59,0.5 1.28,1.1 1.96,1.69 0.68,0.6 1.35,1.19 1.91,1.71 0.57,0.53 1.04,0.98 1.72,1.64 0.67,0.66 1.55,1.52 2.28,2.25 0.73,0.73 1.32,1.33 1.89,1.92 0.57,0.59 1.11,1.16 1.64,1.75 0.54,0.59 1.07,1.2 1.63,1.84 0.56,0.64 1.15,1.32 1.69,1.95 0.55,0.62 1.06,1.21 1.57,1.85 0.52,0.65 1.04,1.35 1.62,2.14 0.59,0.78 1.23,1.65 1.78,2.38 0.55,0.74 0.99,1.35 1.42,1.96 0.42,0.6 0.83,1.21 1.25,1.82 0.42,0.62 0.85,1.25 1.33,1.98 0.47,0.73 0.99,1.56 1.5,2.39 0.5,0.82 0.98,1.63 1.67,2.83 0.7,1.19 1.6,2.77 2.37,4.2 0.77,1.42 1.4,2.71 2.05,4.03 0.65,1.32 1.31,2.68 1.98,4.2 0.67,1.52 1.36,3.2 2.02,4.88 0.66,1.69 1.3,3.4 1.86,4.96 0.55,1.56 1.04,2.99 1.53,4.6 0.49,1.61 0.98,3.42 1.47,5.22 0.48,1.79 0.95,3.59 1.31,5.19 0.36,1.61 0.62,3.03 0.88,4.47 0.27,1.43 0.55,2.88 0.83,4.62 0.28,1.74 0.56,3.78 0.77,5.53 0.22,1.75 0.37,3.23 0.51,4.81 0.14,1.58 0.27,3.27 0.34,5.26 0.07,1.99 0.08,4.28 0.09,6.28 0,2.01 0,3.74 -0.02,5.23 -0.01,1.5 -0.05,2.75 -0.13,4.21 -0.09,1.45 -0.21,3.1 -0.35,4.74 -0.14,1.64 -0.3,3.27 -0.49,4.96 -0.19,1.69 -0.42,3.44 -0.73,5.5 -0.32,2.06 -0.73,4.42 -1.13,6.54 -0.41,2.13 -0.82,4.01 -1.26,5.85 -0.43,1.84 -0.9,3.65 -1.43,5.5 -0.52,1.86 -1.09,3.76 -1.61,5.44 -0.52,1.68 -0.99,3.13 -1.46,4.44 -0.46,1.32 -0.93,2.5 -1.58,4.04 -0.65,1.54 -1.49,3.45 -2.41,5.41 -0.92,1.97 -1.93,3.99 -2.69,5.48 -0.77,1.5 -1.29,2.47 -1.85,3.48 -0.56,1 -1.14,2.04 -1.83,3.17 -0.69,1.13 -1.5,2.37 -2.26,3.54 -0.76,1.18 -1.48,2.29 -2.19,3.31 -0.7,1.02 -1.38,1.94 -2.11,2.93 -0.73,0.99 -1.51,2.05 -2.31,3.09 -0.81,1.04 -1.63,2.07 -2.44,3.03 -0.81,0.96 -1.6,1.86 -2.41,2.78 -0.82,0.91 -1.66,1.86 -2.49,2.74 -0.82,0.89 -1.62,1.73 -2.35,2.46 -0.72,0.73 -1.38,1.36 -2.06,2.01 -0.69,0.66 -1.41,1.34 -2.18,2.06 -0.78,0.71 -1.61,1.45 -2.42,2.14 -0.82,0.69 -1.61,1.32 -2.42,1.97 -0.8,0.65 -1.61,1.33 -2.53,2.05 -0.92,0.72 -1.94,1.48 -2.92,2.18 -0.98,0.71 -1.91,1.36 -2.87,2.01 -0.97,0.65 -1.96,1.3 -2.92,1.91 -0.96,0.61 -1.89,1.17 -2.92,1.77 -1.04,0.6 -2.18,1.24 -3.23,1.81 -1.05,0.57 -2,1.08 -2.98,1.58 -0.98,0.5 -1.99,0.99 -2.98,1.44 -0.99,0.45 -1.95,0.87 -3.06,1.34 -1.1,0.46 -2.34,0.97 -3.46,1.4 -1.11,0.44 -2.11,0.8 -3.15,1.11 -1.04,0.31 -2.12,0.57 -3.39,0.85 -1.28,0.28 -2.74,0.57 -4.3,0.85 -1.56,0.28 -3.21,0.55 -4.59,0.75 -1.37,0.21 -2.46,0.37 -3.78,0.54 -1.32,0.18 -2.88,0.37 -4.41,0.56 -1.53,0.18 -3.05,0.35 -4.55,0.53 -1.51,0.19 -2.99,0.38 -4.29,0.46 -1.3,0.09 -2.41,0.07 -3.66,-0.02 -1.25,-0.1 -2.62,-0.26 -3.91,-0.45 -1.28,-0.18 -2.47,-0.39 -3.92,-0.68 -1.46,-0.29 -3.18,-0.65 -4.98,-1.08 -1.8,-0.43 -3.67,-0.93 -5.16,-1.37 -1.49,-0.44 -2.6,-0.8 -3.65,-1.17 -1.06,-0.37 -2.07,-0.74 -3.13,-1.16 -1.06,-0.41 -2.18,-0.88 -3.32,-1.37 -1.14,-0.49 -2.32,-1.01 -3.62,-1.63 -1.3,-0.63 -2.73,-1.35 -3.98,-2.01 -1.25,-0.66 -2.32,-1.26 -3.3,-1.84 -0.99,-0.58 -1.89,-1.13 -2.78,-1.69 -0.89,-0.56 -1.76,-1.11 -2.64,-1.7 -0.88,-0.59 -1.75,-1.22 -2.58,-1.83 -0.83,-0.6 -1.6,-1.19 -2.35,-1.76 -0.75,-0.58 -1.47,-1.14 -2.23,-1.76 -0.76,-0.62 -1.54,-1.28 -2.28,-1.92 -0.74,-0.63 -1.44,-1.24 -2.17,-1.9 -0.73,-0.67 -1.51,-1.4 -2.2,-2.08 -0.69,-0.68 -1.3,-1.31 -1.97,-1.97 -0.67,-0.66 -1.39,-1.34 -2.09,-2.06 -0.69,-0.71 -1.36,-1.45 -2,-2.18 -0.64,-0.72 -1.26,-1.43 -1.91,-2.2 -0.65,-0.78 -1.34,-1.62 -1.99,-2.43 -0.65,-0.8 -1.25,-1.56 -1.81,-2.3 -0.56,-0.74 -1.07,-1.45 -1.63,-2.22 -0.56,-0.78 -1.17,-1.62 -1.72,-2.39 -0.55,-0.77 -1.04,-1.46 -1.55,-2.24 -0.51,-0.79 -1.04,-1.65 -1.64,-2.59 -0.59,-0.94 -1.25,-1.95 -1.84,-2.93 -0.6,-0.98 -1.14,-1.94 -1.74,-3.01 -0.59,-1.06 -1.24,-2.22 -1.79,-3.26 -0.55,-1.05 -1.01,-1.98 -1.46,-2.89 -0.45,-0.91 -0.88,-1.81 -1.34,-2.76 -0.46,-0.96 -0.94,-1.99 -1.37,-2.96 -0.44,-0.96 -0.83,-1.88 -1.29,-3.02 -0.46,-1.14 -0.99,-2.51 -1.5,-3.84 -0.51,-1.33 -1.01,-2.62 -1.42,-3.77 -0.42,-1.15 -0.76,-2.15 -1.14,-3.35 -0.38,-1.21 -0.82,-2.63 -1.21,-3.96 -0.4,-1.33 -0.76,-2.59 -1.08,-3.75 -0.32,-1.16 -0.6,-2.22 -0.9,-3.41 -0.29,-1.18 -0.61,-2.48 -0.9,-3.86 -0.29,-1.38 -0.56,-2.82 -0.79,-4.1 -0.23,-1.27 -0.42,-2.37 -0.59,-3.45 -0.18,-1.08 -0.34,-2.14 -0.5,-3.26 -0.16,-1.11 -0.31,-2.28 -0.45,-3.5 -0.15,-1.22 -0.28,-2.49 -0.43,-4.4 -0.16,-1.91 -0.33,-4.46 -0.41,-6.85 -0.09,-2.39 -0.09,-4.63 -0.06,-6.71 0.04,-2.09 0.1,-4.02 0.21,-6.17 0.12,-2.15 0.28,-4.53 0.51,-6.96 0.23,-2.44 0.52,-4.93 0.88,-7.41 0.37,-2.49 0.8,-4.96 1.24,-7.31 0.43,-2.35 0.88,-4.58 1.44,-6.92 0.56,-2.33 1.23,-4.79 1.93,-7.14 0.7,-2.36 1.42,-4.62 2.18,-6.81 0.76,-2.2 1.54,-4.32 2.36,-6.43 0.82,-2.11 1.67,-4.2 2.63,-6.31 0.95,-2.11 2,-4.23 3.06,-6.27 1.05,-2.03 2.11,-3.97 3.14,-5.77 1.04,-1.8 2.06,-3.45 3.24,-5.27 1.18,-1.81 2.53,-3.8 3.92,-5.72 1.39,-1.93 2.82,-3.79 4.16,-5.43 1.34,-1.63 2.59,-3.03 4.01,-4.56 1.43,-1.53 3.03,-3.19 4.44,-4.6 1.42,-1.4 2.65,-2.55 3.85,-3.61 1.21,-1.06 2.38,-2.05 3.19,-2.72zm23.28 -16.91c-0.27,-0.13 -2.67,0.44 -4.81,1 -2.15,0.55 -4.04,1.1 -5.53,1.57 -1.49,0.46 -2.57,0.85 -3.71,1.33 -1.14,0.48 -2.34,1.05 -3.69,1.74 -1.36,0.68 -2.86,1.48 -4.3,2.29 -1.43,0.81 -2.8,1.62 -3.83,2.25 -1.03,0.63 -1.73,1.07 -1.82,1.31 -0.08,0.24 0.44,0.27 1.29,0.26 0.84,-0.01 1.99,-0.06 3.07,-0.11 1.08,-0.05 2.07,-0.1 2.9,-0.36 0.83,-0.25 1.48,-0.71 2.47,-1.37 1,-0.66 2.33,-1.54 3.52,-2.27 1.18,-0.73 2.22,-1.33 3.35,-1.96 1.12,-0.63 2.34,-1.3 3.63,-1.96 1.29,-0.66 2.65,-1.32 4.26,-2.05 1.61,-0.73 3.47,-1.55 3.2,-1.67zm-28.2 17.3c-0.27,-0.27 -1.34,-0.34 -2.41,-0.4 -1.06,-0.07 -2.13,-0.14 -2.89,-0.19 -0.75,-0.05 -1.2,-0.07 -1.61,0.06 -0.41,0.12 -0.78,0.4 -1.36,0.88 -0.58,0.48 -1.36,1.15 -2.28,1.94 -0.91,0.8 -1.97,1.71 -2.88,2.52 -0.91,0.81 -1.68,1.51 -2.36,2.13 -0.68,0.63 -1.27,1.19 -1.66,1.57 -0.39,0.39 -0.58,0.59 -0.52,0.69 0.07,0.1 0.39,0.09 0.89,0.08 0.49,-0.02 1.15,-0.04 2.09,-0.07 0.95,-0.04 2.17,-0.1 3.14,-0.15 0.97,-0.05 1.68,-0.1 2.18,-0.12 0.5,-0.03 0.78,-0.04 1.19,-0.32 0.41,-0.28 0.95,-0.83 1.54,-1.43 0.58,-0.61 1.22,-1.27 1.9,-1.94 0.68,-0.67 1.39,-1.35 2.1,-2.02 0.72,-0.66 1.44,-1.32 2.06,-1.89 0.62,-0.57 1.15,-1.06 0.88,-1.34zm-30.27 23.9c0.25,0.07 0.89,0.05 1.86,0.01 0.96,-0.03 2.26,-0.07 3.63,-0.12 1.37,-0.05 2.81,-0.11 3.62,-0.16 0.81,-0.04 1,-0.07 1.29,-0.36 0.29,-0.3 0.69,-0.86 1.12,-1.46 0.42,-0.6 0.88,-1.24 1.36,-1.91 0.47,-0.67 0.98,-1.37 1.53,-2.12 0.55,-0.75 1.14,-1.53 1.54,-2.05 0.4,-0.52 0.6,-0.77 0.35,-0.91 -0.24,-0.14 -0.94,-0.18 -1.81,-0.24 -0.87,-0.06 -1.9,-0.13 -2.97,-0.21 -1.07,-0.08 -2.18,-0.16 -2.94,-0.1 -0.77,0.06 -1.18,0.26 -1.57,0.57 -0.38,0.31 -0.72,0.73 -1.21,1.31 -0.49,0.58 -1.12,1.32 -1.77,2.1 -0.64,0.78 -1.28,1.62 -1.96,2.5 -0.68,0.88 -1.38,1.8 -1.8,2.35 -0.41,0.55 -0.53,0.73 -0.27,0.8zm-3.42 5.19c0.46,-0.04 1.31,0.02 2.15,0.07 0.84,0.04 1.68,0.09 2.6,0.14 0.92,0.05 1.93,0.11 2.72,0.17 0.79,0.05 1.37,0.09 1.74,0.12 0.37,0.02 0.53,0.04 0.42,0.39 -0.12,0.36 -0.5,1.06 -0.9,1.77 -0.39,0.71 -0.79,1.42 -1.2,2.2 -0.41,0.77 -0.84,1.61 -1.18,2.28 -0.34,0.68 -0.6,1.19 -0.77,1.53 -0.17,0.35 -0.27,0.53 -0.74,0.62 -0.47,0.09 -1.33,0.09 -2.35,0.11 -1.03,0.02 -2.23,0.07 -3.49,0.11 -1.26,0.05 -2.59,0.11 -3.38,0.15 -0.8,0.03 -1.07,0.05 -1.29,0.05 -0.21,0.01 -0.36,0 -0.34,-0.17 0.01,-0.16 0.19,-0.47 0.51,-1.05 0.33,-0.58 0.8,-1.41 1.22,-2.15 0.41,-0.74 0.78,-1.37 1.27,-2.18 0.48,-0.81 1.09,-1.78 1.52,-2.46 0.42,-0.67 0.65,-1.03 0.81,-1.28 0.15,-0.24 0.22,-0.38 0.68,-0.42zm2.09 15.53c-0.19,-0.18 -0.69,-0.21 -1.53,-0.24 -0.84,-0.04 -2.01,-0.08 -3.06,-0.12 -1.04,-0.05 -1.96,-0.11 -2.85,-0.17 -0.88,-0.05 -1.74,-0.11 -2.3,-0.15 -0.55,-0.04 -0.81,-0.07 -1.06,0.21 -0.25,0.27 -0.51,0.85 -0.86,1.61 -0.35,0.76 -0.8,1.7 -1.31,2.88 -0.5,1.17 -1.05,2.58 -1.38,3.4 -0.33,0.81 -0.43,1.04 -0.31,1.14 0.11,0.11 0.44,0.09 1.09,0.08 0.65,-0.02 1.61,-0.04 2.8,-0.05 1.18,-0.02 2.59,-0.03 3.83,-0.05 1.23,-0.01 2.31,-0.03 2.94,-0.05 0.63,-0.01 0.81,-0.03 0.99,-0.28 0.18,-0.26 0.36,-0.76 0.66,-1.55 0.29,-0.78 0.7,-1.85 1.11,-2.87 0.4,-1.03 0.78,-2 1.04,-2.65 0.26,-0.65 0.38,-0.97 0.2,-1.14zm-5.77 14.66c-0.51,-0.1 -1.51,-0.12 -2.95,-0.15 -1.44,-0.04 -3.32,-0.08 -4.65,-0.11 -1.32,-0.03 -2.08,-0.05 -2.58,-0.07 -0.5,-0.02 -0.75,-0.03 -0.95,0.22 -0.21,0.25 -0.39,0.77 -0.64,1.6 -0.25,0.83 -0.57,1.96 -0.91,3.08 -0.34,1.11 -0.71,2.22 -0.92,2.9 -0.2,0.68 -0.24,0.93 0.06,1.06 0.29,0.13 0.93,0.13 1.99,0.13 1.06,0 2.55,-0.01 4.01,-0.02 1.46,-0.02 2.89,-0.04 3.84,-0.06 0.96,-0.02 1.46,-0.02 1.76,-0.27 0.31,-0.24 0.42,-0.73 0.64,-1.51 0.21,-0.78 0.52,-1.86 0.77,-2.72 0.24,-0.86 0.42,-1.51 0.58,-2.08 0.17,-0.57 0.32,-1.06 0.39,-1.4 0.07,-0.33 0.06,-0.5 -0.44,-0.6zm-3.92 14.92c-0.68,-0.11 -2.09,-0.12 -3.49,-0.14 -1.39,-0.02 -2.77,-0.06 -3.96,-0.08 -1.19,-0.02 -2.19,-0.03 -2.82,-0.03 -0.62,-0.01 -0.87,0 -1.05,0.25 -0.17,0.26 -0.28,0.78 -0.4,1.38 -0.12,0.6 -0.26,1.28 -0.4,2.03 -0.13,0.76 -0.27,1.58 -0.4,2.32 -0.13,0.74 -0.26,1.4 -0.34,1.83 -0.08,0.44 -0.12,0.65 0.31,0.75 0.42,0.1 1.3,0.09 2.73,0.09 1.44,-0.01 3.44,-0.01 4.96,-0.01 1.52,0.01 2.57,0.01 3.17,0.01 0.6,0 0.75,0 0.87,-0.3 0.11,-0.3 0.2,-0.9 0.34,-1.73 0.15,-0.83 0.34,-1.89 0.53,-2.9 0.18,-1.02 0.37,-1.98 0.48,-2.57 0.11,-0.58 0.15,-0.79 -0.53,-0.9zm-2.34 14.83c-0.66,-0.12 -2,-0.12 -3.24,-0.13 -1.24,0 -2.39,-0.02 -3.64,-0.03 -1.26,-0.01 -2.63,-0.01 -3.41,-0.01 -0.78,0 -0.98,-0.02 -1.11,0.22 -0.12,0.24 -0.18,0.73 -0.26,1.49 -0.07,0.76 -0.16,1.79 -0.25,2.74 -0.08,0.96 -0.15,1.83 -0.2,2.44 -0.05,0.61 -0.06,0.94 -0.07,1.18 -0.01,0.24 -0.02,0.38 0.37,0.43 0.38,0.07 1.16,0.05 2.14,0.05 0.98,-0.01 2.17,0 3.41,0 1.24,0 2.53,-0.01 3.53,-0.02 1,-0.01 1.69,-0.02 2.09,-0.01 0.4,0 0.51,0.02 0.58,-0.38 0.08,-0.41 0.13,-1.24 0.19,-2.07 0.05,-0.84 0.12,-1.69 0.21,-2.58 0.08,-0.88 0.17,-1.81 0.23,-2.39 0.06,-0.58 0.08,-0.81 -0.57,-0.93zm-1.18 14.66c-0.82,-0.13 -2.46,-0.13 -4.1,-0.13 -1.64,0.01 -3.28,0.02 -4.37,0.03 -1.1,0.01 -1.66,0.01 -2.03,0.02 -0.37,0.01 -0.55,0.02 -0.64,0.34 -0.09,0.31 -0.09,0.92 -0.08,1.95 0.01,1.03 0.02,2.47 0.03,3.48 0.02,1.01 0.04,1.59 0.05,1.99 0.02,0.4 0.02,0.62 0.37,0.72 0.34,0.11 1.03,0.1 1.97,0.1 0.95,0 2.15,0.02 3.34,0.01 1.2,-0.01 2.38,-0.05 3.35,-0.07 0.97,-0.02 1.72,-0.03 2.19,-0.04 0.47,-0.01 0.66,-0.02 0.75,-0.24 0.08,-0.23 0.05,-0.67 0.03,-1.3 -0.03,-0.63 -0.05,-1.46 -0.06,-2.24 -0.01,-0.79 -0.01,-1.53 0,-2.18 0.01,-0.65 0.01,-1.21 0.02,-1.62 0,-0.42 0,-0.68 -0.82,-0.82zm0.95 14.99c-0.38,-0.3 -1.11,-0.3 -2.15,-0.3 -1.03,0 -2.37,0.01 -3.76,0.01 -1.39,0 -2.82,-0.01 -3.75,0 -0.93,0 -1.36,0.01 -1.61,0.01 -0.24,0.01 -0.31,0.01 -0.32,0.35 -0.01,0.35 0.04,1.04 0.09,1.67 0.05,0.63 0.09,1.2 0.16,1.83 0.06,0.64 0.14,1.34 0.22,1.96 0.08,0.62 0.17,1.17 0.22,1.62 0.06,0.44 0.1,0.79 0.72,0.96 0.63,0.18 1.85,0.19 3.31,0.19 1.45,0 3.15,-0.01 4.3,-0.01 1.15,0 1.75,0 2.3,-0.01 0.55,-0.02 1.06,-0.04 1.25,-0.47 0.18,-0.43 0.05,-1.27 -0.05,-2.11 -0.1,-0.84 -0.17,-1.69 -0.24,-2.4 -0.07,-0.7 -0.15,-1.26 -0.21,-1.84 -0.05,-0.58 -0.1,-1.17 -0.48,-1.46zm1.67 14.7c-0.66,-0.27 -1.89,-0.28 -3.19,-0.28 -1.31,0 -2.7,0.01 -3.84,0.01 -1.15,0.01 -2.05,0.01 -2.75,0.01 -0.71,0 -1.21,0 -1.4,0.37 -0.19,0.36 -0.08,1.08 0.08,1.95 0.16,0.87 0.37,1.89 0.55,2.77 0.18,0.88 0.34,1.63 0.47,2.19 0.12,0.56 0.2,0.93 0.63,1.12 0.43,0.19 1.2,0.2 2.36,0.2 1.15,0 2.69,-0.01 4.09,-0.01 1.4,-0.01 2.67,-0.01 3.56,0 0.88,0.01 1.38,0.03 1.55,-0.36 0.16,-0.39 -0.01,-1.19 -0.2,-2.04 -0.19,-0.86 -0.39,-1.78 -0.57,-2.55 -0.17,-0.77 -0.32,-1.39 -0.44,-1.97 -0.13,-0.58 -0.23,-1.13 -0.9,-1.41zm3.52 14.64c-0.65,-0.15 -1.86,-0.14 -3.09,-0.13 -1.23,0.02 -2.48,0.05 -3.68,0.06 -1.21,0.01 -2.37,0.01 -3.17,0.01 -0.81,0 -1.25,0 -1.38,0.35 -0.14,0.36 0.03,1.08 0.29,1.98 0.27,0.91 0.61,2 0.88,2.82 0.27,0.82 0.45,1.38 0.63,1.9 0.18,0.53 0.36,1.02 0.9,1.26 0.55,0.25 1.46,0.25 2.54,0.24 1.08,0 2.33,-0.02 3.65,-0.02 1.31,-0.01 2.69,-0.01 3.65,-0.03 0.97,-0.02 1.52,-0.07 1.67,-0.45 0.15,-0.39 -0.1,-1.12 -0.35,-1.83 -0.24,-0.71 -0.47,-1.4 -0.68,-2.05 -0.21,-0.64 -0.41,-1.24 -0.58,-1.79 -0.17,-0.55 -0.32,-1.06 -0.44,-1.47 -0.12,-0.4 -0.2,-0.7 -0.84,-0.85zm5.09 14.88c-0.77,-0.21 -2.13,-0.21 -3.43,-0.21 -1.29,0 -2.52,-0.01 -3.67,-0.01 -1.15,0 -2.22,0 -2.98,0.01 -0.76,0.01 -1.2,0.02 -1.33,0.27 -0.13,0.26 0.05,0.75 0.29,1.35 0.24,0.59 0.55,1.3 0.87,2.02 0.32,0.73 0.66,1.48 0.95,2.12 0.29,0.64 0.54,1.17 0.75,1.62 0.21,0.45 0.39,0.81 0.68,1 0.29,0.18 0.69,0.18 1.52,0.17 0.83,0 2.09,0 3.37,0 1.28,0 2.58,0 3.63,0 1.05,0 1.85,0 2.43,0 0.58,0 0.94,0 0.99,-0.28 0.04,-0.29 -0.22,-0.86 -0.49,-1.44 -0.27,-0.59 -0.54,-1.18 -0.83,-1.81 -0.29,-0.63 -0.59,-1.3 -0.87,-1.94 -0.28,-0.63 -0.53,-1.25 -0.74,-1.75 -0.21,-0.51 -0.38,-0.92 -1.14,-1.12zm6.77 14.69c-0.94,-0.15 -2.66,-0.14 -4.07,-0.12 -1.4,0.01 -2.51,0.03 -3.5,0.04 -0.99,0 -1.88,-0.01 -2.52,0 -0.65,0 -1.06,0.02 -1.19,0.15 -0.14,0.13 0,0.37 0.22,0.75 0.22,0.39 0.52,0.92 0.86,1.5 0.34,0.58 0.7,1.2 1.06,1.79 0.35,0.59 0.69,1.15 1.02,1.68 0.33,0.54 0.65,1.04 0.95,1.51 0.31,0.47 0.6,0.91 0.88,1.12 0.29,0.21 0.57,0.2 1.08,0.18 0.51,-0.01 1.26,-0.02 2.32,-0.04 1.06,-0.02 2.44,-0.04 3.63,-0.07 1.19,-0.02 2.18,-0.05 2.95,-0.06 0.77,-0.01 1.32,0 1.64,0 0.32,0 0.43,-0.01 0.23,-0.41 -0.19,-0.39 -0.69,-1.17 -0.97,-1.61 -0.28,-0.45 -0.35,-0.56 -0.59,-0.95 -0.24,-0.4 -0.65,-1.08 -1.03,-1.71 -0.37,-0.62 -0.71,-1.19 -0.98,-1.68 -0.27,-0.48 -0.48,-0.89 -0.67,-1.25 -0.2,-0.36 -0.37,-0.67 -1.32,-0.82zm9.5 14.79c-0.85,-0.26 -2.2,-0.26 -3.44,-0.25 -1.25,0 -2.39,0 -3.47,0.01 -1.08,0.01 -2.11,0.02 -2.88,0.02 -0.78,0 -1.31,-0.01 -1.45,0.15 -0.14,0.17 0.11,0.52 0.46,0.97 0.35,0.47 0.81,1.04 1.28,1.62 0.47,0.59 0.94,1.18 1.43,1.77 0.48,0.6 0.96,1.18 1.45,1.76 0.49,0.57 0.99,1.13 1.34,1.53 0.34,0.4 0.54,0.62 1,0.73 0.45,0.1 1.17,0.08 1.98,0.07 0.81,-0.01 1.71,-0.01 2.8,-0.01 1.1,0.01 2.39,0.02 3.5,0.01 1.12,0 2.06,-0.02 2.57,-0.03 0.52,-0.02 0.61,-0.03 0.41,-0.3 -0.19,-0.26 -0.67,-0.78 -1.09,-1.29 -0.43,-0.5 -0.8,-1 -1.26,-1.6 -0.46,-0.59 -1.01,-1.27 -1.54,-1.94 -0.53,-0.66 -1.05,-1.31 -1.47,-1.89 -0.43,-0.57 -0.77,-1.08 -1.62,-1.33zm12.59 14.7c-0.82,-0.19 -2.08,-0.19 -3.33,-0.18 -1.24,0.02 -2.47,0.04 -3.55,0.05 -1.08,0.01 -2.01,0.01 -2.69,0.02 -0.67,0.01 -1.09,0.02 -0.94,0.35 0.15,0.33 0.86,0.96 1.59,1.61 0.73,0.65 1.47,1.31 2.23,1.98 0.75,0.66 1.52,1.32 2.34,1.99 0.82,0.66 1.7,1.33 2.32,1.8 0.63,0.46 1.01,0.72 1.84,0.85 0.83,0.12 2.11,0.12 3.27,0.1 1.17,-0.02 2.21,-0.05 3.18,-0.06 0.96,-0.02 1.85,-0.02 2.5,-0.03 0.64,0 1.02,-0.02 0.76,-0.4 -0.27,-0.38 -1.19,-1.12 -2.03,-1.83 -0.85,-0.7 -1.61,-1.36 -2.32,-1.99 -0.72,-0.64 -1.39,-1.25 -1.98,-1.8 -0.59,-0.54 -1.1,-1.02 -1.55,-1.46 -0.44,-0.43 -0.82,-0.81 -1.64,-1zm18.53 14.72c-0.83,-0.19 -1.88,-0.17 -2.93,-0.14 -1.06,0.02 -2.13,0.05 -3.09,0.06 -0.97,0.02 -1.83,0.02 -2.5,0.02 -0.68,0.01 -1.16,0.02 -1.13,0.17 0.03,0.16 0.57,0.46 1.2,0.8 0.62,0.34 1.32,0.72 2.1,1.13 0.77,0.42 1.63,0.86 2.65,1.36 1.03,0.5 2.22,1.06 3.25,1.53 1.03,0.47 1.9,0.85 2.84,1.24 0.95,0.39 1.97,0.78 2.85,1.11 0.88,0.33 1.63,0.59 2.33,0.82 0.7,0.23 1.36,0.43 2.09,0.52 0.73,0.09 1.55,0.06 2.51,0.03 0.95,-0.02 2.05,-0.05 2.94,-0.08 0.89,-0.02 1.57,-0.04 1.47,-0.23 -0.1,-0.18 -0.97,-0.53 -1.87,-0.9 -0.9,-0.38 -1.83,-0.78 -2.76,-1.2 -0.93,-0.43 -1.86,-0.87 -2.71,-1.3 -0.85,-0.43 -1.61,-0.84 -2.41,-1.27 -0.81,-0.44 -1.66,-0.88 -2.45,-1.34 -0.8,-0.45 -1.54,-0.91 -2.23,-1.34 -0.68,-0.42 -1.31,-0.81 -2.15,-0.99zm30.44 12.67c-0.04,-0.07 -0.57,-0.23 -1.12,-0.38 -0.55,-0.15 -1.12,-0.3 -1.6,-0.39 -0.47,-0.09 -0.85,-0.13 -1.34,-0.18 -0.49,-0.06 -1.11,-0.13 -1.77,-0.19 -0.67,-0.07 -1.38,-0.13 -1.96,-0.16 -0.57,-0.04 -0.99,-0.05 -1.51,-0.11 -0.53,-0.05 -1.14,-0.15 -1.67,-0.22 -0.54,-0.07 -0.98,-0.12 -0.87,-0.07 0.11,0.05 0.77,0.21 1.54,0.36 0.76,0.16 1.62,0.31 2.54,0.45 0.91,0.14 1.89,0.27 2.71,0.37 0.82,0.1 1.48,0.17 2.16,0.26 0.68,0.08 1.36,0.19 1.93,0.24 0.56,0.07 1,0.08 0.96,0.02zm11.62 -157.87c0.6,-0.09 1.55,-0.07 2.28,0.25 0.74,0.33 1.25,0.96 1.98,1.39 0.74,0.42 1.7,0.64 2.68,0.7 0.97,0.06 1.96,-0.03 2.81,-0.37 0.84,-0.34 1.55,-0.91 2.36,-1.41 0.81,-0.5 1.73,-0.93 2.62,-1.26 0.9,-0.33 1.77,-0.56 2.19,-0.35 0.41,0.21 0.37,0.87 0.05,1.4 -0.31,0.54 -0.89,0.95 -1.7,1.51 -0.81,0.56 -1.85,1.28 -2.87,1.93 -1.01,0.64 -2,1.23 -2.87,1.59 -0.87,0.36 -1.62,0.49 -2.39,0.37 -0.76,-0.11 -1.55,-0.47 -2.28,-0.88 -0.73,-0.41 -1.39,-0.87 -2.15,-1.35 -0.75,-0.49 -1.59,-1.01 -2.24,-1.52 -0.65,-0.51 -1.11,-1 -1.21,-1.35 -0.11,-0.35 0.14,-0.55 0.74,-0.65zm-25.34 8.79c-0.24,0.8 -0.17,2.68 0.09,4.4 0.27,1.72 0.73,3.27 1.56,4.48 0.84,1.21 2.06,2.07 3.46,2.69 1.4,0.62 2.99,1 4.48,0.95 1.49,-0.04 2.89,-0.52 3.65,-1.27 0.77,-0.76 0.91,-1.79 0.5,-2.79 -0.42,-1 -1.39,-1.97 -2.84,-3.06 -1.46,-1.08 -3.4,-2.28 -5.06,-3.24 -1.67,-0.96 -3.07,-1.69 -4.05,-2.19 -0.98,-0.5 -1.54,-0.78 -1.79,0.03zm-6.21 1.27c0.25,-0.42 0.74,-0.63 1,-0.32 0.26,0.3 0.27,1.13 0.32,2.35 0.04,1.23 0.11,2.85 0.56,4.23 0.45,1.39 1.28,2.54 2.49,3.59 1.21,1.05 2.8,2 4.35,2.74 1.55,0.76 3.07,1.31 4.63,1.57 1.56,0.25 3.17,0.21 4.36,-0.22 1.19,-0.42 1.97,-1.22 2.73,-1.71 0.77,-0.5 1.53,-0.7 2.09,-0.45 0.57,0.25 0.94,0.95 1.06,1.94 0.13,1 0,2.3 -0.26,3.76 -0.27,1.47 -0.67,3.1 -0.41,3.54 0.27,0.44 1.2,-0.32 1.78,-1.26 0.59,-0.94 0.82,-2.07 1.01,-3.16 0.19,-1.09 0.35,-2.14 0.56,-3.08 0.2,-0.93 0.45,-1.74 0.98,-2.24 0.54,-0.5 1.37,-0.68 2.41,-1.21 1.04,-0.52 2.3,-1.39 3.13,-2.33 0.82,-0.93 1.23,-1.93 0.85,-2.42 -0.38,-0.48 -1.54,-0.45 -2.86,-0.43 -1.31,0.02 -2.78,0.02 -4.51,-0.62 -1.74,-0.64 -3.75,-1.92 -5.61,-3.35 -1.87,-1.42 -3.58,-2.98 -5.16,-4.15 -1.59,-1.16 -3.06,-1.92 -4.54,-2.54 -1.48,-0.62 -2.98,-1.11 -4.53,-1.46 -1.56,-0.34 -3.16,-0.54 -4.71,-0.55 -1.54,-0.01 -3.02,0.17 -4.07,0.35 -1.05,0.19 -1.67,0.37 -1.45,0.91 0.22,0.54 1.28,1.44 1.72,2.17 0.44,0.74 0.27,1.31 -0.05,1.94 -0.32,0.62 -0.78,1.29 -0.89,2.2 -0.12,0.92 0.11,2.09 0.52,3.12 0.41,1.04 0.99,1.95 1.39,1.72 0.41,-0.23 0.64,-1.61 0.75,-2.61 0.12,-0.99 0.12,-1.61 0.36,-2.02zm59.78 5.23c0.35,-0.96 1.45,-2.33 2.98,-3.91 1.54,-1.59 3.51,-3.39 4.96,-4.65 1.45,-1.25 2.36,-1.95 3.32,-2.51 0.95,-0.55 1.94,-0.96 2.42,-0.72 0.49,0.23 0.47,1.12 0.45,2.56 -0.02,1.44 -0.03,3.43 -0.43,4.85 -0.4,1.43 -1.18,2.28 -2.01,3.07 -0.84,0.8 -1.74,1.53 -2.86,2.07 -1.12,0.55 -2.46,0.89 -3.9,1.07 -1.44,0.18 -2.97,0.18 -3.93,-0.08 -0.96,-0.27 -1.35,-0.8 -1,-1.75zm-3.43 4.25c-0.2,0.61 -0.13,1.87 -0.1,3.11 0.04,1.25 0.04,2.46 0.22,3.55 0.19,1.09 0.56,2.05 0.28,2.29 -0.29,0.24 -1.22,-0.23 -1.81,-1.11 -0.59,-0.87 -0.84,-2.14 -1.11,-3.54 -0.28,-1.4 -0.58,-2.93 -1.28,-3.75 -0.71,-0.82 -1.82,-0.94 -2.75,-1.39 -0.92,-0.45 -1.66,-1.24 -2.3,-2.07 -0.63,-0.83 -1.16,-1.69 -0.55,-2.18 0.62,-0.5 2.39,-0.63 4.1,-1.08 1.71,-0.45 3.37,-1.23 4.81,-2.17 1.45,-0.95 2.68,-2.06 4.26,-3.48 1.58,-1.42 3.51,-3.15 5.43,-4.66 1.92,-1.51 3.85,-2.8 5.64,-3.71 1.8,-0.91 3.48,-1.44 5.39,-1.85 1.9,-0.42 4.04,-0.71 5.09,-0.47 1.06,0.25 1.04,1.05 0.61,1.62 -0.43,0.57 -1.28,0.91 -1.23,1.2 0.04,0.29 0.98,0.52 1.48,1.21 0.5,0.7 0.57,1.86 0.52,2.98 -0.05,1.13 -0.23,2.22 -0.8,3.18 -0.58,0.96 -1.55,1.79 -1.99,1.25 -0.44,-0.55 -0.35,-2.46 -0.5,-3.44 -0.15,-0.99 -0.54,-1.05 -0.79,-0.85 -0.24,0.21 -0.35,0.67 -0.42,1.91 -0.07,1.24 -0.11,3.26 -0.48,4.8 -0.38,1.55 -1.11,2.63 -1.96,3.71 -0.86,1.09 -1.85,2.19 -2.94,3.04 -1.09,0.86 -2.29,1.48 -3.65,2.01 -1.36,0.53 -2.88,0.98 -4.21,1.3 -1.33,0.33 -2.48,0.54 -3.4,0.36 -0.93,-0.18 -1.64,-0.74 -2.33,-1.19 -0.7,-0.44 -1.39,-0.76 -1.97,-0.94 -0.58,-0.19 -1.06,-0.24 -1.26,0.36zm17.04 -50.18c0.27,0.99 1.03,1.77 1.66,2.51 0.63,0.74 1.12,1.44 1.84,1.54 0.73,0.09 1.68,-0.42 2.49,-1.14 0.81,-0.72 1.48,-1.65 1.84,-2.8 0.37,-1.15 0.42,-2.51 0.56,-3.68 0.14,-1.16 0.37,-2.13 0.79,-3.11 0.41,-0.97 1.01,-1.95 0.7,-2.45 -0.31,-0.49 -1.53,-0.51 -2.73,0.05 -1.2,0.55 -2.38,1.68 -3.54,2.72 -1.17,1.04 -2.31,1.99 -2.99,3.07 -0.68,1.08 -0.89,2.3 -0.62,3.29zm-4.68 -3.35c0.83,-0.75 1.96,-2.17 3.26,-3.52 1.31,-1.35 2.79,-2.62 4.1,-3.56 1.32,-0.94 2.46,-1.53 3.89,-1.97 1.41,-0.44 3.11,-0.72 4.79,-0.95 1.69,-0.22 3.36,-0.38 4.29,-0.89 0.93,-0.5 1.1,-1.36 0.42,-1.8 -0.68,-0.43 -2.21,-0.44 -3.84,-0.37 -1.64,0.08 -3.36,0.24 -5.27,0.43 -1.91,0.18 -3.99,0.39 -5.86,1.28 -1.87,0.9 -3.53,2.49 -4.93,3.98 -1.4,1.5 -2.55,2.91 -3.3,4 -0.76,1.08 -1.13,1.85 -0.98,2.51 0.16,0.66 0.85,1.21 1.46,1.45 0.61,0.23 1.14,0.16 1.97,-0.59zm-71.55 0.42c0.64,-0.44 2.23,-0.1 3.69,0.63 1.47,0.72 2.81,1.82 3.88,2.94 1.08,1.12 1.89,2.26 2.12,3.34 0.23,1.07 -0.12,2.09 -0.9,2.89 -0.78,0.79 -1.98,1.38 -3.26,1.61 -1.29,0.24 -2.67,0.13 -3.36,-0.63 -0.68,-0.76 -0.68,-2.18 -0.93,-3.6 -0.25,-1.43 -0.74,-2.88 -1.15,-4.21 -0.4,-1.33 -0.72,-2.54 -0.09,-2.97zm11.86 1.22c1.02,1.11 1.94,2.31 2.88,2.7 0.93,0.39 1.88,-0.03 2.2,-0.78 0.32,-0.74 0,-1.81 -0.7,-3.05 -0.71,-1.24 -1.8,-2.64 -3.32,-3.69 -1.52,-1.05 -3.46,-1.76 -5.42,-2.35 -1.96,-0.6 -3.93,-1.09 -5.8,-1.37 -1.87,-0.29 -3.64,-0.37 -5.1,-0.16 -1.47,0.22 -2.63,0.72 -2.81,1.44 -0.17,0.72 0.64,1.65 2.19,2.01 1.56,0.36 3.85,0.16 6.07,0.42 2.22,0.26 4.38,0.98 6.02,1.85 1.64,0.87 2.77,1.88 3.79,2.98zm64.01 115.03c1.09,0.38 3.47,0.13 4.94,-0.25 1.46,-0.38 2.01,-0.9 3.48,-1.77 1.46,-0.86 3.84,-2.08 5.71,-3.68 1.87,-1.6 3.23,-3.59 4.13,-5.35 0.9,-1.76 1.34,-3.29 1.78,-5.14 0.44,-1.85 0.88,-4.02 0.95,-6.05 0.07,-2.02 -0.23,-3.9 -0.57,-5.28 -0.34,-1.38 -0.73,-2.25 -1.44,-1.59 -0.7,0.66 -1.73,2.85 -2.92,4.72 -1.19,1.85 -2.55,3.38 -3.98,4.73 -1.42,1.35 -2.93,2.52 -4.78,3.3 -1.85,0.78 -4.06,1.17 -5.78,1.44 -1.73,0.27 -2.99,0.42 -4.26,0.57 -1.27,0.16 -2.56,0.32 -2.48,0.89 0.08,0.57 1.53,1.54 2.58,2.77 1.05,1.24 1.7,2.75 1.96,4.17 0.25,1.43 0.11,2.78 -0.05,3.96 -0.17,1.18 -0.36,2.18 0.73,2.56zm-79.14 1.31c1.41,0.75 3.45,1.8 5.08,2.61 1.62,0.82 2.82,1.4 4.42,1.58 1.61,0.18 3.62,-0.04 4.31,-0.42 0.69,-0.39 0.05,-0.94 -0.3,-1.99 -0.35,-1.05 -0.42,-2.6 -0.28,-3.86 0.14,-1.27 0.49,-2.24 1.05,-3.22 0.57,-0.98 1.35,-1.95 2.02,-2.9 0.67,-0.95 1.23,-1.87 0.74,-2.25 -0.5,-0.36 -2.05,-0.18 -3.93,-0.27 -1.89,-0.09 -4.12,-0.45 -6,-0.92 -1.89,-0.46 -3.44,-1.01 -4.94,-1.91 -1.5,-0.89 -2.95,-2.13 -4.04,-3.37 -1.1,-1.24 -1.84,-2.49 -2.63,-3.67 -0.8,-1.17 -1.65,-2.28 -2.14,-1.77 -0.49,0.52 -0.63,2.64 -0.72,4.66 -0.09,2.02 -0.13,3.93 0.09,5.82 0.21,1.89 0.67,3.76 1.43,5.47 0.75,1.71 1.81,3.25 2.73,4.24 0.92,0.99 1.69,1.43 3.11,2.17zm10.44 9.48c0.15,0.65 1.14,1.8 2.07,2.67 0.94,0.87 1.82,1.46 2.71,2.07 0.88,0.6 1.77,1.22 2.63,1.65 0.85,0.43 1.66,0.66 1.8,0.23 0.15,-0.42 -0.37,-1.5 -1.02,-2.56 -0.64,-1.06 -1.41,-2.08 -1.98,-2.91 -0.58,-0.84 -0.97,-1.47 -1.76,-1.78 -0.8,-0.31 -2,-0.3 -2.95,-0.23 -0.95,0.08 -1.64,0.21 -1.5,0.86zm62.91 1.28c-0.11,-0.42 0.53,-1.52 1.01,-2.64 0.49,-1.12 0.82,-2.26 1.41,-3.06 0.6,-0.8 1.44,-1.27 2.69,-1.58 1.24,-0.3 2.88,-0.44 3.43,-0.11 0.55,0.33 0,1.13 -0.7,2.15 -0.7,1.02 -1.54,2.27 -2.57,3.16 -1.04,0.89 -2.25,1.42 -3.29,1.82 -1.03,0.4 -1.87,0.68 -1.98,0.26zm-41.65 -1.71c1.16,-0.23 2.22,-1.05 3.19,-2.19 0.97,-1.15 1.85,-2.63 2.54,-3.97 0.69,-1.34 1.18,-2.54 1.04,-3.59 -0.14,-1.04 -0.92,-1.94 -2.87,-2.29 -1.96,-0.35 -5.1,-0.15 -7.45,0.06 -2.35,0.2 -3.9,0.42 -4.76,1.14 -0.87,0.72 -1.04,1.93 -0.66,3.31 0.39,1.39 1.34,2.94 2.31,4.14 0.97,1.2 1.96,2.04 3.09,2.65 1.13,0.6 2.4,0.97 3.57,0.74zm22.24 -12.05c0.9,-0.95 2.99,-1.45 5.12,-1.86 2.13,-0.4 4.32,-0.71 6.16,-0.63 1.83,0.08 3.31,0.53 4.04,1.38 0.72,0.85 0.69,2.08 -0.14,3.56 -0.83,1.47 -2.46,3.18 -4.1,4.53 -1.64,1.36 -3.3,2.36 -4.64,2.53 -1.34,0.17 -2.36,-0.49 -3.44,-1.6 -1.07,-1.1 -2.2,-2.64 -2.91,-4.11 -0.71,-1.46 -0.99,-2.85 -0.09,-3.8zm-33.68 -1.81c-1.16,1.17 -1.9,2.88 -2.02,4.62 -0.13,1.73 0.37,3.5 1.19,5.55 0.83,2.06 2,4.41 3.3,6.36 1.31,1.95 2.76,3.5 4.63,4.97 1.87,1.47 4.16,2.85 6.49,3.79 2.33,0.94 4.69,1.44 7.04,1.74 2.34,0.3 4.67,0.41 6.83,0.17 2.15,-0.25 4.12,-0.85 6.24,-1.68 2.12,-0.83 4.38,-1.88 6.72,-3.48 2.35,-1.6 4.78,-3.75 6.62,-6.01 1.83,-2.25 3.07,-4.6 4.09,-6.68 1.02,-2.09 1.84,-3.92 2.31,-5.73 0.48,-1.82 0.62,-3.63 0.07,-5.16 -0.54,-1.53 -1.78,-2.78 -4.32,-3.26 -2.54,-0.49 -6.39,-0.2 -14.08,0.33 -7.69,0.53 -19.23,1.31 -25.79,2 -6.56,0.7 -8.15,1.31 -9.32,2.47zm52.53 -15.16c1.07,0.19 2.8,0.09 4.39,-0.15 1.59,-0.24 3.03,-0.62 4.27,-1.03 1.23,-0.41 2.25,-0.84 2.71,-1.83 0.46,-0.98 0.36,-2.53 0.06,-4.11 -0.3,-1.58 -0.8,-3.21 -1.03,-6.14 -0.23,-2.92 -0.19,-7.16 -0.09,-10.4 0.11,-3.23 0.29,-5.47 1.06,-7.47 0.78,-2 2.16,-3.76 3.9,-5.54 1.75,-1.79 3.87,-3.61 5.82,-4.97 1.96,-1.36 3.76,-2.27 5.01,-3.23 1.26,-0.97 1.96,-1.99 2.46,-3.32 0.49,-1.34 0.77,-2.98 0.52,-4.32 -0.26,-1.34 -1.05,-2.38 -1.6,-3.17 -0.54,-0.8 -0.85,-1.36 -0.93,-0.62 -0.09,0.74 0.03,2.77 -0.24,3.2 -0.28,0.43 -0.95,-0.76 -1.55,-2.01 -0.61,-1.25 -1.16,-2.57 -1.68,-3.84 -0.52,-1.27 -1.01,-2.48 -1.32,-3.74 -0.31,-1.26 -0.44,-2.55 -0.4,-4.64 0.04,-2.1 0.23,-4.99 0.97,-7.3 0.74,-2.31 2.03,-4.05 2.89,-5.43 0.87,-1.38 1.31,-2.4 1.24,-3.65 -0.07,-1.26 -0.65,-2.75 -1.97,-3.64 -1.31,-0.89 -3.36,-1.18 -6.06,-0.82 -2.7,0.37 -6.05,1.39 -8.92,2.57 -2.86,1.17 -5.25,2.49 -7.84,4.18 -2.59,1.69 -5.4,3.75 -7.45,5.31 -2.06,1.57 -3.37,2.63 -4.5,3.66 -1.14,1.03 -2.11,2.02 -2.58,1.89 -0.47,-0.12 -0.43,-1.36 0.27,-2.77 0.69,-1.41 2.05,-2.99 3.49,-4.59 1.44,-1.59 2.95,-3.2 4.46,-4.54 1.49,-1.34 2.97,-2.4 4.43,-3.29 1.46,-0.89 2.89,-1.62 3.01,-2.48 0.12,-0.85 -1.06,-1.84 -2.75,-2.94 -1.7,-1.1 -3.9,-2.31 -6.41,-3.11 -2.5,-0.79 -5.31,-1.17 -7.96,-1.4 -2.66,-0.23 -5.16,-0.31 -8.74,-0.21 -3.59,0.1 -8.24,0.37 -11.83,0.83 -3.6,0.46 -6.12,1.1 -8.94,2.24 -2.82,1.13 -5.95,2.75 -8.36,4.19 -2.42,1.44 -4.13,2.7 -4.31,3.74 -0.18,1.05 1.18,1.88 2.8,2.89 1.61,1 3.48,2.16 5.04,3.29 1.55,1.13 2.78,2.22 4.05,3.55 1.27,1.33 2.58,2.89 3.35,4.29 0.76,1.4 0.99,2.63 0.47,2.68 -0.52,0.05 -1.79,-1.09 -3.52,-2.34 -1.73,-1.25 -3.91,-2.61 -6.34,-4 -2.42,-1.39 -5.09,-2.82 -7.27,-3.88 -2.18,-1.07 -3.87,-1.77 -5.31,-2.13 -1.44,-0.37 -2.62,-0.38 -4.04,-0.59 -1.42,-0.2 -3.08,-0.59 -4.77,-0.73 -1.7,-0.14 -3.42,-0.03 -4.8,0.62 -1.38,0.66 -2.4,1.87 -2.91,3.22 -0.51,1.35 -0.51,2.85 -0.02,4.19 0.5,1.34 1.48,2.52 2.48,3.76 1,1.24 2,2.54 2.41,4.73 0.4,2.18 0.21,5.25 -0.24,7.88 -0.45,2.64 -1.16,4.84 -1.83,6.72 -0.67,1.87 -1.3,3.42 -1.88,3.66 -0.57,0.23 -1.08,-0.84 -1.61,-0.94 -0.53,-0.1 -1.08,0.76 -1.6,2.13 -0.52,1.36 -1.01,3.21 -0.64,4.88 0.37,1.67 1.6,3.14 3.69,4.58 2.08,1.43 5.01,2.82 7.25,4.19 2.24,1.37 3.79,2.72 4.9,4.21 1.11,1.49 1.78,3.12 2.21,5.47 0.42,2.36 0.6,5.46 0.61,8.99 0.01,3.54 -0.15,7.52 -0.43,10.41 -0.29,2.89 -0.69,4.68 -0.3,5.66 0.4,0.97 1.6,1.13 2.85,1.5 1.24,0.37 2.53,0.94 4.19,1.21 1.67,0.26 3.72,0.22 5.01,-0.53 1.3,-0.75 1.85,-2.2 2.58,-4.25 0.73,-2.05 1.65,-4.69 2.58,-7.28 0.92,-2.59 1.86,-5.13 2.63,-7.31 0.78,-2.17 1.4,-3.98 1.88,-5.15 0.49,-1.16 0.84,-1.68 1.02,-1.2 0.17,0.48 0.17,1.96 -0.27,4.09 -0.44,2.12 -1.32,4.89 -2.29,8.13 -0.97,3.25 -2.03,6.98 -2.88,9.98 -0.84,3 -1.48,5.27 1.1,6.21 2.57,0.94 8.36,0.55 14.55,0.06 6.19,-0.5 12.79,-1.09 17.58,-1.48 4.79,-0.38 7.77,-0.57 8.94,-1.4 1.16,-0.84 0.51,-2.33 -0.22,-4.41 -0.73,-2.08 -1.55,-4.75 -2.44,-7.32 -0.89,-2.56 -1.86,-5.01 -2.41,-7.1 -0.56,-2.08 -0.7,-3.8 -0.88,-5.41 -0.17,-1.61 -0.39,-3.11 -0.06,-3.06 0.33,0.06 1.19,1.67 2.25,4.08 1.06,2.41 2.31,5.62 3.3,8.28 0.99,2.66 1.71,4.78 2.31,6.14 0.6,1.37 1.08,1.99 1.52,2.53 0.44,0.54 0.85,1.01 1.91,1.19z"/>
 </g>
</svg>
