<?xml version="1.0" encoding="UTF-8"?>
<!DOCTYPE svg PUBLIC "-//W3C//DTD SVG 1.1//EN" "http://www.w3.org/Graphics/SVG/1.1/DTD/svg11.dtd">
<!-- Creator: CorelDRAW 2018 (64-Bit) -->
<svg xmlns="http://www.w3.org/2000/svg" xml:space="preserve" width="256px" height="256px" version="1.1" style="shape-rendering:geometricPrecision; text-rendering:geometricPrecision; image-rendering:optimizeQuality; fill-rule:evenodd; clip-rule:evenodd"
viewBox="0 0 256 256"
 xmlns:xlink="http://www.w3.org/1999/xlink">
 <defs>
  <style type="text/css">
   <![CDATA[
    .fil0 {fill:url(#id0)}
   ]]>
  </style>
  <linearGradient id="id0" gradientUnits="userSpaceOnUse" x1="35.93" y1="229.97" x2="364.2" y2="-18.97">
   <stop offset="0" style="stop-opacity:1; stop-color:#2B2A29"/>
   <stop offset="1" style="stop-opacity:1; stop-color:red"/>
  </linearGradient>
 </defs>
 <g id="Слой_x0020_1">
  <metadata id="CorelCorpID_0Corel-Layer"/>
  <path class="fil0" d="M115.34 255.96c-0.04,-0.07 -0.57,-0.23 -1.12,-0.38 -0.55,-0.15 -1.12,-0.3 -1.6,-0.39 -0.47,-0.09 -0.84,-0.13 -1.34,-0.18 -0.49,-0.06 -1.1,-0.13 -1.77,-0.19 -0.66,-0.07 -1.38,-0.13 -1.96,-0.16 -0.57,-0.04 -0.99,-0.05 -1.51,-0.11 -0.52,-0.05 -1.14,-0.15 -1.67,-0.22 -0.53,-0.07 -0.98,-0.12 -0.87,-0.07 0.11,0.05 0.77,0.21 1.54,0.36 0.76,0.16 1.62,0.31 2.54,0.45 0.92,0.14 1.89,0.26 2.71,0.36 0.82,0.11 1.48,0.18 2.16,0.26 0.68,0.09 1.36,0.19 1.93,0.25 0.56,0.06 1,0.08 0.96,0.02zm-30.44 -12.68c-0.83,-0.18 -1.87,-0.16 -2.93,-0.14 -1.06,0.03 -2.13,0.06 -3.09,0.07 -0.97,0.02 -1.83,0.02 -2.5,0.02 -0.68,0 -1.16,0.02 -1.13,0.17 0.03,0.16 0.58,0.46 1.2,0.8 0.62,0.34 1.32,0.72 2.1,1.13 0.78,0.41 1.63,0.86 2.66,1.36 1.02,0.5 2.21,1.06 3.24,1.53 1.03,0.47 1.9,0.85 2.85,1.24 0.94,0.38 1.96,0.78 2.84,1.11 0.88,0.33 1.63,0.59 2.33,0.82 0.7,0.23 1.36,0.43 2.09,0.52 0.73,0.09 1.55,0.06 2.51,0.03 0.96,-0.02 2.05,-0.05 2.94,-0.08 0.89,-0.02 1.57,-0.05 1.47,-0.23 -0.1,-0.18 -0.97,-0.53 -1.87,-0.9 -0.9,-0.38 -1.83,-0.78 -2.76,-1.21 -0.93,-0.42 -1.86,-0.86 -2.71,-1.29 -0.84,-0.43 -1.61,-0.84 -2.41,-1.27 -0.81,-0.44 -1.66,-0.89 -2.45,-1.34 -0.8,-0.45 -1.54,-0.91 -2.23,-1.34 -0.68,-0.42 -1.31,-0.81 -2.15,-1zm-18.53 -14.71c-0.82,-0.19 -2.08,-0.19 -3.32,-0.18 -1.25,0.01 -2.47,0.04 -3.55,0.05 -1.08,0.01 -2.02,0.01 -2.69,0.02 -0.68,0 -1.1,0.02 -0.95,0.35 0.15,0.32 0.87,0.96 1.59,1.61 0.73,0.65 1.47,1.31 2.23,1.98 0.75,0.66 1.52,1.32 2.34,1.99 0.82,0.66 1.7,1.33 2.32,1.8 0.63,0.46 1.01,0.72 1.84,0.84 0.83,0.13 2.11,0.13 3.27,0.11 1.17,-0.02 2.21,-0.05 3.18,-0.06 0.96,-0.02 1.86,-0.02 2.5,-0.03 0.64,-0.01 1.02,-0.02 0.76,-0.4 -0.27,-0.38 -1.19,-1.12 -2.03,-1.83 -0.84,-0.7 -1.61,-1.36 -2.32,-1.99 -0.72,-0.64 -1.39,-1.25 -1.98,-1.8 -0.59,-0.54 -1.1,-1.02 -1.55,-1.46 -0.44,-0.43 -0.82,-0.81 -1.64,-1zm-12.59 -14.71c-0.84,-0.25 -2.2,-0.25 -3.44,-0.25 -1.25,0.01 -2.39,0.01 -3.47,0.02 -1.08,0.01 -2.1,0.02 -2.88,0.02 -0.78,0 -1.3,-0.02 -1.45,0.15 -0.14,0.17 0.11,0.51 0.46,0.97 0.35,0.47 0.81,1.04 1.28,1.62 0.47,0.59 0.95,1.18 1.43,1.77 0.48,0.59 0.96,1.18 1.46,1.76 0.49,0.57 0.98,1.13 1.33,1.53 0.34,0.4 0.54,0.62 1,0.73 0.46,0.1 1.17,0.08 1.98,0.07 0.81,-0.01 1.71,-0.01 2.8,-0.01 1.1,0.01 2.39,0.02 3.5,0.01 1.12,0 2.06,-0.02 2.57,-0.03 0.52,-0.02 0.61,-0.03 0.41,-0.3 -0.19,-0.26 -0.67,-0.78 -1.09,-1.29 -0.42,-0.5 -0.8,-1.01 -1.25,-1.6 -0.47,-0.59 -1.02,-1.27 -1.55,-1.94 -0.53,-0.66 -1.05,-1.31 -1.47,-1.89 -0.43,-0.57 -0.77,-1.08 -1.62,-1.34zm-9.5 -14.78c-0.94,-0.15 -2.66,-0.14 -4.06,-0.12 -1.41,0.01 -2.52,0.03 -3.51,0.04 -0.99,0 -1.87,-0.01 -2.52,0 -0.65,0 -1.06,0.02 -1.19,0.15 -0.14,0.13 0,0.37 0.22,0.75 0.22,0.39 0.52,0.92 0.86,1.5 0.34,0.58 0.71,1.2 1.06,1.79 0.35,0.59 0.69,1.15 1.02,1.68 0.33,0.54 0.65,1.04 0.96,1.51 0.3,0.47 0.59,0.91 0.87,1.12 0.29,0.21 0.57,0.2 1.08,0.18 0.51,-0.01 1.26,-0.02 2.32,-0.04 1.06,-0.02 2.45,-0.05 3.63,-0.07 1.19,-0.03 2.19,-0.05 2.95,-0.06 0.77,-0.01 1.32,0 1.64,0 0.32,0 0.43,-0.01 0.23,-0.41 -0.19,-0.39 -0.69,-1.17 -0.97,-1.62 -0.28,-0.44 -0.35,-0.55 -0.59,-0.94 -0.24,-0.4 -0.65,-1.08 -1.03,-1.71 -0.37,-0.62 -0.71,-1.19 -0.98,-1.68 -0.27,-0.49 -0.48,-0.89 -0.67,-1.25 -0.2,-0.36 -0.37,-0.67 -1.32,-0.82zm-6.77 -14.69c-0.76,-0.21 -2.13,-0.21 -3.42,-0.21 -1.3,0 -2.53,-0.01 -3.68,-0.01 -1.15,0 -2.22,0 -2.98,0.01 -0.75,0.01 -1.2,0.02 -1.33,0.27 -0.13,0.26 0.05,0.75 0.29,1.34 0.24,0.6 0.55,1.3 0.87,2.03 0.32,0.73 0.66,1.48 0.95,2.12 0.29,0.64 0.54,1.17 0.75,1.62 0.22,0.45 0.39,0.81 0.68,1 0.29,0.18 0.69,0.18 1.52,0.17 0.83,0 2.09,0 3.37,0 1.28,0 2.58,0 3.63,0 1.05,0 1.85,0 2.43,0 0.58,0 0.94,0 0.99,-0.28 0.04,-0.29 -0.22,-0.86 -0.49,-1.44 -0.27,-0.59 -0.54,-1.18 -0.83,-1.81 -0.28,-0.63 -0.59,-1.3 -0.87,-1.94 -0.28,-0.64 -0.53,-1.25 -0.74,-1.75 -0.21,-0.51 -0.38,-0.92 -1.14,-1.12zm-5.09 -14.88c-0.65,-0.15 -1.86,-0.14 -3.09,-0.13 -1.23,0.02 -2.48,0.05 -3.68,0.06 -1.21,0.01 -2.37,0.01 -3.17,0.01 -0.8,0 -1.25,0 -1.38,0.35 -0.14,0.36 0.04,1.08 0.3,1.98 0.26,0.91 0.61,1.99 0.87,2.82 0.27,0.82 0.45,1.38 0.63,1.9 0.18,0.52 0.36,1.02 0.9,1.26 0.55,0.25 1.46,0.25 2.54,0.24 1.08,0 2.33,-0.02 3.65,-0.02 1.31,-0.01 2.69,-0.01 3.66,-0.03 0.96,-0.02 1.51,-0.07 1.66,-0.45 0.15,-0.39 -0.1,-1.12 -0.34,-1.83 -0.25,-0.71 -0.47,-1.4 -0.69,-2.05 -0.21,-0.64 -0.41,-1.24 -0.58,-1.79 -0.17,-0.55 -0.32,-1.06 -0.44,-1.47 -0.11,-0.4 -0.2,-0.7 -0.84,-0.85zm-3.52 -14.64c-0.66,-0.28 -1.89,-0.28 -3.19,-0.28 -1.31,0 -2.69,0 -3.84,0.01 -1.14,0.01 -2.05,0.01 -2.75,0.01 -0.71,0 -1.21,0 -1.4,0.37 -0.19,0.36 -0.08,1.08 0.09,1.95 0.16,0.87 0.36,1.89 0.54,2.77 0.18,0.88 0.35,1.63 0.47,2.19 0.12,0.56 0.2,0.93 0.63,1.12 0.43,0.19 1.21,0.2 2.36,0.2 1.16,0 2.69,-0.01 4.09,-0.02 1.4,0 2.68,0 3.56,0.01 0.88,0.01 1.38,0.03 1.55,-0.36 0.16,-0.39 -0.01,-1.19 -0.2,-2.04 -0.19,-0.86 -0.39,-1.78 -0.56,-2.55 -0.18,-0.77 -0.32,-1.39 -0.45,-1.97 -0.13,-0.58 -0.23,-1.13 -0.9,-1.41zm-1.67 -14.7c-0.38,-0.3 -1.11,-0.3 -2.14,-0.3 -1.04,0 -2.38,0.01 -3.77,0.01 -1.39,0 -2.82,-0.01 -3.75,0 -0.93,0 -1.36,0.01 -1.6,0.01 -0.25,0.01 -0.32,0.01 -0.33,0.35 0,0.35 0.04,1.04 0.09,1.67 0.05,0.63 0.1,1.2 0.16,1.83 0.06,0.64 0.14,1.34 0.22,1.96 0.09,0.62 0.17,1.17 0.23,1.62 0.06,0.44 0.09,0.79 0.72,0.96 0.62,0.18 1.84,0.19 3.3,0.19 1.45,0 3.16,-0.01 4.3,-0.01 1.15,0 1.75,0 2.3,-0.01 0.55,-0.02 1.06,-0.04 1.25,-0.47 0.19,-0.43 0.05,-1.27 -0.05,-2.11 -0.1,-0.84 -0.17,-1.69 -0.24,-2.4 -0.07,-0.7 -0.15,-1.26 -0.2,-1.84 -0.06,-0.58 -0.1,-1.17 -0.49,-1.46zm-0.95 -14.99c-0.82,-0.13 -2.46,-0.13 -4.1,-0.13 -1.64,0.01 -3.27,0.02 -4.37,0.03 -1.1,0.01 -1.66,0.01 -2.03,0.01 -0.37,0.02 -0.55,0.03 -0.64,0.35 -0.08,0.31 -0.08,0.92 -0.08,1.95 0.01,1.02 0.02,2.47 0.04,3.48 0.01,1.01 0.03,1.59 0.04,1.99 0.02,0.4 0.02,0.62 0.37,0.72 0.35,0.11 1.03,0.1 1.98,0.1 0.94,0 2.14,0.02 3.33,0.01 1.2,-0.01 2.39,-0.05 3.36,-0.07 0.96,-0.02 1.71,-0.03 2.18,-0.04 0.47,-0.01 0.67,-0.02 0.75,-0.24 0.08,-0.23 0.05,-0.67 0.03,-1.3 -0.03,-0.63 -0.05,-1.46 -0.06,-2.24 -0.01,-0.79 0,-1.53 0,-2.18 0.01,-0.65 0.01,-1.21 0.02,-1.63 0,-0.41 0,-0.67 -0.82,-0.81zm1.18 -14.66c-0.66,-0.12 -2,-0.12 -3.24,-0.13 -1.24,0 -2.39,-0.02 -3.64,-0.03 -1.26,-0.01 -2.63,-0.01 -3.41,-0.01 -0.78,-0.01 -0.97,-0.02 -1.1,0.22 -0.13,0.24 -0.19,0.73 -0.27,1.49 -0.07,0.76 -0.16,1.79 -0.24,2.74 -0.09,0.96 -0.16,1.83 -0.21,2.44 -0.04,0.61 -0.06,0.94 -0.07,1.18 -0.01,0.24 -0.02,0.38 0.37,0.43 0.38,0.07 1.16,0.05 2.14,0.05 0.99,-0.01 2.17,0 3.41,0 1.24,0 2.54,-0.01 3.53,-0.02 1,-0.01 1.69,-0.02 2.09,-0.01 0.41,0 0.51,0.02 0.59,-0.38 0.07,-0.41 0.12,-1.24 0.18,-2.08 0.06,-0.83 0.13,-1.68 0.21,-2.57 0.08,-0.88 0.17,-1.81 0.23,-2.39 0.06,-0.58 0.08,-0.81 -0.57,-0.93zm2.34 -14.83c-0.68,-0.11 -2.09,-0.12 -3.48,-0.14 -1.4,-0.02 -2.78,-0.06 -3.97,-0.08 -1.19,-0.02 -2.19,-0.03 -2.81,-0.03 -0.63,-0.01 -0.88,0 -1.06,0.25 -0.17,0.26 -0.27,0.78 -0.39,1.38 -0.13,0.6 -0.27,1.28 -0.4,2.03 -0.14,0.76 -0.28,1.58 -0.41,2.32 -0.13,0.74 -0.26,1.4 -0.34,1.83 -0.08,0.44 -0.12,0.65 0.31,0.75 0.42,0.1 1.3,0.09 2.74,0.09 1.43,-0.01 3.43,-0.01 4.95,-0.01 1.52,0.01 2.57,0.01 3.17,0.01 0.6,0 0.75,0 0.87,-0.3 0.11,-0.3 0.2,-0.9 0.35,-1.73 0.14,-0.83 0.33,-1.89 0.52,-2.9 0.19,-1.02 0.37,-1.98 0.48,-2.57 0.11,-0.58 0.16,-0.79 -0.53,-0.9zm3.92 -14.92c-0.5,-0.1 -1.51,-0.12 -2.95,-0.15 -1.44,-0.04 -3.32,-0.08 -4.64,-0.11 -1.33,-0.03 -2.09,-0.05 -2.59,-0.07 -0.5,-0.02 -0.74,-0.03 -0.95,0.22 -0.21,0.25 -0.39,0.77 -0.64,1.6 -0.25,0.83 -0.56,1.96 -0.91,3.08 -0.34,1.11 -0.71,2.22 -0.91,2.9 -0.21,0.68 -0.25,0.93 0.05,1.06 0.29,0.13 0.93,0.13 1.99,0.13 1.06,0 2.55,-0.01 4.01,-0.02 1.46,-0.02 2.89,-0.04 3.85,-0.06 0.96,-0.02 1.45,-0.02 1.75,-0.27 0.31,-0.24 0.42,-0.73 0.64,-1.51 0.21,-0.78 0.53,-1.86 0.77,-2.72 0.24,-0.86 0.42,-1.51 0.59,-2.08 0.16,-0.57 0.31,-1.06 0.38,-1.4 0.07,-0.33 0.07,-0.5 -0.44,-0.6zm5.77 -14.66c-0.19,-0.18 -0.69,-0.21 -1.53,-0.24 -0.84,-0.04 -2.01,-0.08 -3.06,-0.12 -1.04,-0.05 -1.96,-0.11 -2.84,-0.17 -0.89,-0.05 -1.75,-0.11 -2.3,-0.15 -0.56,-0.04 -0.81,-0.07 -1.07,0.21 -0.25,0.27 -0.51,0.85 -0.86,1.61 -0.35,0.76 -0.8,1.7 -1.3,2.88 -0.51,1.17 -1.06,2.58 -1.39,3.4 -0.32,0.81 -0.43,1.04 -0.31,1.14 0.11,0.11 0.44,0.09 1.09,0.08 0.65,-0.02 1.62,-0.04 2.8,-0.05 1.18,-0.02 2.59,-0.03 3.83,-0.05 1.24,-0.01 2.31,-0.03 2.94,-0.05 0.63,-0.01 0.81,-0.03 0.99,-0.28 0.18,-0.26 0.36,-0.76 0.66,-1.55 0.29,-0.78 0.71,-1.85 1.11,-2.87 0.4,-1.03 0.78,-2 1.04,-2.65 0.26,-0.65 0.39,-0.97 0.2,-1.14zm-2.08 -15.53c0.45,-0.04 1.3,0.02 2.14,0.07 0.84,0.04 1.68,0.08 2.6,0.14 0.92,0.05 1.93,0.11 2.72,0.17 0.79,0.05 1.38,0.09 1.75,0.12 0.37,0.02 0.52,0.04 0.41,0.39 -0.11,0.36 -0.5,1.06 -0.89,1.77 -0.4,0.71 -0.79,1.42 -1.21,2.2 -0.41,0.77 -0.84,1.61 -1.18,2.28 -0.34,0.68 -0.6,1.19 -0.77,1.53 -0.17,0.35 -0.26,0.53 -0.74,0.62 -0.47,0.09 -1.33,0.09 -2.35,0.11 -1.03,0.02 -2.23,0.07 -3.49,0.11 -1.26,0.05 -2.59,0.11 -3.38,0.15 -0.8,0.03 -1.07,0.05 -1.28,0.05 -0.21,0.01 -0.36,0 -0.35,-0.16 0.01,-0.17 0.19,-0.48 0.52,-1.06 0.32,-0.58 0.79,-1.41 1.21,-2.15 0.42,-0.74 0.78,-1.37 1.27,-2.18 0.49,-0.81 1.1,-1.79 1.52,-2.46 0.42,-0.67 0.66,-1.03 0.81,-1.28 0.15,-0.24 0.23,-0.38 0.69,-0.42zm3.41 -5.19c0.26,0.07 0.89,0.05 1.86,0.01 0.96,-0.03 2.26,-0.07 3.63,-0.12 1.37,-0.05 2.81,-0.11 3.62,-0.16 0.82,-0.04 1,-0.07 1.29,-0.36 0.29,-0.3 0.69,-0.86 1.12,-1.46 0.43,-0.6 0.88,-1.24 1.36,-1.91 0.48,-0.67 0.98,-1.37 1.53,-2.12 0.55,-0.75 1.14,-1.53 1.54,-2.05 0.4,-0.52 0.6,-0.77 0.35,-0.91 -0.24,-0.14 -0.94,-0.18 -1.81,-0.24 -0.87,-0.06 -1.9,-0.13 -2.97,-0.21 -1.07,-0.08 -2.18,-0.16 -2.94,-0.1 -0.76,0.06 -1.18,0.26 -1.56,0.57 -0.39,0.31 -0.73,0.73 -1.22,1.31 -0.49,0.58 -1.12,1.32 -1.76,2.1 -0.65,0.78 -1.29,1.62 -1.97,2.5 -0.68,0.88 -1.38,1.8 -1.79,2.35 -0.42,0.55 -0.54,0.73 -0.28,0.8zm30.27 -23.9c-0.27,-0.27 -1.34,-0.34 -2.4,-0.4 -1.07,-0.07 -2.14,-0.14 -2.89,-0.19 -0.76,-0.04 -1.21,-0.07 -1.62,0.06 -0.41,0.12 -0.78,0.4 -1.36,0.88 -0.58,0.48 -1.36,1.15 -2.28,1.94 -0.91,0.8 -1.97,1.71 -2.88,2.52 -0.91,0.81 -1.68,1.51 -2.36,2.13 -0.68,0.63 -1.27,1.19 -1.66,1.57 -0.39,0.39 -0.58,0.59 -0.52,0.69 0.07,0.1 0.39,0.09 0.89,0.08 0.49,-0.02 1.15,-0.04 2.09,-0.07 0.95,-0.04 2.17,-0.1 3.14,-0.15 0.97,-0.05 1.68,-0.1 2.18,-0.12 0.5,-0.03 0.79,-0.04 1.2,-0.33 0.41,-0.27 0.94,-0.82 1.53,-1.42 0.59,-0.61 1.23,-1.27 1.9,-1.94 0.68,-0.67 1.39,-1.35 2.11,-2.02 0.71,-0.66 1.43,-1.32 2.05,-1.89 0.62,-0.57 1.15,-1.06 0.88,-1.34zm28.21 -17.3c-0.27,-0.13 -2.68,0.44 -4.82,1 -2.15,0.55 -4.04,1.1 -5.53,1.56 -1.49,0.47 -2.57,0.86 -3.71,1.34 -1.14,0.48 -2.34,1.05 -3.69,1.74 -1.35,0.68 -2.86,1.48 -4.3,2.29 -1.43,0.81 -2.8,1.62 -3.83,2.25 -1.03,0.63 -1.73,1.07 -1.82,1.31 -0.08,0.24 0.44,0.27 1.29,0.26 0.84,-0.01 2,-0.06 3.07,-0.11 1.08,-0.05 2.08,-0.1 2.9,-0.36 0.83,-0.25 1.48,-0.71 2.48,-1.37 0.99,-0.66 2.32,-1.54 3.51,-2.27 1.18,-0.73 2.22,-1.33 3.35,-1.96 1.13,-0.63 2.35,-1.3 3.63,-1.96 1.29,-0.66 2.65,-1.32 4.26,-2.05 1.61,-0.73 3.48,-1.55 3.21,-1.67zm19.79 2.23c0.1,-0.32 1.19,-0.31 2.28,-0.31 1.09,0 2.17,0 2.88,-0.51 0.71,-0.52 1.05,-1.56 1.38,-2.59 0.33,-1.03 0.67,-2.07 1,-2.07 0.34,0 0.67,1.04 1,2.07 0.34,1.03 0.67,2.07 1.38,2.59 0.71,0.51 1.8,0.51 2.89,0.51 1.08,0 2.17,-0.01 2.28,0.31 0.1,0.32 -0.78,0.95 -1.66,1.59 -0.88,0.64 -1.76,1.28 -2.04,2.11 -0.27,0.84 0.07,1.87 0.41,2.9 0.33,1.04 0.67,2.07 0.4,2.27 -0.27,0.19 -1.14,-0.45 -2.02,-1.09 -0.88,-0.64 -1.76,-1.28 -2.64,-1.28 -0.88,0 -1.75,0.64 -2.63,1.28 -0.88,0.64 -1.76,1.28 -2.03,1.09 -0.27,-0.2 0.07,-1.23 0.41,-2.27 0.34,-1.03 0.67,-2.06 0.4,-2.9 -0.27,-0.83 -1.15,-1.47 -2.03,-2.11 -0.88,-0.63 -1.76,-1.27 -1.66,-1.59zm47.08 3.66c0.34,0 0.67,1.03 1,2.07 0.34,1.03 0.67,2.07 1.38,2.58 0.71,0.52 1.8,0.52 2.89,0.52 1.08,-0.01 2.17,-0.01 2.27,0.31 0.11,0.32 -0.77,0.95 -1.65,1.59 -0.89,0.64 -1.77,1.28 -2.04,2.11 -0.27,0.84 0.07,1.87 0.41,2.9 0.34,1.04 0.67,2.07 0.4,2.27 -0.27,0.19 -1.15,-0.45 -2.02,-1.09 -0.88,-0.64 -1.76,-1.28 -2.64,-1.28 -0.88,0 -1.75,0.64 -2.63,1.28 -0.88,0.64 -1.76,1.28 -2.03,1.09 -0.27,-0.2 0.07,-1.23 0.41,-2.27 0.33,-1.03 0.67,-2.06 0.4,-2.9 -0.27,-0.83 -1.15,-1.47 -2.03,-2.11 -0.88,-0.64 -1.76,-1.27 -1.66,-1.59 0.1,-0.32 1.19,-0.32 2.28,-0.31 1.08,0 2.17,0 2.88,-0.52 0.71,-0.51 1.05,-1.55 1.38,-2.58 0.33,-1.04 0.67,-2.07 1,-2.07zm32.48 24c0.34,0 0.67,1.04 1.01,2.07 0.33,1.03 0.66,2.07 1.38,2.59 0.71,0.51 1.79,0.51 2.88,0.51 1.09,-0.01 2.17,-0.01 2.28,0.31 0.1,0.32 -0.78,0.96 -1.66,1.59 -0.88,0.64 -1.76,1.28 -2.03,2.11 -0.28,0.84 0.06,1.87 0.4,2.9 0.34,1.04 0.68,2.07 0.41,2.27 -0.27,0.19 -1.15,-0.45 -2.03,-1.09 -0.88,-0.64 -1.76,-1.28 -2.63,-1.28 -0.88,0 -1.76,0.64 -2.64,1.28 -0.88,0.64 -1.76,1.28 -2.03,1.09 -0.27,-0.2 0.07,-1.23 0.41,-2.27 0.34,-1.03 0.68,-2.06 0.4,-2.9 -0.27,-0.83 -1.15,-1.47 -2.03,-2.11 -0.88,-0.63 -1.76,-1.27 -1.66,-1.59 0.11,-0.32 1.19,-0.32 2.28,-0.31 1.09,0 2.18,0 2.89,-0.51 0.71,-0.52 1.04,-1.56 1.37,-2.59 0.34,-1.03 0.67,-2.07 1,-2.07zm24.32 37.38c0.33,0 0.67,1.04 1,2.08 0.34,1.03 0.67,2.06 1.38,2.58 0.71,0.52 1.8,0.51 2.88,0.51 1.09,0 2.18,0 2.28,0.32 0.1,0.31 -0.78,0.95 -1.66,1.59 -0.88,0.63 -1.76,1.27 -2.03,2.11 -0.27,0.83 0.07,1.87 0.41,2.9 0.33,1.03 0.67,2.07 0.4,2.26 -0.27,0.2 -1.15,-0.44 -2.03,-1.08 -0.87,-0.64 -1.75,-1.28 -2.63,-1.28 -0.88,0 -1.76,0.64 -2.63,1.28 -0.88,0.64 -1.76,1.28 -2.03,1.08 -0.27,-0.19 0.07,-1.23 0.4,-2.26 0.34,-1.03 0.68,-2.07 0.41,-2.9 -0.27,-0.84 -1.15,-1.48 -2.04,-2.11 -0.88,-0.64 -1.76,-1.28 -1.65,-1.59 0.1,-0.32 1.19,-0.32 2.27,-0.32 1.09,0 2.18,0.01 2.89,-0.51 0.71,-0.52 1.04,-1.55 1.38,-2.59 0.33,-1.03 0.67,-2.06 1,-2.07zm8.01 42.87c0.34,0 0.67,1.04 1,2.07 0.34,1.04 0.67,2.07 1.38,2.59 0.71,0.52 1.8,0.51 2.89,0.51 1.08,0 2.17,0 2.27,0.32 0.11,0.31 -0.77,0.95 -1.65,1.59 -0.89,0.63 -1.76,1.27 -2.04,2.11 -0.27,0.83 0.07,1.86 0.41,2.9 0.34,1.03 0.67,2.07 0.4,2.26 -0.27,0.2 -1.15,-0.44 -2.02,-1.08 -0.88,-0.64 -1.76,-1.29 -2.64,-1.28 -0.88,0 -1.76,0.64 -2.63,1.28 -0.88,0.64 -1.76,1.28 -2.03,1.08 -0.27,-0.19 0.07,-1.23 0.41,-2.26 0.33,-1.03 0.67,-2.07 0.4,-2.9 -0.27,-0.84 -1.15,-1.48 -2.03,-2.11 -0.88,-0.64 -1.76,-1.28 -1.66,-1.59 0.1,-0.32 1.19,-0.32 2.28,-0.32 1.08,0 2.17,0.01 2.88,-0.51 0.71,-0.52 1.05,-1.55 1.38,-2.58 0.33,-1.04 0.67,-2.07 1,-2.08zm-4.61 43.41c0.33,0 0.67,1.04 1,2.07 0.33,1.03 0.67,2.07 1.38,2.59 0.71,0.51 1.79,0.51 2.88,0.51 1.09,0 2.18,-0.01 2.28,0.31 0.1,0.32 -0.78,0.95 -1.66,1.59 -0.88,0.64 -1.76,1.28 -2.03,2.11 -0.27,0.84 0.06,1.87 0.4,2.9 0.34,1.04 0.68,2.07 0.41,2.27 -0.27,0.19 -1.15,-0.45 -2.03,-1.09 -0.88,-0.64 -1.75,-1.28 -2.63,-1.28 -0.88,0 -1.76,0.64 -2.64,1.28 -0.87,0.64 -1.75,1.28 -2.02,1.09 -0.28,-0.2 0.06,-1.23 0.4,-2.27 0.34,-1.03 0.68,-2.06 0.41,-2.9 -0.28,-0.83 -1.16,-1.47 -2.04,-2.11 -0.88,-0.63 -1.76,-1.27 -1.65,-1.59 0.1,-0.32 1.19,-0.31 2.27,-0.31 1.09,0 2.18,0 2.89,-0.51 0.71,-0.52 1.04,-1.56 1.38,-2.59 0.33,-1.03 0.66,-2.07 1,-2.07zm-17.66 38.38c0.34,0 0.67,1.03 1,2.07 0.34,1.03 0.67,2.07 1.38,2.58 0.71,0.52 1.8,0.52 2.89,0.52 1.08,-0.01 2.17,-0.01 2.27,0.31 0.11,0.32 -0.77,0.96 -1.66,1.59 -0.88,0.64 -1.76,1.28 -2.03,2.11 -0.27,0.84 0.07,1.87 0.41,2.9 0.33,1.04 0.67,2.07 0.4,2.27 -0.27,0.19 -1.15,-0.45 -2.03,-1.09 -0.87,-0.64 -1.75,-1.28 -2.63,-1.28 -0.88,0 -1.76,0.64 -2.63,1.28 -0.88,0.64 -1.76,1.28 -2.03,1.09 -0.27,-0.2 0.07,-1.23 0.4,-2.27 0.34,-1.03 0.68,-2.06 0.41,-2.9 -0.27,-0.83 -1.15,-1.47 -2.03,-2.11 -0.88,-0.63 -1.76,-1.27 -1.66,-1.59 0.1,-0.32 1.19,-0.32 2.28,-0.31 1.08,0 2.17,0 2.88,-0.52 0.71,-0.51 1.05,-1.55 1.38,-2.58 0.33,-1.04 0.67,-2.07 1,-2.07zm-27.66 25.55c0.33,0 0.66,1.04 1,2.07 0.33,1.04 0.67,2.07 1.38,2.59 0.71,0.51 1.79,0.51 2.88,0.51 1.09,0 2.17,0 2.28,0.31 0.1,0.32 -0.78,0.96 -1.66,1.6 -0.88,0.63 -1.76,1.27 -2.03,2.11 -0.27,0.83 0.06,1.86 0.4,2.9 0.34,1.03 0.68,2.06 0.41,2.26 -0.27,0.2 -1.15,-0.44 -2.03,-1.08 -0.88,-0.65 -1.76,-1.29 -2.63,-1.29 -0.88,0 -1.76,0.64 -2.64,1.29 -0.88,0.64 -1.75,1.28 -2.03,1.08 -0.27,-0.19 0.07,-1.23 0.41,-2.26 0.34,-1.04 0.68,-2.07 0.41,-2.9 -0.28,-0.84 -1.16,-1.48 -2.04,-2.11 -0.88,-0.64 -1.76,-1.28 -1.66,-1.6 0.11,-0.31 1.19,-0.31 2.28,-0.31 1.09,0 2.18,0 2.89,-0.51 0.71,-0.52 1.04,-1.55 1.37,-2.59 0.34,-1.03 0.67,-2.07 1.01,-2.07zm-91.11 -189.4c0.27,-0.19 -0.07,-1.23 -0.41,-2.26 -0.33,-1.03 -0.67,-2.07 -0.4,-2.9 0.27,-0.84 1.15,-1.47 2.03,-2.11 0.88,-0.64 1.76,-1.28 1.66,-1.59 -0.1,-0.32 -1.19,-0.32 -2.28,-0.32 -1.08,0.01 -2.17,0.01 -2.88,-0.51 -0.71,-0.52 -1.04,-1.55 -1.38,-2.59 -0.33,-1.03 -0.67,-2.06 -1,-2.06 -0.33,0 -0.67,1.03 -1,2.06 -0.34,1.04 -0.67,2.07 -1.38,2.59 -0.71,0.52 -1.8,0.51 -2.89,0.51 -1.08,0 -2.17,0 -2.27,0.32 -0.11,0.31 0.77,0.95 1.66,1.59 0.88,0.63 1.76,1.27 2.03,2.11 0.27,0.83 -0.07,1.86 -0.41,2.9 -0.33,1.03 -0.67,2.07 -0.4,2.26 0.27,0.2 1.15,-0.44 2.02,-1.08 0.88,-0.64 1.76,-1.29 2.64,-1.29 0.88,0 1.76,0.65 2.63,1.29 0.88,0.64 1.76,1.28 2.03,1.08zm-25.33 29.04c0.27,-0.19 -0.07,-1.23 -0.4,-2.26 -0.34,-1.03 -0.68,-2.07 -0.41,-2.9 0.27,-0.84 1.15,-1.47 2.04,-2.11 0.87,-0.64 1.76,-1.28 1.65,-1.59 -0.1,-0.32 -1.19,-0.32 -2.27,-0.32 -1.09,0 -2.18,0.01 -2.89,-0.51 -0.71,-0.52 -1.04,-1.55 -1.38,-2.58 -0.33,-1.04 -0.67,-2.07 -1,-2.07 -0.33,0 -0.67,1.03 -1,2.07 -0.33,1.03 -0.67,2.06 -1.38,2.58 -0.71,0.52 -1.8,0.51 -2.88,0.51 -1.09,0 -2.18,0 -2.28,0.32 -0.11,0.31 0.78,0.95 1.66,1.59 0.88,0.64 1.76,1.27 2.03,2.11 0.27,0.83 -0.07,1.87 -0.4,2.9 -0.34,1.03 -0.68,2.07 -0.41,2.26 0.27,0.2 1.15,-0.44 2.03,-1.08 0.87,-0.64 1.75,-1.28 2.63,-1.28 0.88,0 1.76,0.64 2.64,1.28 0.87,0.64 1.75,1.28 2.02,1.08zm-16.99 38.55c0.27,-0.2 -0.07,-1.24 -0.41,-2.27 -0.34,-1.03 -0.67,-2.07 -0.4,-2.9 0.27,-0.84 1.15,-1.47 2.03,-2.11 0.88,-0.64 1.76,-1.27 1.66,-1.59 -0.1,-0.32 -1.19,-0.32 -2.28,-0.32 -1.09,0.01 -2.17,0.01 -2.88,-0.51 -0.71,-0.51 -1.05,-1.55 -1.38,-2.58 -0.34,-1.04 -0.67,-2.07 -1,-2.07 -0.34,0 -0.67,1.03 -1,2.07 -0.34,1.03 -0.67,2.07 -1.38,2.58 -0.71,0.52 -1.8,0.52 -2.89,0.51 -1.08,0 -2.17,0 -2.27,0.32 -0.11,0.31 0.77,0.95 1.65,1.59 0.88,0.64 1.76,1.27 2.04,2.11 0.27,0.83 -0.07,1.87 -0.41,2.9 -0.34,1.03 -0.67,2.07 -0.4,2.26 0.27,0.2 1.14,-0.44 2.02,-1.08 0.88,-0.64 1.76,-1.28 2.64,-1.28 0.88,0 1.75,0.64 2.63,1.28 0.88,0.64 1.76,1.28 2.03,1.09zm-3.97 45.81c0.27,-0.19 -0.07,-1.23 -0.4,-2.26 -0.34,-1.03 -0.68,-2.07 -0.41,-2.9 0.27,-0.84 1.15,-1.48 2.03,-2.11 0.89,-0.64 1.77,-1.28 1.66,-1.59 -0.1,-0.32 -1.19,-0.32 -2.27,-0.32 -1.09,0 -2.18,0.01 -2.89,-0.51 -0.71,-0.52 -1.04,-1.55 -1.38,-2.58 -0.33,-1.04 -0.67,-2.08 -1,-2.07 -0.33,0 -0.67,1.03 -1,2.07 -0.33,1.03 -0.67,2.06 -1.38,2.58 -0.71,0.52 -1.8,0.51 -2.88,0.51 -1.09,0 -2.18,0 -2.28,0.32 -0.1,0.31 0.78,0.95 1.66,1.59 0.88,0.63 1.76,1.27 2.03,2.11 0.27,0.83 -0.07,1.87 -0.4,2.9 -0.34,1.03 -0.68,2.07 -0.41,2.26 0.27,0.2 1.15,-0.44 2.03,-1.08 0.88,-0.64 1.75,-1.29 2.63,-1.29 0.88,0.01 1.76,0.65 2.64,1.29 0.88,0.64 1.75,1.28 2.02,1.08zm10.3 38.95c0.26,-0.19 -0.07,-1.23 -0.41,-2.26 -0.34,-1.03 -0.68,-2.07 -0.41,-2.9 0.28,-0.84 1.16,-1.47 2.04,-2.11 0.88,-0.64 1.76,-1.28 1.66,-1.59 -0.11,-0.32 -1.19,-0.32 -2.28,-0.32 -1.09,0 -2.17,0.01 -2.89,-0.51 -0.71,-0.52 -1.04,-1.55 -1.37,-2.58 -0.34,-1.04 -0.67,-2.07 -1.01,-2.07 -0.33,0 -0.66,1.03 -1,2.06 -0.33,1.04 -0.67,2.08 -1.38,2.59 -0.71,0.52 -1.79,0.51 -2.88,0.51 -1.09,0 -2.17,0 -2.28,0.32 -0.1,0.31 0.78,0.95 1.66,1.59 0.88,0.64 1.76,1.27 2.03,2.11 0.27,0.83 -0.06,1.87 -0.4,2.9 -0.34,1.03 -0.68,2.07 -0.41,2.26 0.27,0.2 1.15,-0.44 2.03,-1.08 0.88,-0.64 1.76,-1.28 2.63,-1.28 0.88,0 1.76,0.64 2.64,1.28 0.88,0.64 1.76,1.28 2.03,1.08zm20.43 34.36c0.26,-0.19 -0.07,-1.23 -0.41,-2.26 -0.34,-1.03 -0.68,-2.07 -0.41,-2.9 0.28,-0.84 1.16,-1.47 2.04,-2.11 0.88,-0.64 1.76,-1.27 1.66,-1.59 -0.11,-0.32 -1.19,-0.32 -2.28,-0.32 -1.09,0.01 -2.17,0.01 -2.89,-0.51 -0.71,-0.52 -1.04,-1.55 -1.37,-2.59 -0.34,-1.03 -0.67,-2.06 -1.01,-2.06 -0.33,0 -0.66,1.03 -1,2.06 -0.33,1.04 -0.67,2.08 -1.37,2.59 -0.72,0.52 -1.8,0.51 -2.89,0.51 -1.09,0 -2.17,0 -2.28,0.32 -0.1,0.31 0.78,0.95 1.66,1.59 0.88,0.64 1.76,1.27 2.03,2.11 0.27,0.83 -0.06,1.87 -0.4,2.9 -0.34,1.03 -0.68,2.06 -0.41,2.26 0.27,0.2 1.15,-0.44 2.03,-1.08 0.88,-0.64 1.76,-1.29 2.63,-1.29 0.88,0.01 1.76,0.65 2.64,1.29 0.88,0.64 1.75,1.28 2.03,1.08zm30.54 25.48c0.27,-0.2 -0.07,-1.23 -0.41,-2.26 -0.34,-1.04 -0.68,-2.07 -0.41,-2.91 0.28,-0.83 1.16,-1.47 2.04,-2.1 0.88,-0.64 1.76,-1.28 1.66,-1.6 -0.11,-0.32 -1.19,-0.31 -2.28,-0.31 -1.09,0 -2.17,0 -2.89,-0.51 -0.71,-0.52 -1.04,-1.55 -1.37,-2.59 -0.34,-1.03 -0.67,-2.07 -1,-2.07 -0.34,0 -0.67,1.04 -1.01,2.07 -0.33,1.04 -0.67,2.07 -1.38,2.59 -0.71,0.51 -1.79,0.51 -2.88,0.51 -1.09,0 -2.17,-0.01 -2.28,0.31 -0.1,0.32 0.78,0.96 1.66,1.59 0.88,0.64 1.76,1.28 2.03,2.11 0.27,0.84 -0.06,1.87 -0.4,2.91 -0.34,1.03 -0.68,2.06 -0.41,2.26 0.27,0.19 1.15,-0.45 2.03,-1.09 0.88,-0.64 1.76,-1.28 2.64,-1.28 0.87,0 1.75,0.64 2.63,1.28 0.88,0.64 1.76,1.28 2.03,1.09zm42.65 8.2c0.27,-0.2 -0.06,-1.23 -0.4,-2.26 -0.34,-1.04 -0.68,-2.07 -0.41,-2.91 0.28,-0.83 1.16,-1.47 2.04,-2.11 0.88,-0.63 1.76,-1.27 1.66,-1.59 -0.11,-0.32 -1.19,-0.31 -2.28,-0.31 -1.09,0 -2.18,0 -2.89,-0.51 -0.71,-0.52 -1.04,-1.55 -1.37,-2.59 -0.34,-1.03 -0.67,-2.07 -1.01,-2.07 -0.33,0 -0.66,1.04 -1,2.07 -0.33,1.04 -0.67,2.07 -1.38,2.59 -0.71,0.51 -1.79,0.51 -2.88,0.51 -1.09,0 -2.18,-0.01 -2.28,0.31 -0.1,0.32 0.78,0.96 1.66,1.59 0.88,0.64 1.76,1.28 2.03,2.11 0.27,0.84 -0.06,1.87 -0.4,2.9 -0.34,1.04 -0.68,2.07 -0.41,2.27 0.27,0.19 1.15,-0.45 2.03,-1.09 0.88,-0.64 1.76,-1.28 2.63,-1.28 0.88,0 1.76,0.64 2.64,1.28 0.88,0.64 1.75,1.28 2.02,1.09zm-71.56 -231.56c0.82,-0.67 1.28,-1.02 1.75,-1.38 0.47,-0.36 0.94,-0.71 1.44,-1.08 0.5,-0.37 1.02,-0.75 1.51,-1.11 0.49,-0.35 0.94,-0.68 1.42,-1.01 0.48,-0.33 0.98,-0.65 1.52,-1 0.55,-0.36 1.14,-0.74 1.72,-1.11 0.59,-0.36 1.17,-0.72 1.8,-1.1 0.63,-0.38 1.32,-0.79 1.95,-1.16 0.63,-0.37 1.21,-0.71 1.95,-1.11 0.75,-0.4 1.66,-0.86 2.41,-1.24 0.75,-0.38 1.35,-0.67 2.03,-1 0.68,-0.32 1.45,-0.69 2.2,-1.03 0.74,-0.34 1.46,-0.65 2.15,-0.95 0.7,-0.3 1.37,-0.57 2.08,-0.84 0.71,-0.28 1.45,-0.55 2.23,-0.83 0.79,-0.29 1.61,-0.59 2.48,-0.88 0.87,-0.29 1.8,-0.58 2.64,-0.83 0.84,-0.26 1.6,-0.48 2.28,-0.67 0.68,-0.2 1.3,-0.36 1.99,-0.55 0.7,-0.18 1.49,-0.38 2.26,-0.56 0.77,-0.18 1.53,-0.33 2.34,-0.5 0.82,-0.17 1.69,-0.37 2.56,-0.52 0.87,-0.16 1.75,-0.28 3.33,-0.39 1.57,-0.11 3.85,-0.21 5.5,-0.24 1.65,-0.03 2.68,0.02 3.6,0.07 0.92,0.05 1.74,0.12 2.62,0.21 0.88,0.08 1.84,0.2 2.72,0.3 0.89,0.1 1.71,0.18 2.51,0.29 0.8,0.11 1.59,0.25 2.36,0.38 0.77,0.14 1.52,0.26 2.56,0.47 1.04,0.2 2.38,0.48 3.47,0.72 1.09,0.25 1.93,0.46 2.84,0.69 0.91,0.24 1.88,0.5 2.79,0.77 0.92,0.26 1.78,0.54 2.6,0.79 0.82,0.26 1.6,0.5 2.41,0.78 0.81,0.27 1.65,0.57 2.49,0.89 0.83,0.31 1.67,0.64 2.57,0.99 0.9,0.36 1.86,0.75 2.65,1.08 0.8,0.33 1.43,0.6 2.21,0.97 0.77,0.36 1.7,0.82 2.7,1.31 1,0.5 2.06,1.03 3.01,1.53 0.94,0.5 1.76,0.96 2.53,1.4 0.77,0.43 1.49,0.83 2.39,1.36 0.89,0.52 1.97,1.18 2.87,1.74 0.9,0.57 1.62,1.05 2.29,1.5 0.66,0.45 1.28,0.87 2.01,1.39 0.74,0.52 1.59,1.13 2.4,1.72 0.8,0.59 1.56,1.16 2.29,1.71 0.72,0.55 1.41,1.08 1.99,1.55 0.58,0.47 1.06,0.88 1.64,1.39 0.59,0.5 1.28,1.1 1.96,1.69 0.68,0.6 1.35,1.19 1.92,1.71 0.56,0.53 1.03,0.98 1.71,1.64 0.67,0.66 1.55,1.52 2.28,2.25 0.74,0.73 1.33,1.33 1.89,1.92 0.57,0.59 1.11,1.16 1.64,1.75 0.54,0.59 1.07,1.2 1.63,1.84 0.56,0.64 1.15,1.32 1.69,1.95 0.55,0.62 1.06,1.21 1.57,1.85 0.52,0.65 1.04,1.35 1.62,2.14 0.59,0.78 1.24,1.65 1.78,2.38 0.55,0.74 0.99,1.35 1.42,1.96 0.42,0.6 0.83,1.21 1.25,1.82 0.42,0.62 0.85,1.25 1.33,1.98 0.47,0.73 0.99,1.56 1.5,2.39 0.5,0.82 0.98,1.63 1.67,2.83 0.7,1.19 1.6,2.77 2.37,4.2 0.77,1.42 1.4,2.71 2.05,4.03 0.65,1.32 1.31,2.68 1.98,4.2 0.68,1.52 1.36,3.2 2.02,4.88 0.66,1.69 1.3,3.4 1.86,4.96 0.56,1.56 1.04,2.99 1.53,4.6 0.49,1.61 0.98,3.42 1.47,5.21 0.48,1.8 0.95,3.6 1.31,5.2 0.36,1.61 0.62,3.03 0.88,4.47 0.27,1.43 0.55,2.88 0.83,4.62 0.28,1.74 0.56,3.78 0.78,5.53 0.21,1.75 0.36,3.23 0.5,4.81 0.14,1.58 0.27,3.27 0.34,5.26 0.07,1.99 0.08,4.28 0.09,6.28 0,2.01 0,3.74 -0.01,5.23 -0.02,1.5 -0.06,2.75 -0.14,4.21 -0.09,1.45 -0.21,3.1 -0.35,4.74 -0.14,1.64 -0.3,3.27 -0.49,4.96 -0.19,1.69 -0.42,3.44 -0.73,5.5 -0.32,2.06 -0.73,4.42 -1.13,6.54 -0.41,2.13 -0.82,4.01 -1.26,5.85 -0.43,1.84 -0.9,3.64 -1.42,5.5 -0.53,1.85 -1.1,3.76 -1.62,5.44 -0.52,1.68 -0.99,3.12 -1.46,4.44 -0.46,1.31 -0.93,2.5 -1.58,4.04 -0.65,1.54 -1.49,3.45 -2.41,5.41 -0.92,1.97 -1.92,3.99 -2.69,5.48 -0.77,1.5 -1.29,2.47 -1.85,3.47 -0.55,1.01 -1.14,2.04 -1.83,3.18 -0.69,1.13 -1.5,2.37 -2.26,3.54 -0.76,1.18 -1.48,2.29 -2.19,3.31 -0.7,1.02 -1.38,1.94 -2.11,2.93 -0.73,0.99 -1.51,2.04 -2.31,3.09 -0.81,1.04 -1.63,2.07 -2.44,3.03 -0.81,0.96 -1.6,1.86 -2.41,2.78 -0.82,0.91 -1.66,1.85 -2.49,2.74 -0.82,0.89 -1.62,1.73 -2.35,2.46 -0.72,0.73 -1.38,1.36 -2.06,2.01 -0.69,0.66 -1.41,1.34 -2.18,2.06 -0.78,0.71 -1.61,1.45 -2.42,2.14 -0.82,0.69 -1.61,1.31 -2.41,1.97 -0.81,0.65 -1.62,1.33 -2.54,2.05 -0.92,0.72 -1.94,1.48 -2.92,2.18 -0.98,0.71 -1.91,1.36 -2.87,2.01 -0.97,0.65 -1.96,1.3 -2.92,1.91 -0.96,0.6 -1.88,1.17 -2.92,1.77 -1.04,0.6 -2.18,1.24 -3.23,1.81 -1.05,0.57 -2,1.08 -2.98,1.58 -0.98,0.49 -1.99,0.98 -2.98,1.44 -0.99,0.45 -1.95,0.87 -3.06,1.34 -1.1,0.46 -2.34,0.97 -3.45,1.4 -1.12,0.44 -2.12,0.8 -3.16,1.11 -1.04,0.31 -2.12,0.57 -3.39,0.85 -1.28,0.28 -2.74,0.57 -4.3,0.85 -1.56,0.28 -3.21,0.54 -4.59,0.75 -1.37,0.21 -2.46,0.37 -3.78,0.54 -1.32,0.18 -2.88,0.37 -4.41,0.56 -1.53,0.18 -3.05,0.35 -4.55,0.53 -1.51,0.18 -2.99,0.38 -4.29,0.46 -1.3,0.09 -2.41,0.07 -3.66,-0.02 -1.24,-0.1 -2.62,-0.26 -3.91,-0.45 -1.28,-0.19 -2.47,-0.4 -3.92,-0.68 -1.46,-0.29 -3.18,-0.65 -4.98,-1.08 -1.8,-0.43 -3.67,-0.94 -5.16,-1.37 -1.49,-0.44 -2.59,-0.8 -3.65,-1.17 -1.06,-0.37 -2.07,-0.74 -3.13,-1.16 -1.06,-0.41 -2.17,-0.88 -3.32,-1.37 -1.14,-0.49 -2.32,-1.01 -3.62,-1.63 -1.3,-0.63 -2.73,-1.35 -3.98,-2.01 -1.25,-0.66 -2.31,-1.26 -3.3,-1.84 -0.98,-0.58 -1.89,-1.14 -2.78,-1.69 -0.89,-0.56 -1.76,-1.11 -2.64,-1.7 -0.87,-0.59 -1.75,-1.22 -2.58,-1.83 -0.82,-0.6 -1.6,-1.19 -2.35,-1.76 -0.75,-0.58 -1.47,-1.14 -2.23,-1.76 -0.75,-0.62 -1.54,-1.28 -2.28,-1.92 -0.74,-0.63 -1.43,-1.24 -2.17,-1.9 -0.73,-0.67 -1.51,-1.4 -2.2,-2.08 -0.69,-0.68 -1.3,-1.31 -1.97,-1.97 -0.67,-0.66 -1.39,-1.34 -2.09,-2.06 -0.69,-0.71 -1.36,-1.46 -2,-2.18 -0.64,-0.72 -1.26,-1.43 -1.91,-2.2 -0.65,-0.78 -1.34,-1.62 -1.99,-2.43 -0.64,-0.8 -1.25,-1.56 -1.81,-2.3 -0.56,-0.74 -1.07,-1.45 -1.63,-2.22 -0.56,-0.78 -1.17,-1.62 -1.72,-2.39 -0.55,-0.77 -1.04,-1.46 -1.55,-2.25 -0.51,-0.78 -1.04,-1.64 -1.64,-2.58 -0.59,-0.94 -1.24,-1.95 -1.84,-2.93 -0.6,-0.99 -1.14,-1.94 -1.73,-3.01 -0.6,-1.06 -1.25,-2.22 -1.8,-3.26 -0.55,-1.05 -1.01,-1.98 -1.46,-2.89 -0.44,-0.91 -0.88,-1.81 -1.34,-2.77 -0.46,-0.96 -0.93,-1.98 -1.37,-2.95 -0.43,-0.97 -0.83,-1.88 -1.29,-3.02 -0.46,-1.14 -0.99,-2.51 -1.5,-3.84 -0.51,-1.33 -1.01,-2.63 -1.42,-3.77 -0.42,-1.15 -0.75,-2.15 -1.14,-3.35 -0.38,-1.21 -0.81,-2.63 -1.21,-3.96 -0.4,-1.34 -0.76,-2.59 -1.08,-3.75 -0.32,-1.16 -0.6,-2.22 -0.9,-3.41 -0.29,-1.18 -0.6,-2.49 -0.9,-3.86 -0.29,-1.38 -0.56,-2.82 -0.79,-4.1 -0.23,-1.27 -0.41,-2.37 -0.59,-3.45 -0.17,-1.08 -0.34,-2.14 -0.5,-3.26 -0.16,-1.11 -0.31,-2.28 -0.45,-3.5 -0.15,-1.22 -0.28,-2.49 -0.43,-4.4 -0.15,-1.91 -0.32,-4.46 -0.41,-6.85 -0.09,-2.39 -0.09,-4.63 -0.05,-6.71 0.03,-2.09 0.09,-4.02 0.21,-6.17 0.11,-2.16 0.27,-4.53 0.5,-6.96 0.23,-2.44 0.52,-4.93 0.89,-7.41 0.36,-2.49 0.79,-4.96 1.23,-7.31 0.44,-2.35 0.88,-4.58 1.44,-6.92 0.56,-2.33 1.23,-4.79 1.93,-7.14 0.7,-2.36 1.43,-4.62 2.18,-6.81 0.76,-2.2 1.55,-4.32 2.36,-6.43 0.82,-2.11 1.68,-4.2 2.63,-6.31 0.95,-2.11 2.01,-4.23 3.06,-6.27 1.06,-2.03 2.11,-3.97 3.15,-5.77 1.03,-1.8 2.05,-3.45 3.23,-5.27 1.18,-1.81 2.53,-3.8 3.92,-5.72 1.39,-1.93 2.83,-3.79 4.17,-5.43 1.34,-1.63 2.58,-3.03 4.01,-4.56 1.42,-1.53 3.02,-3.19 4.44,-4.6 1.41,-1.4 2.64,-2.55 3.85,-3.61 1.2,-1.06 2.37,-2.05 3.18,-2.72zm38.96 75.99c0.88,-0.12 1.56,-1.33 2.44,-2.94 0.88,-1.61 1.97,-3.61 3.07,-5.79 1.11,-2.18 2.22,-4.54 3.15,-6.8 0.92,-2.26 1.65,-4.42 2.11,-6.67 0.46,-2.25 0.64,-4.59 0.68,-6.53 0.03,-1.95 -0.08,-3.5 -0.78,-4.08 -0.7,-0.57 -1.99,-0.16 -3.55,0.37 -1.56,0.52 -3.38,1.16 -6.44,2.35 -3.06,1.2 -7.35,2.95 -10.41,4.43 -3.06,1.48 -4.9,2.69 -6.53,3.74 -1.63,1.06 -3.06,1.96 -3.01,3.15 0.04,1.2 1.56,2.68 3.27,4.38 1.71,1.69 3.6,3.59 5.79,5.72 2.18,2.13 4.65,4.49 6.43,6.15 1.79,1.67 2.89,2.64 3.78,2.52zm-31.53 -6.61c-1.21,1.63 -2.7,4.12 -3.94,6.62 -1.23,2.51 -2.21,5.03 -3.11,7.38 -0.9,2.35 -1.74,4.53 -2.5,6.94 -0.76,2.41 -1.45,5.07 -1.19,6.3 0.26,1.24 1.47,1.05 3.51,0.73 2.03,-0.31 4.88,-0.76 7.96,-1.55 3.08,-0.78 6.4,-1.9 9.58,-3.18 3.18,-1.28 6.23,-2.74 8.37,-3.86 2.14,-1.12 3.37,-1.91 3.32,-2.82 -0.04,-0.91 -1.35,-1.94 -3.14,-3.64 -1.78,-1.71 -4.04,-4.08 -6.22,-6.26 -2.19,-2.18 -4.31,-4.17 -5.9,-5.77 -1.59,-1.61 -2.64,-2.84 -3.63,-3.07 -0.99,-0.22 -1.91,0.56 -3.11,2.18zm44.44 20.8c-1.57,-1.65 -3,-3.12 -3.05,-4.56 -0.04,-1.44 1.32,-2.85 2.71,-4.77 1.4,-1.92 2.84,-4.35 4.22,-7.27 1.38,-2.92 2.71,-6.33 3.78,-9.38 1.08,-3.05 1.9,-5.73 2.36,-8.38 0.47,-2.66 0.58,-5.28 0.75,-7.6 0.17,-2.31 0.39,-4.31 1.73,-5.19 1.34,-0.87 3.8,-0.62 6.51,0 2.71,0.62 5.67,1.61 9.16,2.96 3.48,1.36 7.49,3.08 10.58,4.61 3.09,1.52 5.26,2.85 6.99,3.92 1.72,1.07 2.99,1.89 2.4,3.26 -0.6,1.37 -3.05,3.29 -5.79,5.73 -2.74,2.44 -5.76,5.4 -9.13,8.77 -3.37,3.38 -7.1,7.16 -10.43,10.5 -3.33,3.35 -6.26,6.25 -8.32,8.44 -2.07,2.19 -3.25,3.66 -4.19,4.74 -0.95,1.09 -1.66,1.8 -2.5,1.65 -0.85,-0.14 -1.84,-1.12 -3.18,-2.54 -1.34,-1.41 -3.03,-3.24 -4.6,-4.89zm22.09 22.13c-1.56,-1.6 -2.74,-2.9 -3.62,-4 -0.87,-1.1 -1.44,-2.01 -0.59,-3.25 0.85,-1.24 3.11,-2.82 5.7,-5.11 2.6,-2.28 5.53,-5.27 8.95,-8.6 3.41,-3.33 7.31,-7 10.78,-10.5 3.47,-3.5 6.52,-6.83 8.72,-9.23 2.2,-2.4 3.56,-3.87 4.52,-4.83 0.95,-0.96 1.52,-1.41 2.28,-0.65 0.76,0.76 1.72,2.74 3.3,5.96 1.58,3.22 3.79,7.67 5.39,11.65 1.61,3.98 2.63,7.48 3.22,10.45 0.59,2.96 0.76,5.39 0.87,7.04 0.11,1.66 0.15,2.55 -1.82,3 -1.97,0.46 -5.95,0.47 -9.55,0.81 -3.61,0.34 -6.84,1 -10.32,2.29 -3.48,1.29 -7.2,3.21 -10.15,4.85 -2.95,1.63 -5.12,2.99 -6.77,4.19 -1.66,1.2 -2.78,2.24 -3.62,2.44 -0.83,0.2 -1.37,-0.45 -2.59,-1.73 -1.23,-1.28 -3.15,-3.18 -4.7,-4.78zm18.95 19.94c-1.09,-1.27 -2.16,-2.82 -2.09,-3.96 0.08,-1.14 1.3,-1.88 3.28,-3.01 1.97,-1.12 4.7,-2.65 7.31,-3.85 2.6,-1.2 5.09,-2.08 7.49,-2.77 2.4,-0.69 4.71,-1.2 7.18,-1.51 2.47,-0.31 5.09,-0.42 6.31,0.26 1.21,0.67 1.01,2.14 0.49,4.61 -0.52,2.47 -1.37,5.94 -2.62,9.27 -1.26,3.33 -2.92,6.52 -4.63,9.15 -1.71,2.62 -3.46,4.68 -4.57,5.92 -1.12,1.24 -1.6,1.67 -2.86,0.84 -1.27,-0.82 -3.31,-2.89 -5.45,-5.06 -2.13,-2.16 -4.34,-4.42 -6,-6.04 -1.66,-1.61 -2.76,-2.59 -3.84,-3.85zm-12.18 4.92c1,0.4 2.75,1.97 4.81,3.86 2.06,1.9 4.43,4.12 6.6,6.15 2.17,2.02 4.14,3.85 5.77,5.32 1.63,1.48 2.92,2.61 2.89,3.69 -0.03,1.08 -1.39,2.11 -3.41,3.46 -2.02,1.35 -4.69,3.01 -7.33,4.42 -2.64,1.41 -5.24,2.57 -7.67,3.47 -2.44,0.91 -4.71,1.56 -6.93,2.1 -2.22,0.54 -4.4,0.98 -5.45,0.49 -1.06,-0.48 -1.01,-1.89 -0.84,-3.64 0.17,-1.75 0.45,-3.84 1.13,-6.68 0.68,-2.83 1.75,-6.42 2.77,-9.39 1.03,-2.98 2,-5.34 3.02,-7.26 1.02,-1.92 2.07,-3.38 2.73,-4.5 0.66,-1.12 0.91,-1.89 1.91,-1.49zm-24.8 32.97c0.78,-0.93 0.9,-2.83 1.28,-5.72 0.37,-2.9 0.99,-6.78 2.06,-10.67 1.08,-3.9 2.6,-7.81 3.94,-10.99 1.34,-3.18 2.5,-5.64 3.6,-7.57 1.1,-1.93 2.14,-3.34 3.09,-4.56 0.94,-1.21 1.79,-2.23 1.63,-3.36 -0.17,-1.13 -1.35,-2.39 -2.77,-3.7 -1.42,-1.31 -3.09,-2.67 -4.62,-4.06 -1.54,-1.38 -2.94,-2.79 -4.1,-3.16 -1.16,-0.38 -2.08,0.27 -4.03,2.17 -1.96,1.91 -4.95,5.07 -7.35,7.65 -2.4,2.59 -4.2,4.59 -6.8,7.29 -2.6,2.7 -5.98,6.11 -9.19,9.41 -3.21,3.3 -6.25,6.5 -8.73,8.8 -2.49,2.3 -4.42,3.7 -4.37,4.92 0.05,1.22 2.08,2.27 5,3.87 2.91,1.61 6.71,3.79 10.18,5.42 3.47,1.64 6.62,2.74 9.49,3.5 2.87,0.76 5.47,1.19 7.48,1.42 2.01,0.23 3.43,0.28 4.21,-0.66zm-45.48 -23.62c0.86,-0.26 1.95,-1.53 3.92,-3.53 1.96,-2 4.81,-4.74 7.83,-7.64 3.02,-2.89 6.21,-5.94 9.13,-8.76 2.92,-2.83 5.57,-5.43 8.07,-7.85 2.49,-2.42 4.84,-4.67 6.43,-6.29 1.58,-1.62 2.42,-2.61 3.29,-3.44 0.87,-0.83 1.77,-1.5 1.58,-2.36 -0.2,-0.86 -1.5,-1.92 -3.29,-3.62 -1.79,-1.71 -4.08,-4.07 -5.81,-5.79 -1.73,-1.72 -2.9,-2.81 -3.94,-2.63 -1.03,0.18 -1.94,1.61 -3.88,3.18 -1.94,1.57 -4.91,3.26 -7.86,4.77 -2.94,1.51 -5.85,2.84 -8.51,3.79 -2.66,0.95 -5.07,1.53 -7.98,2.02 -2.9,0.48 -6.31,0.88 -8.96,1.15 -2.66,0.28 -4.58,0.43 -5.21,1.77 -0.63,1.33 0.03,3.84 0.79,6.77 0.75,2.93 1.6,6.27 2.97,9.82 1.37,3.54 3.26,7.28 4.9,10.21 1.63,2.92 3.02,5.04 4.02,6.48 1.01,1.44 1.65,2.2 2.51,1.95z"/>
 </g>
</svg>
