<?xml version="1.0" encoding="UTF-8"?>
<!DOCTYPE svg PUBLIC "-//W3C//DTD SVG 1.1//EN" "http://www.w3.org/Graphics/SVG/1.1/DTD/svg11.dtd">
<!-- Creator: CorelDRAW 2018 (64-Bit) -->
<svg xmlns="http://www.w3.org/2000/svg" xml:space="preserve" width="256px" height="256px" version="1.1" style="shape-rendering:geometricPrecision; text-rendering:geometricPrecision; image-rendering:optimizeQuality; fill-rule:evenodd; clip-rule:evenodd"
viewBox="0 0 256 256"
 xmlns:xlink="http://www.w3.org/1999/xlink">
 <defs>
  <style type="text/css">
   <![CDATA[
    .str0 {stroke:#7692F9;stroke-width:0.1;stroke-miterlimit:22.9256}
    .fil1 {fill:#5B5B5B}
    .fil2 {fill:#009846}
    .fil3 {fill:#7692F9}
    .fil0 {fill:#E63A3A}
   ]]>
  </style>
 </defs>
 <g id="Слой_x0020_1">
  <metadata id="CorelCorpID_0Corel-Layer"/>
  <path class="fil0" d="M-194.31 -417.21c15.98,-0.09 16.34,-0.08 16.5,0.11 0.16,0.19 0.13,0.57 0.13,12.32 0,11.76 0.03,34.9 -0.01,47.15 -0.04,12.25 -0.15,13.61 -0.65,15.22 -0.49,1.6 -1.37,3.46 -2.74,5.32 -1.37,1.86 -3.24,3.72 -5.05,5.02 -1.8,1.3 -3.55,2.02 -5.1,2.46 -1.55,0.43 -2.9,0.58 -4.23,0.65 -1.33,0.08 -2.63,0.1 -15.63,0.17 -12.99,0.06 -37.69,0.19 -50.09,0.24 -12.38,0.07 -12.46,0.06 -12.5,0 -0.04,-0.06 -0.04,-0.17 -0.04,-14.83 0,-14.65 0,-43.86 0,-58.51 0,-14.65 0,-14.74 0.05,-14.79 0.04,-0.04 0.13,-0.04 15.97,-0.14 15.83,-0.1 47.42,-0.29 63.39,-0.39zm-190.75 1.11c-15.97,0.09 -16.33,0.09 -16.5,0.29 -0.16,0.19 -0.12,0.57 -0.12,12.32 0,11.76 -0.04,34.9 0,47.15 0.04,12.25 0.16,13.61 0.65,15.21 0.5,1.6 1.38,3.45 2.75,5.29 1.37,1.85 3.23,3.69 5.04,4.97 1.81,1.28 3.55,1.98 5.1,2.4 1.55,0.42 2.91,0.55 4.24,0.61 1.32,0.06 2.62,0.07 15.62,-0.01 13,-0.07 37.7,-0.22 50.09,-0.29 12.39,-0.08 12.46,-0.08 12.5,-0.14 0.04,-0.06 0.05,-0.17 0.05,-14.83 0,-14.66 0,-43.86 0,-58.51 -0.01,-14.65 -0.01,-14.74 -0.05,-14.79 -0.05,-0.05 -0.13,-0.05 -15.97,0.03 -15.84,0.08 -47.43,0.22 -63.4,0.3zm14.94 -17.36c-37.3,0.24 -39.47,0.32 -41.24,-0.24 -1.77,-0.55 -3.12,-1.74 -4.1,-3.24 -0.99,-1.49 -1.59,-3.28 -1.89,-7.71 -0.31,-4.43 -0.31,-11.49 -0.31,-18.85 0,-7.37 0,-15.03 0.17,-20.24 0.17,-5.21 0.5,-7.96 1.32,-10.33 0.82,-2.37 2.12,-4.35 3.7,-5.98 1.57,-1.62 3.42,-2.89 5.97,-3.56 2.55,-0.67 5.81,-0.75 9.95,-0.7 4.15,0.05 9.19,0.24 12.23,0.23 3.04,-0.01 4.09,-0.21 4.47,-0.98 0.38,-0.76 0.09,-2.09 -0.57,-3.51 -0.66,-1.42 -1.69,-2.93 -2.42,-4.97 -0.73,-2.05 -1.17,-4.64 -1.71,-7.82 -0.54,-3.19 -1.19,-6.97 -0.26,-11.62 0.93,-4.65 3.44,-10.17 6.1,-15.1 2.67,-4.92 5.5,-9.25 9.28,-13.1 3.78,-3.85 8.51,-7.23 12.32,-9.41 3.81,-2.17 6.69,-3.14 9.48,-3.73 2.79,-0.58 5.49,-0.77 9.17,-0.59 3.68,0.19 8.33,0.77 12.39,2.14 4.05,1.37 7.5,3.53 11.37,6.25 3.86,2.72 8.16,5.99 11.2,9.1 3.05,3.11 4.86,6.06 6.69,8.65 1.83,2.59 3.69,4.81 5.04,6.69 1.35,1.89 2.19,3.44 3.27,3.05 1.07,-0.4 2.37,-2.74 4.8,-6.17 2.42,-3.42 5.96,-7.93 10.37,-12.25 4.42,-4.32 9.7,-8.45 14.4,-11.34 4.69,-2.89 8.8,-4.54 12.12,-5.54 3.31,-0.99 5.82,-1.31 9.73,-1.07 3.91,0.25 9.22,1.08 13.49,2.56 4.27,1.48 7.5,3.61 10.64,6.12 3.14,2.5 6.2,5.38 8.98,9.01 2.78,3.63 5.29,8.01 6.96,12.08 1.66,4.07 2.48,7.82 2.92,10.87 0.44,3.05 0.51,5.4 0.37,8.49 -0.15,3.1 -0.5,6.93 -1.1,9.98 -0.59,3.05 -1.44,5.31 -2.23,6.91 -0.8,1.6 -1.54,2.53 -1.28,3.16 0.27,0.62 1.54,0.94 5.71,1.09 4.17,0.15 11.23,0.13 16.18,1.07 4.96,0.94 7.81,2.84 9.77,5.12 1.96,2.28 3.03,4.93 3.74,6.97 0.71,2.04 1.05,3.46 1.19,11.27 0.14,7.81 0.06,22.02 0.06,29.87 0,7.86 0.08,9.37 -0.44,10.76 -0.51,1.39 -1.62,2.65 -2.97,3.54 -1.36,0.89 -2.96,1.41 -6.81,1.68 -3.86,0.28 -9.97,0.31 -49.23,0.53 -39.27,0.22 -111.69,0.62 -148.99,0.86zm11.65 -83.04c-0.6,-1.67 -1.49,-3.61 -1.97,-6.33 -0.48,-2.72 -0.53,-6.23 0.12,-9.36 0.65,-3.13 2.01,-5.89 4.39,-8.45 2.37,-2.56 5.77,-4.91 8.66,-6.45 2.89,-1.54 5.28,-2.27 7.79,-2.33 2.51,-0.06 5.15,0.55 8.36,2.45 3.22,1.9 7.02,5.08 10.74,9.01 3.72,3.93 7.36,8.61 10.33,12.92 2.97,4.31 5.28,8.25 7.19,11.25 1.9,3 3.39,5.05 4.31,6.44 0.92,1.39 1.28,2.1 -0.39,2.45 -1.67,0.36 -5.37,0.35 -13.33,0.41 -7.97,0.06 -20.22,0.18 -27.39,0.07 -7.16,-0.11 -9.26,-0.46 -11.35,-1.76 -2.09,-1.31 -4.18,-3.57 -5.37,-5.41 -1.2,-1.83 -1.49,-3.23 -2.09,-4.91zm77.87 10.89c-0.45,-0.63 -0.37,-1.88 0.83,-3.84 1.19,-1.95 3.5,-4.59 6.42,-8.35 2.92,-3.76 6.45,-8.63 10.06,-13.15 3.61,-4.53 7.3,-8.71 10.52,-11.61 3.22,-2.91 5.96,-4.54 8.47,-5.65 2.51,-1.1 4.79,-1.68 7.25,-1.56 2.46,0.12 5.09,0.94 7.87,2.51 2.79,1.58 5.72,3.89 7.74,6.41 2.02,2.52 3.14,5.24 3.87,7.76 0.73,2.53 1.09,4.86 0.68,7.71 -0.41,2.84 -1.57,6.2 -3.09,8.84 -1.53,2.65 -3.4,4.57 -5.27,6.3 -1.87,1.73 -3.75,3.27 -5.39,4.12 -1.64,0.84 -3.06,1 -10.94,1.07 -7.89,0.08 -22.25,0.07 -29.92,0.06 -7.67,0 -8.65,0 -9.1,-0.62z"/>
  <g id="_2795056385024">
   <path class="fil1" d="M192.25 -500.52l88.43 0c19.47,0 35.39,15.93 35.39,35.39l0 80.62c0,19.47 -15.92,35.4 -35.39,35.4l-88.43 0c-19.47,0 -35.4,-15.93 -35.4,-35.4l0 -80.62c0,-19.46 15.93,-35.39 35.4,-35.39zm-5.49 -9.4l99.4 0c21.89,0 39.8,17.91 39.8,39.79l0 90.63c0,21.88 -17.91,39.79 -39.8,39.79l-99.4 0c-21.88,0 -39.79,-17.91 -39.79,-39.79l0 -90.63c0,-21.88 17.91,-39.79 39.79,-39.79z"/>
   <path class="fil2" d="M221.77 -368.48c1,-0.04 2.11,-0.86 3.58,-2.07 1.48,-1.21 3.3,-2.81 5.59,-5.27 2.3,-2.46 5.05,-5.78 8.48,-9.36 3.43,-3.59 7.53,-7.45 12.3,-12.13 4.77,-4.69 118.38,-119.82 122.69,-124 4.32,-4.17 7.5,-7 10.29,-9.75 2.78,-2.75 5.17,-5.41 6.94,-7.3 1.78,-1.9 2.96,-3.01 3.68,-4.35 0.71,-1.35 0.97,-2.91 0.44,-4.43 -0.53,-1.52 -1.85,-2.99 -3.6,-4.75 -1.75,-1.76 -3.93,-3.81 -5.86,-5.65 -1.93,-1.85 -3.61,-3.49 -5.21,-4.39 -1.6,-0.9 -3.13,-1.07 -4.79,-0.14 -1.66,0.93 -3.44,2.96 -10.74,10.59 -7.29,7.63 -128.26,130.48 -135.21,137.63 -6.95,7.16 -8.05,8.24 -9.09,8.09 -1.05,-0.15 -2.03,-1.53 -5.18,-4.87 -3.15,-3.35 -48.86,-48.86 -52.16,-52.05 -3.3,-3.2 -4.58,-4.28 -6.05,-4.2 -1.47,0.07 -3.13,1.3 -5.96,3.86 -2.82,2.56 -6.81,6.46 -9.12,8.91 -2.32,2.45 -2.98,3.45 -2.68,4.7 0.3,1.25 1.55,2.74 8.13,9.32 6.57,6.59 58.88,58.47 65.27,64.69 6.39,6.21 7.26,6.95 8.26,6.92z"/>
  </g>
  <path class="fil3 str0" d="M0.04 126.2c0.04,-5.12 0.04,-8.72 0.99,-11.56 0.96,-2.83 2.87,-4.89 4.38,-5.92 1.51,-1.04 2.62,-1.04 9.19,-1.1 6.57,-0.06 18.6,-0.19 25.56,-0.26 6.96,-0.08 8.84,-0.1 9.85,-1.03 1.01,-0.93 1.16,-2.77 1.23,-7.26 0.07,-4.49 0.07,-11.63 0.33,-15.98 0.26,-4.34 0.78,-5.88 1.88,-6.95 1.1,-1.07 2.8,-1.66 4.67,-1.55 1.88,0.11 3.94,0.92 13.36,8.73 9.43,7.8 26.21,22.6 35.45,30.81 9.24,8.21 10.94,9.82 11.82,11.37 0.88,1.55 0.96,3.02 0.59,4.38 -0.37,1.36 -1.18,2.62 -2.76,4.27 -1.58,1.66 -3.94,3.72 -12.66,11.74 -8.73,8.03 -23.82,22.02 -32.25,29.45 -8.43,7.44 -10.2,8.32 -11.78,8.47 -1.58,0.14 -2.98,-0.45 -4.31,-1.22 -1.32,-0.77 -2.57,-1.73 -3.31,-6.77 -0.74,-5.04 -0.96,-14.17 -1.07,-19.18 -0.11,-5 -0.11,-5.89 -1.8,-6.33 -1.69,-0.44 -5.08,-0.44 -12.22,-0.44 -7.14,0 -18.04,0 -24.59,-0.33 -6.55,-0.34 -8.76,-1 -10.16,-1.88 -1.4,-0.88 -1.99,-1.99 -2.24,-5.85 -0.26,-3.87 -0.19,-10.49 -0.15,-15.61zm101.62 -40.38c-5.38,-4.93 -10.75,-9.86 -16.12,-14.79 0.06,-10.75 0.13,-21.5 0.19,-32.25 0.01,-0.94 -0.12,-3.07 0.32,-6.11 0.55,-3.79 4.1,-6.74 5.07,-7.45 0.49,-0.35 2.37,-1.9 6.1,-2.45 3.36,-0.49 8.57,-0.02 9.84,-0.03 12.55,-0.1 25.11,-0.2 37.66,-0.3 0,5.7 0,11.41 0,17.11 -12.59,0 -25.18,0 -37.77,0 -1.29,0.26 -2.57,0.52 -3.86,0.78 -0.37,2.28 -0.74,4.56 -1.11,6.84 -0.11,12.89 -0.21,25.77 -0.32,38.65zm-0.29 85.15c-5.38,4.94 -10.75,9.87 -16.13,14.8 0.07,10.75 0.14,21.5 0.2,32.24 0.01,0.95 -0.12,3.08 0.32,6.12 0.55,3.78 4.1,6.74 5.08,7.45 0.48,0.35 2.36,1.9 6.09,2.45 3.36,0.49 8.57,0.02 9.84,0.03 12.55,0.1 25.11,0.2 37.66,0.3 0,-5.7 0,-11.41 0,-17.11 -12.59,0 -25.18,0 -37.77,0 -1.29,-0.26 -2.57,-0.52 -3.86,-0.78 -0.37,-2.28 -0.74,-4.57 -1.11,-6.84 -0.1,-12.89 -0.21,-25.77 -0.32,-38.66zm55.51 -162.52c1.14,-1.14 3.8,-2.97 7.22,-3.25 2.74,-0.22 6.27,0.94 7.66,1.3 23.34,5.95 46.68,11.9 70.01,17.85 0.85,0.21 5.03,1.15 7.47,1.9 4.78,1.48 5.83,2.95 6.54,8.19 0.36,2.67 0.17,6.5 0.17,7.89 -0.14,56.02 -0.28,112.05 -0.41,168.07 -0.02,4.75 0.4,13.46 -2.33,17.38 -0.85,1.24 -1.68,3.17 -4.83,4.51 -2.83,1.19 -7.97,1.85 -9.53,2.18 -18.97,4.03 -38.31,9.6 -57.32,13.75 -1.54,0.33 -8.82,1.34 -12.81,1.86 -5.92,0.76 -8.9,0.96 -10.01,0.5 -6.85,-2.82 -5.23,-12.45 -5.24,-18.7 -0.14,-69.42 -0.29,-138.85 -0.42,-208.27 -0.01,-1.31 -0.34,-6.25 0.5,-9.62 0.83,-3.28 2.82,-5.03 3.33,-5.54zm21.79 115.1c4.73,0 8.56,5.98 8.56,13.36 0,7.38 -3.83,13.36 -8.56,13.36 -4.72,0 -8.56,-5.98 -8.56,-13.36 0,-7.38 3.84,-13.36 8.56,-13.36z"/>
  <path class="fil3" d="M1149.74 -633.2l162.64 0c25.67,0 46.68,21 46.68,46.68l0 0c0,25.67 -21.01,46.68 -46.68,46.68l-162.64 0c-25.68,0 -46.68,-21.01 -46.68,-46.68l0 0c0,-25.68 21,-46.68 46.68,-46.68zm25.22 31.08l-7.33 29.19 -4.38 0 -5.93 -24.23 -5.75 24.23 -4.32 0 -7.47 -29.19 4.02 0 5.86 24.17 5.81 -24.17 3.95 0 5.89 24.47 5.84 -24.47 3.81 0zm3.48 29.19l0 -29.19 18.28 0 0 3.45 -14.38 0 0 7.99 13.41 0 0 3.45 -13.41 0 0 10.85 14.38 0 0 3.45 -18.28 0zm39.48 0l-16.95 0 0 -29.19 3.9 0 0 25.74 13.05 0 0 3.45zm14.07 0.52c-1.9,0 -3.67,-0.32 -5.26,-0.96 -1.6,-0.64 -2.99,-1.59 -4.15,-2.86 -1.17,-1.26 -2.07,-2.85 -2.71,-4.75 -0.64,-1.89 -0.96,-4.06 -0.96,-6.52 0,-2.44 0.31,-4.57 0.93,-6.38 0.62,-1.82 1.52,-3.4 2.72,-4.75 1.16,-1.31 2.54,-2.3 4.14,-2.99 1.59,-0.68 3.38,-1.02 5.35,-1.02 0.98,0 1.9,0.07 2.76,0.21 0.86,0.15 1.65,0.33 2.38,0.55 0.62,0.19 1.27,0.44 1.93,0.73 0.66,0.3 1.31,0.62 1.95,0.97l0 4.68 -0.31 0c-0.34,-0.31 -0.78,-0.68 -1.31,-1.12 -0.54,-0.43 -1.19,-0.86 -1.96,-1.29 -0.74,-0.39 -1.55,-0.72 -2.43,-0.98 -0.88,-0.26 -1.89,-0.38 -3.04,-0.38 -1.24,0 -2.42,0.25 -3.53,0.76 -1.11,0.51 -2.09,1.26 -2.91,2.24 -0.83,0.99 -1.47,2.24 -1.93,3.74 -0.46,1.49 -0.69,3.18 -0.69,5.05 0,1.99 0.25,3.71 0.73,5.15 0.49,1.44 1.14,2.65 1.98,3.64 0.81,0.96 1.76,1.69 2.86,2.18 1.1,0.49 2.26,0.73 3.49,0.73 1.12,0 2.16,-0.14 3.12,-0.41 0.95,-0.27 1.8,-0.62 2.54,-1.04 0.72,-0.4 1.34,-0.82 1.87,-1.24 0.52,-0.42 0.93,-0.78 1.23,-1.09l0.29 0 0 4.63c-0.64,0.31 -1.24,0.59 -1.81,0.88 -0.57,0.27 -1.26,0.54 -2.07,0.8 -0.85,0.27 -1.64,0.48 -2.37,0.63 -0.72,0.14 -1.66,0.21 -2.83,0.21zm33.39 -26.35c1.11,1.27 1.97,2.86 2.59,4.75 0.61,1.9 0.92,4.06 0.92,6.49 0,2.37 -0.3,4.5 -0.9,6.41 -0.6,1.91 -1.48,3.51 -2.61,4.81 -1.2,1.35 -2.59,2.35 -4.18,3 -1.59,0.65 -3.34,0.97 -5.25,0.97 -1.98,0 -3.76,-0.33 -5.34,-1 -1.58,-0.67 -2.95,-1.66 -4.09,-2.97 -1.12,-1.3 -1.98,-2.89 -2.59,-4.79 -0.6,-1.89 -0.9,-4.03 -0.9,-6.43 0,-2.46 0.3,-4.61 0.91,-6.47 0.61,-1.85 1.48,-3.44 2.6,-4.77 1.13,-1.3 2.49,-2.29 4.08,-2.96 1.59,-0.67 3.37,-1.01 5.33,-1.01 1.99,0 3.78,0.35 5.38,1.04 1.6,0.7 2.95,1.67 4.05,2.93zm-0.55 11.24c0,-1.93 -0.2,-3.63 -0.63,-5.12 -0.41,-1.49 -1,-2.72 -1.75,-3.7 -0.78,-1 -1.71,-1.75 -2.8,-2.26 -1.09,-0.5 -2.32,-0.75 -3.68,-0.75 -1.41,0 -2.65,0.24 -3.7,0.73 -1.05,0.49 -1.98,1.25 -2.8,2.28 -0.77,0.99 -1.35,2.23 -1.77,3.73 -0.41,1.51 -0.62,3.2 -0.62,5.09 0,3.82 0.81,6.75 2.42,8.77 1.61,2.03 3.76,3.05 6.47,3.05 2.71,0 4.86,-1.02 6.46,-3.05 1.6,-2.02 2.4,-4.95 2.4,-8.77zm33.32 14.59l-3.9 0 0 -25.15 -7.61 17.12 -2.35 0 -7.55 -17.12 0 25.15 -3.61 0 0 -29.19 5.28 0 7.29 16.25 7.04 -16.25 5.41 0 0 29.19zm5.92 0l0 -29.19 18.27 0 0 3.45 -14.38 0 0 7.99 13.42 0 0 3.45 -13.42 0 0 10.85 14.38 0 0 3.45 -18.27 0z"/>
  <g id="_2795056382752">
   <path class="fil0" d="M78.85 -401.1c15.98,-0.09 16.34,-0.09 16.5,0.1 0.16,0.19 0.13,0.57 0.13,12.32 0,11.76 0.03,34.9 -0.01,47.15 -0.04,12.25 -0.15,13.61 -0.65,15.22 -0.49,1.61 -1.37,3.46 -2.74,5.32 -1.37,1.86 -3.24,3.73 -5.05,5.02 -1.8,1.3 -3.55,2.03 -5.1,2.46 -1.55,0.44 -2.9,0.58 -4.23,0.66 -1.33,0.08 -2.63,0.09 -15.63,0.16 -13,0.07 -37.7,0.19 -50.09,0.25 -12.39,0.06 -12.46,0.05 -12.5,-0.01 -0.04,-0.06 -0.04,-0.17 -0.04,-14.82 0,-14.66 0,-43.87 0,-58.52 0,-14.65 0,-14.74 0.05,-14.78 0.04,-0.05 0.13,-0.05 15.96,-0.15 15.84,-0.1 47.43,-0.29 63.4,-0.38zm-190.75 1.11c-15.98,0.08 -16.33,0.09 -16.5,0.28 -0.16,0.19 -0.13,0.57 -0.13,12.32 0,11.76 -0.03,34.9 0.01,47.15 0.04,12.25 0.16,13.61 0.65,15.21 0.5,1.6 1.37,3.45 2.74,5.29 1.38,1.85 3.24,3.69 5.05,4.97 1.8,1.28 3.55,1.99 5.1,2.4 1.55,0.43 2.91,0.55 4.24,0.61 1.32,0.07 2.62,0.07 15.62,0 13,-0.08 37.7,-0.22 50.09,-0.3 12.39,-0.07 12.46,-0.08 12.5,-0.14 0.04,-0.06 0.04,-0.17 0.05,-14.83 0,-14.65 -0.01,-43.86 -0.01,-58.51 0,-14.65 0,-14.74 -0.04,-14.79 -0.05,-0.04 -0.14,-0.04 -15.97,0.03 -15.84,0.08 -47.43,0.23 -63.4,0.31zm14.94 -17.37c-37.3,0.24 -39.48,0.32 -41.24,-0.24 -1.77,-0.55 -3.13,-1.74 -4.11,-3.23 -0.98,-1.49 -1.58,-3.29 -1.88,-7.72 -0.31,-4.42 -0.31,-11.49 -0.31,-18.85 0,-7.37 0,-15.03 0.17,-20.24 0.17,-5.2 0.5,-7.96 1.32,-10.33 0.82,-2.37 2.12,-4.35 3.69,-5.98 1.58,-1.62 3.42,-2.89 5.98,-3.56 2.55,-0.67 5.8,-0.75 9.95,-0.7 4.15,0.05 9.19,0.24 12.23,0.23 3.04,-0.01 4.08,-0.21 4.46,-0.98 0.38,-0.76 0.1,-2.09 -0.56,-3.51 -0.66,-1.42 -1.69,-2.93 -2.42,-4.97 -0.74,-2.05 -1.17,-4.64 -1.71,-7.82 -0.55,-3.18 -1.2,-6.97 -0.27,-11.62 0.93,-4.65 3.44,-10.17 6.11,-15.09 2.67,-4.93 5.49,-9.25 9.27,-13.11 3.79,-3.85 8.52,-7.23 12.33,-9.4 3.81,-2.18 6.69,-3.15 9.47,-3.74 2.79,-0.58 5.5,-0.77 9.18,-0.58 3.67,0.18 8.33,0.76 12.38,2.13 4.06,1.37 7.51,3.53 11.37,6.25 3.87,2.72 8.16,5.99 11.21,9.1 3.05,3.11 4.85,6.07 6.69,8.65 1.83,2.59 3.69,4.81 5.04,6.7 1.35,1.88 2.19,3.43 3.27,3.04 1.07,-0.4 2.37,-2.74 4.79,-6.16 2.43,-3.43 5.97,-7.94 10.38,-12.26 4.41,-4.32 9.7,-8.45 14.39,-11.34 4.7,-2.89 8.81,-4.54 12.13,-5.54 3.31,-0.99 5.82,-1.31 9.73,-1.06 3.91,0.24 9.22,1.07 13.49,2.55 4.27,1.48 7.5,3.62 10.64,6.12 3.14,2.51 6.2,5.38 8.98,9.01 2.78,3.63 5.29,8.01 6.96,12.08 1.66,4.07 2.47,7.82 2.92,10.87 0.44,3.06 0.51,5.4 0.36,8.5 -0.14,3.09 -0.49,6.92 -1.09,9.97 -0.6,3.05 -1.44,5.31 -2.23,6.91 -0.8,1.6 -1.54,2.53 -1.28,3.16 0.27,0.63 1.54,0.95 5.71,1.1 4.17,0.15 11.23,0.12 16.18,1.06 4.96,0.94 7.81,2.84 9.77,5.12 1.96,2.28 3.03,4.94 3.74,6.97 0.71,2.04 1.05,3.46 1.19,11.28 0.13,7.81 0.06,22.01 0.06,29.87 0,7.86 0.07,9.37 -0.44,10.75 -0.52,1.39 -1.62,2.65 -2.97,3.54 -1.36,0.9 -2.96,1.41 -6.81,1.69 -3.86,0.27 -9.97,0.3 -49.23,0.52 -39.27,0.22 -111.69,0.62 -148.99,0.86zm11.65 -83.04c-0.6,-1.67 -1.5,-3.61 -1.97,-6.33 -0.48,-2.72 -0.53,-6.22 0.12,-9.36 0.65,-3.13 2.01,-5.89 4.38,-8.45 2.38,-2.55 5.77,-4.91 8.66,-6.45 2.9,-1.54 5.29,-2.27 7.8,-2.33 2.51,-0.06 5.14,0.56 8.36,2.45 3.22,1.9 7.02,5.08 10.74,9.02 3.72,3.93 7.36,8.6 10.33,12.91 2.97,4.31 5.28,8.25 7.18,11.25 1.9,3 3.4,5.06 4.32,6.44 0.92,1.39 1.27,2.11 -0.39,2.46 -1.67,0.35 -5.37,0.34 -13.33,0.4 -7.97,0.06 -20.22,0.19 -27.39,0.07 -7.17,-0.11 -9.26,-0.46 -11.35,-1.76 -2.09,-1.31 -4.18,-3.57 -5.37,-5.4 -1.2,-1.84 -1.5,-3.24 -2.09,-4.92zm77.87 10.89c-0.45,-0.63 -0.37,-1.88 0.83,-3.83 1.19,-1.96 3.5,-4.6 6.42,-8.36 2.92,-3.76 6.45,-8.63 10.06,-13.15 3.61,-4.53 7.3,-8.71 10.52,-11.61 3.22,-2.91 5.96,-4.54 8.47,-5.64 2.51,-1.11 4.79,-1.69 7.25,-1.57 2.46,0.12 5.09,0.94 7.87,2.51 2.79,1.58 5.72,3.9 7.74,6.41 2.02,2.52 3.14,5.24 3.87,7.76 0.73,2.53 1.09,4.86 0.68,7.71 -0.41,2.84 -1.58,6.2 -3.1,8.84 -1.52,2.65 -3.39,4.57 -5.26,6.3 -1.88,1.74 -3.75,3.27 -5.39,4.12 -1.65,0.85 -3.06,1 -10.94,1.08 -7.89,0.07 -22.25,0.06 -29.93,0.05 -7.66,0 -8.64,0.01 -9.09,-0.62z"/>
   <path class="fil2" d="M-79.11 -324.58c0.79,-0.03 1.68,-0.68 2.85,-1.64 1.16,-0.96 2.61,-2.23 4.43,-4.18 1.82,-1.96 4.01,-4.59 6.73,-7.43 2.72,-2.85 5.97,-5.91 9.76,-9.63 3.78,-3.71 93.93,-95.08 97.36,-98.39 3.42,-3.31 5.95,-5.56 8.16,-7.74 2.21,-2.18 4.1,-4.29 5.51,-5.79 1.41,-1.5 2.35,-2.39 2.91,-3.46 0.57,-1.06 0.78,-2.3 0.36,-3.51 -0.42,-1.2 -1.47,-2.37 -2.86,-3.77 -1.39,-1.39 -3.12,-3.02 -4.65,-4.48 -1.53,-1.47 -2.86,-2.77 -4.13,-3.48 -1.27,-0.72 -2.49,-0.86 -3.8,-0.12 -1.32,0.74 -2.74,2.36 -8.52,8.41 -5.79,6.05 -101.79,103.54 -107.3,109.21 -5.51,5.68 -6.39,6.54 -7.21,6.42 -0.83,-0.12 -1.62,-1.21 -4.11,-3.87 -2.5,-2.65 -38.77,-38.76 -41.39,-41.3 -2.62,-2.53 -3.64,-3.39 -4.81,-3.33 -1.16,0.05 -2.48,1.03 -4.72,3.06 -2.24,2.04 -5.4,5.13 -7.24,7.07 -1.84,1.94 -2.36,2.74 -2.12,3.73 0.23,0.99 1.22,2.18 6.44,7.4 5.22,5.23 46.72,46.4 51.8,51.33 5.07,4.93 5.76,5.52 6.55,5.49z"/>
  </g>
  <path class="fil2" d="M1490.82 -521.35c1,-0.04 2.11,-0.86 3.59,-2.07 1.47,-1.21 3.29,-2.81 5.59,-5.27 2.29,-2.46 5.04,-5.78 8.47,-9.36 3.43,-3.59 7.53,-7.45 12.3,-12.13 4.77,-4.68 118.38,-119.82 122.7,-124 4.31,-4.17 7.49,-7 10.28,-9.75 2.78,-2.75 5.17,-5.41 6.95,-7.3 1.78,-1.89 2.95,-3.01 3.67,-4.35 0.72,-1.34 0.98,-2.91 0.45,-4.43 -0.54,-1.52 -1.86,-2.99 -3.61,-4.75 -1.75,-1.76 -3.93,-3.81 -5.86,-5.65 -1.93,-1.85 -3.6,-3.49 -5.21,-4.39 -1.6,-0.9 -3.13,-1.07 -4.78,-0.14 -1.66,0.93 -3.45,2.96 -10.74,10.59 -7.3,7.63 -128.27,130.48 -135.22,137.64 -6.95,7.15 -8.05,8.23 -9.09,8.08 -1.04,-0.15 -2.03,-1.53 -5.18,-4.87 -3.15,-3.34 -48.86,-48.86 -52.16,-52.05 -3.29,-3.2 -4.58,-4.28 -6.05,-4.2 -1.47,0.07 -3.13,1.3 -5.95,3.86 -2.83,2.56 -6.81,6.46 -9.13,8.91 -2.32,2.45 -2.97,3.45 -2.68,4.7 0.3,1.25 1.55,2.74 8.13,9.33 6.57,6.58 58.88,58.47 65.27,64.68 6.39,6.21 7.26,6.96 8.26,6.92z"/>
 </g>
</svg>
