<?xml version="1.0" encoding="UTF-8"?>
<!DOCTYPE svg PUBLIC "-//W3C//DTD SVG 1.1//EN" "http://www.w3.org/Graphics/SVG/1.1/DTD/svg11.dtd">
<!-- Creator: CorelDRAW 2018 (64-Bit) -->
<svg xmlns="http://www.w3.org/2000/svg" xml:space="preserve" width="255px" height="128px" version="1.1" style="shape-rendering:geometricPrecision; text-rendering:geometricPrecision; image-rendering:optimizeQuality; fill-rule:evenodd; clip-rule:evenodd"
viewBox="0 0 255 127.5"
 xmlns:xlink="http://www.w3.org/1999/xlink">
 <defs>
  <style type="text/css">
   <![CDATA[
    .str0 {stroke:#7692F9;stroke-width:0.1;stroke-miterlimit:22.9256}
    .fil1 {fill:#5B5B5B}
    .fil2 {fill:#009846}
    .fil3 {fill:#7692F9}
    .fil0 {fill:#E63A3A}
   ]]>
  </style>
 </defs>
 <g id="Слой_x0020_1">
  <metadata id="CorelCorpID_0Corel-Layer"/>
  <path class="fil0" d="M-193.55 -479.33c15.92,-0.09 16.27,-0.08 16.44,0.11 0.16,0.19 0.12,0.56 0.12,12.27 0,11.71 0.04,34.76 0,46.96 -0.04,12.21 -0.16,13.56 -0.65,15.16 -0.49,1.61 -1.37,3.45 -2.73,5.3 -1.37,1.86 -3.23,3.72 -5.03,5.01 -1.8,1.29 -3.53,2.01 -5.08,2.45 -1.54,0.43 -2.9,0.57 -4.22,0.65 -1.32,0.08 -2.61,0.09 -15.56,0.16 -12.95,0.07 -37.55,0.19 -49.9,0.25 -12.34,0.06 -12.41,0.05 -12.45,-0.01 -0.04,-0.06 -0.04,-0.17 -0.04,-14.76 0,-14.61 0,-43.7 0,-58.29 0,-14.59 0,-14.68 0.05,-14.73 0.04,-0.05 0.13,-0.05 15.9,-0.14 15.78,-0.1 47.24,-0.29 63.15,-0.39zm-190 1.11c-15.92,0.08 -16.27,0.09 -16.44,0.28 -0.16,0.19 -0.12,0.57 -0.12,12.28 0,11.71 -0.04,34.76 0,46.96 0.04,12.2 0.16,13.56 0.65,15.15 0.49,1.6 1.37,3.43 2.73,5.27 1.37,1.84 3.23,3.68 5.03,4.95 1.79,1.27 3.53,1.98 5.08,2.39 1.54,0.42 2.89,0.55 4.22,0.61 1.32,0.06 2.61,0.07 15.56,0 12.95,-0.08 37.55,-0.22 49.89,-0.3 12.34,-0.07 12.42,-0.08 12.46,-0.14 0.04,-0.06 0.04,-0.17 0.04,-14.77 0,-14.6 0,-43.69 0,-58.28 0,-14.59 0,-14.68 -0.05,-14.73 -0.04,-0.05 -0.13,-0.05 -15.9,0.03 -15.78,0.07 -47.24,0.22 -63.15,0.3zm14.88 -17.3c-37.16,0.24 -39.32,0.32 -41.08,-0.24 -1.76,-0.55 -3.11,-1.73 -4.09,-3.22 -0.98,-1.48 -1.58,-3.27 -1.88,-7.68 -0.3,-4.41 -0.3,-11.45 -0.3,-18.78 0,-7.34 0,-14.97 0.16,-20.16 0.17,-5.19 0.5,-7.93 1.32,-10.29 0.81,-2.36 2.11,-4.33 3.68,-5.95 1.57,-1.62 3.4,-2.88 5.95,-3.55 2.54,-0.67 5.78,-0.75 9.91,-0.7 4.13,0.05 9.15,0.23 12.18,0.23 3.03,-0.01 4.07,-0.21 4.45,-0.98 0.38,-0.76 0.09,-2.08 -0.56,-3.5 -0.66,-1.41 -1.69,-2.91 -2.42,-4.95 -0.72,-2.04 -1.16,-4.61 -1.7,-7.79 -0.54,-3.17 -1.19,-6.94 -0.26,-11.57 0.93,-4.63 3.43,-10.13 6.08,-15.04 2.66,-4.9 5.47,-9.21 9.24,-13.05 3.77,-3.83 8.48,-7.2 12.28,-9.37 3.79,-2.16 6.66,-3.13 9.44,-3.71 2.77,-0.59 5.47,-0.78 9.13,-0.59 3.66,0.19 8.3,0.76 12.34,2.12 4.04,1.37 7.47,3.53 11.33,6.23 3.85,2.71 8.12,5.97 11.16,9.07 3.03,3.1 4.83,6.04 6.66,8.61 1.82,2.58 3.67,4.79 5.02,6.67 1.35,1.88 2.19,3.43 3.26,3.03 1.06,-0.39 2.36,-2.73 4.77,-6.14 2.42,-3.41 5.95,-7.9 10.34,-12.2 4.4,-4.3 9.66,-8.42 14.34,-11.3 4.67,-2.88 8.77,-4.52 12.07,-5.51 3.3,-0.99 5.8,-1.32 9.7,-1.07 3.89,0.25 9.18,1.07 13.43,2.54 4.25,1.48 7.47,3.61 10.6,6.1 3.13,2.5 6.18,5.36 8.95,8.98 2.77,3.61 5.27,7.98 6.93,12.03 1.66,4.06 2.47,7.79 2.91,10.83 0.44,3.04 0.5,5.38 0.36,8.46 -0.14,3.08 -0.49,6.9 -1.09,9.93 -0.59,3.04 -1.43,5.3 -2.22,6.89 -0.79,1.59 -1.54,2.52 -1.27,3.14 0.26,0.63 1.53,0.95 5.68,1.1 4.15,0.15 11.19,0.12 16.12,1.06 4.94,0.93 7.78,2.83 9.73,5.1 1.95,2.27 3.02,4.91 3.73,6.94 0.7,2.04 1.05,3.45 1.18,11.23 0.14,7.78 0.07,21.93 0.07,29.76 0,7.82 0.07,9.33 -0.44,10.71 -0.52,1.38 -1.62,2.64 -2.97,3.53 -1.34,0.88 -2.94,1.4 -6.78,1.67 -3.84,0.28 -9.93,0.31 -49.04,0.53 -39.11,0.21 -111.25,0.61 -148.4,0.85zm11.6 -82.71c-0.6,-1.67 -1.49,-3.6 -1.96,-6.31 -0.48,-2.71 -0.53,-6.2 0.12,-9.32 0.65,-3.12 2,-5.87 4.37,-8.42 2.36,-2.54 5.74,-4.89 8.62,-6.42 2.88,-1.54 5.26,-2.27 7.77,-2.32 2.5,-0.06 5.12,0.55 8.33,2.44 3.2,1.89 6.99,5.06 10.69,8.98 3.71,3.91 7.33,8.57 10.29,12.86 2.96,4.3 5.26,8.22 7.16,11.2 1.89,2.99 3.38,5.04 4.3,6.42 0.92,1.38 1.27,2.1 -0.39,2.45 -1.67,0.35 -5.35,0.34 -13.28,0.4 -7.94,0.06 -20.14,0.18 -27.28,0.07 -7.14,-0.11 -9.22,-0.46 -11.3,-1.76 -2.09,-1.3 -4.17,-3.55 -5.36,-5.38 -1.19,-1.82 -1.49,-3.22 -2.08,-4.89zm77.57 10.84c-0.45,-0.62 -0.37,-1.87 0.82,-3.82 1.19,-1.94 3.49,-4.58 6.4,-8.32 2.91,-3.74 6.42,-8.59 10.02,-13.1 3.59,-4.51 7.27,-8.67 10.48,-11.56 3.2,-2.9 5.93,-4.52 8.44,-5.62 2.5,-1.11 4.77,-1.69 7.22,-1.57 2.45,0.12 5.07,0.95 7.84,2.51 2.77,1.57 5.69,3.88 7.71,6.38 2.01,2.51 3.12,5.22 3.85,7.74 0.73,2.51 1.08,4.84 0.68,7.67 -0.41,2.83 -1.57,6.18 -3.09,8.81 -1.51,2.63 -3.37,4.55 -5.24,6.27 -1.87,1.73 -3.73,3.26 -5.37,4.1 -1.64,0.85 -3.04,1 -10.9,1.08 -7.86,0.07 -22.16,0.06 -29.8,0.05 -7.64,0 -8.62,0.01 -9.06,-0.62z"/>
  <g id="_2795077243360">
   <path class="fil1" d="M191.5 -562.32l88.08 0c19.39,0 35.26,15.87 35.26,35.26l0 80.31c0,19.39 -15.87,35.25 -35.26,35.25l-88.08 0c-19.39,0 -35.26,-15.86 -35.26,-35.25l0 -80.31c0,-19.39 15.87,-35.26 35.26,-35.26zm-5.47 -9.36l99.02 0c21.8,0 39.63,17.84 39.63,39.64l0 90.27c0,21.8 -17.83,39.64 -39.63,39.64l-99.02 0c-21.8,0 -39.63,-17.84 -39.63,-39.64l0 -90.27c0,-21.8 17.83,-39.64 39.63,-39.64z"/>
   <path class="fil2" d="M220.9 -430.79c0.99,-0.04 2.11,-0.86 3.57,-2.06 1.47,-1.21 3.29,-2.8 5.57,-5.25 2.28,-2.45 5.03,-5.76 8.45,-9.33 3.41,-3.57 7.49,-7.41 12.24,-12.08 4.75,-4.67 117.92,-119.35 122.22,-123.51 4.3,-4.16 7.47,-6.98 10.24,-9.72 2.78,-2.73 5.15,-5.39 6.92,-7.27 1.78,-1.88 2.95,-3 3.66,-4.33 0.72,-1.34 0.98,-2.9 0.45,-4.41 -0.53,-1.51 -1.85,-2.98 -3.6,-4.73 -1.74,-1.76 -3.91,-3.8 -5.83,-5.63 -1.92,-1.84 -3.59,-3.48 -5.19,-4.38 -1.59,-0.89 -3.12,-1.06 -4.77,-0.13 -1.65,0.92 -3.43,2.95 -10.7,10.55 -7.26,7.59 -127.76,129.97 -134.68,137.09 -6.92,7.13 -8.02,8.2 -9.06,8.05 -1.04,-0.14 -2.02,-1.52 -5.16,-4.85 -3.13,-3.33 -48.66,-48.66 -51.95,-51.85 -3.28,-3.18 -4.56,-4.25 -6.03,-4.18 -1.47,0.07 -3.12,1.3 -5.93,3.85 -2.81,2.55 -6.78,6.43 -9.09,8.87 -2.31,2.44 -2.96,3.44 -2.67,4.69 0.3,1.24 1.54,2.72 8.1,9.28 6.55,6.56 58.65,58.24 65.01,64.43 6.37,6.19 7.24,6.93 8.23,6.9z"/>
  </g>
  <path class="fil3 str0" d="M349.89 -495.51c0.04,-5.1 0.04,-8.69 0.99,-11.52 0.95,-2.82 2.86,-4.87 4.36,-5.9 1.5,-1.03 2.61,-1.03 9.15,-1.09 6.54,-0.06 18.53,-0.19 25.47,-0.26 6.93,-0.07 8.8,-0.1 9.8,-1.02 1.01,-0.93 1.16,-2.76 1.23,-7.24 0.08,-4.47 0.08,-11.58 0.33,-15.91 0.26,-4.32 0.77,-5.86 1.87,-6.93 1.1,-1.06 2.79,-1.65 4.66,-1.54 1.87,0.11 3.92,0.92 13.31,8.69 9.39,7.77 26.1,22.52 35.31,30.69 9.2,8.18 10.89,9.79 11.77,11.33 0.88,1.54 0.95,3.01 0.58,4.36 -0.36,1.36 -1.17,2.61 -2.74,4.26 -1.58,1.65 -3.93,3.7 -12.62,11.69 -8.69,8 -23.72,21.93 -32.12,29.34 -8.39,7.4 -10.15,8.28 -11.73,8.43 -1.58,0.15 -2.97,-0.44 -4.29,-1.21 -1.32,-0.77 -2.57,-1.72 -3.3,-6.74 -0.73,-5.03 -0.95,-14.12 -1.07,-19.11 -0.11,-4.99 -0.11,-5.87 -1.79,-6.31 -1.69,-0.44 -5.06,-0.44 -12.17,-0.44 -7.12,0 -17.97,0 -24.5,-0.33 -6.52,-0.33 -8.72,-0.99 -10.12,-1.87 -1.39,-0.88 -1.98,-1.98 -2.23,-5.83 -0.26,-3.85 -0.19,-10.45 -0.15,-15.54zm101.22 -40.22c-5.35,-4.91 -10.7,-9.83 -16.06,-14.74 0.07,-10.71 0.14,-21.41 0.2,-32.12 0,-0.94 -0.13,-3.06 0.32,-6.09 0.55,-3.77 4.08,-6.71 5.05,-7.42 0.48,-0.35 2.35,-1.89 6.07,-2.44 3.35,-0.49 8.54,-0.02 9.81,-0.03 12.5,-0.1 25,-0.2 37.51,-0.3 0,5.68 0,11.37 0,17.05 -12.54,0 -25.08,0 -37.62,0 -1.29,0.26 -2.57,0.51 -3.85,0.77 -0.37,2.27 -0.74,4.55 -1.1,6.82 -0.11,12.83 -0.22,25.67 -0.33,38.5zm-0.29 84.82c-5.35,4.91 -10.7,9.83 -16.06,14.74 0.07,10.7 0.13,21.41 0.2,32.11 0.01,0.95 -0.12,3.07 0.32,6.1 0.54,3.76 4.08,6.71 5.05,7.41 0.49,0.35 2.36,1.9 6.07,2.44 3.35,0.5 8.54,0.02 9.81,0.03 12.5,0.1 25,0.21 37.51,0.31 0,-5.69 0,-11.37 0,-17.05 -12.54,0 -25.08,0 -37.62,0 -1.29,-0.26 -2.57,-0.52 -3.85,-0.77 -0.37,-2.28 -0.73,-4.55 -1.1,-6.82 -0.11,-12.84 -0.22,-25.67 -0.33,-38.5zm55.3 -161.89c1.13,-1.14 3.78,-2.96 7.19,-3.24 2.73,-0.22 6.24,0.94 7.64,1.3 23.24,5.92 46.49,11.85 69.73,17.77 0.85,0.22 5,1.15 7.44,1.9 4.76,1.47 5.81,2.94 6.52,8.15 0.35,2.67 0.16,6.48 0.16,7.87 -0.14,55.8 -0.28,111.61 -0.41,167.41 -0.01,4.73 0.4,13.41 -2.31,17.32 -0.86,1.22 -1.68,3.15 -4.82,4.48 -2.82,1.19 -7.94,1.85 -9.49,2.18 -18.9,4.01 -38.17,9.56 -57.1,13.69 -1.53,0.33 -8.78,1.34 -12.76,1.85 -5.89,0.76 -8.86,0.96 -9.97,0.5 -6.83,-2.81 -5.21,-12.4 -5.22,-18.62 -0.14,-69.16 -0.28,-138.31 -0.42,-207.46 0,-1.31 -0.33,-6.22 0.51,-9.58 0.81,-3.27 2.8,-5.01 3.31,-5.52zm21.71 114.65c4.7,0 8.52,5.96 8.52,13.31 0,7.35 -3.82,13.31 -8.52,13.31 -4.71,0 -8.53,-5.96 -8.53,-13.31 0,-7.35 3.82,-13.31 8.53,-13.31z"/>
  <path class="fil3" d="M46.5 17.25l162 0c25.58,0 46.5,20.92 46.5,46.5l0 0c0,25.58 -20.92,46.5 -46.5,46.5l-162 0c-25.58,0 -46.5,-20.92 -46.5,-46.5l0 0c0,-25.58 20.92,-46.5 46.5,-46.5zm25.12 30.96l-7.3 29.08 -4.36 0 -5.91 -24.14 -5.73 24.14 -4.3 0 -7.44 -29.08 4 0 5.84 24.08 5.79 -24.08 3.93 0 5.86 24.38 5.82 -24.38 3.8 0zm3.47 29.08l0 -29.08 18.2 0 0 3.44 -14.32 0 0 7.96 13.36 0 0 3.44 -13.36 0 0 10.8 14.32 0 0 3.44 -18.2 0zm39.32 0l-16.88 0 0 -29.08 3.88 0 0 25.64 13 0 0 3.44zm14.02 0.52c-1.9,0 -3.65,-0.32 -5.25,-0.95 -1.59,-0.64 -2.97,-1.6 -4.13,-2.86 -1.16,-1.26 -2.06,-2.84 -2.69,-4.72 -0.64,-1.89 -0.96,-4.06 -0.96,-6.5 0,-2.44 0.3,-4.56 0.92,-6.36 0.62,-1.81 1.52,-3.39 2.71,-4.73 1.16,-1.3 2.53,-2.29 4.13,-2.97 1.58,-0.69 3.36,-1.03 5.33,-1.03 0.97,0 1.89,0.07 2.75,0.21 0.85,0.15 1.64,0.33 2.37,0.55 0.62,0.19 1.27,0.44 1.92,0.73 0.66,0.3 1.31,0.62 1.95,0.97l0 4.66 -0.32 0c-0.34,-0.31 -0.77,-0.68 -1.3,-1.11 -0.54,-0.44 -1.19,-0.86 -1.96,-1.29 -0.74,-0.39 -1.54,-0.72 -2.42,-0.97 -0.87,-0.26 -1.88,-0.39 -3.02,-0.39 -1.24,0 -2.41,0.25 -3.52,0.76 -1.1,0.51 -2.08,1.25 -2.9,2.23 -0.82,0.99 -1.46,2.23 -1.92,3.72 -0.46,1.49 -0.68,3.17 -0.68,5.04 0,1.98 0.24,3.69 0.72,5.12 0.48,1.44 1.14,2.64 1.97,3.63 0.81,0.96 1.76,1.68 2.85,2.17 1.1,0.49 2.26,0.73 3.48,0.73 1.12,0 2.15,-0.13 3.1,-0.41 0.95,-0.27 1.8,-0.62 2.54,-1.03 0.72,-0.41 1.33,-0.82 1.86,-1.24 0.52,-0.42 0.92,-0.78 1.22,-1.08l0.3 0 0 4.61c-0.64,0.3 -1.24,0.59 -1.81,0.87 -0.57,0.27 -1.25,0.54 -2.06,0.8 -0.85,0.27 -1.63,0.48 -2.36,0.63 -0.72,0.14 -1.66,0.21 -2.82,0.21zm33.25 -26.25c1.11,1.27 1.97,2.85 2.58,4.74 0.62,1.88 0.92,4.04 0.92,6.46 0,2.36 -0.3,4.48 -0.9,6.38 -0.6,1.9 -1.46,3.5 -2.6,4.79 -1.18,1.35 -2.57,2.35 -4.16,2.99 -1.58,0.65 -3.32,0.97 -5.22,0.97 -1.98,0 -3.75,-0.33 -5.32,-0.99 -1.58,-0.67 -2.94,-1.66 -4.07,-2.97 -1.13,-1.29 -1.99,-2.88 -2.59,-4.77 -0.6,-1.88 -0.9,-4.02 -0.9,-6.4 0,-2.45 0.3,-4.6 0.91,-6.44 0.61,-1.85 1.47,-3.44 2.59,-4.76 1.12,-1.3 2.48,-2.28 4.06,-2.94 1.59,-0.68 3.36,-1.01 5.32,-1.01 1.98,0 3.76,0.35 5.35,1.03 1.59,0.7 2.94,1.66 4.03,2.92zm-0.54 11.2c0,-1.92 -0.2,-3.62 -0.62,-5.1 -0.42,-1.49 -1,-2.72 -1.76,-3.69 -0.77,-1 -1.7,-1.75 -2.78,-2.25 -1.09,-0.5 -2.31,-0.75 -3.66,-0.75 -1.41,0 -2.64,0.25 -3.69,0.73 -1.05,0.49 -1.97,1.24 -2.79,2.27 -0.76,0.99 -1.35,2.22 -1.76,3.72 -0.41,1.5 -0.62,3.19 -0.62,5.07 0,3.8 0.8,6.72 2.4,8.74 1.61,2.02 3.76,3.03 6.46,3.03 2.69,0 4.84,-1.01 6.43,-3.03 1.59,-2.02 2.39,-4.94 2.39,-8.74zm33.18 14.53l-3.88 0 0 -25.05 -7.58 17.05 -2.34 0 -7.52 -17.05 0 25.05 -3.6 0 0 -29.08 5.26 0 7.27 16.19 7.01 -16.19 5.38 0 0 29.08zm5.9 0l0 -29.08 18.2 0 0 3.44 -14.32 0 0 7.96 13.36 0 0 3.44 -13.36 0 0 10.8 14.32 0 0 3.44 -18.2 0z"/>
  <g id="_2795077240704">
   <path class="fil0" d="M78.55 -463.29c15.91,-0.09 16.27,-0.08 16.43,0.11 0.16,0.19 0.12,0.56 0.12,12.27 0,11.71 0.04,34.76 0,46.96 -0.04,12.21 -0.16,13.56 -0.65,15.16 -0.49,1.61 -1.37,3.45 -2.73,5.3 -1.37,1.86 -3.23,3.72 -5.03,5.01 -1.79,1.29 -3.53,2.01 -5.08,2.45 -1.54,0.43 -2.89,0.57 -4.22,0.65 -1.32,0.08 -2.61,0.09 -15.56,0.16 -12.95,0.07 -37.55,0.19 -49.89,0.25 -12.34,0.06 -12.42,0.05 -12.46,-0.01 -0.04,-0.05 -0.04,-0.16 -0.04,-14.76 0,-14.61 0,-43.7 0,-58.29 0,-14.59 0,-14.68 0.05,-14.73 0.04,-0.05 0.13,-0.05 15.9,-0.14 15.78,-0.1 47.25,-0.29 63.16,-0.39zm-190.01 1.11c-15.92,0.08 -16.27,0.09 -16.44,0.28 -0.16,0.19 -0.12,0.57 -0.12,12.28 0,11.71 -0.04,34.76 0,46.96 0.04,12.2 0.16,13.56 0.65,15.15 0.49,1.6 1.37,3.44 2.73,5.27 1.37,1.84 3.23,3.68 5.03,4.95 1.79,1.27 3.53,1.98 5.08,2.4 1.54,0.41 2.9,0.54 4.22,0.6 1.32,0.07 2.61,0.07 15.56,0 12.95,-0.08 37.55,-0.22 49.9,-0.3 12.34,-0.07 12.41,-0.08 12.45,-0.14 0.04,-0.06 0.04,-0.17 0.04,-14.77 0,-14.6 0,-43.69 0,-58.28 0,-14.59 0,-14.68 -0.05,-14.73 -0.04,-0.05 -0.13,-0.05 -15.9,0.03 -15.78,0.07 -47.24,0.22 -63.15,0.3zm14.88 -17.3c-37.15,0.24 -39.32,0.32 -41.08,-0.24 -1.76,-0.55 -3.11,-1.73 -4.09,-3.22 -0.98,-1.48 -1.58,-3.27 -1.88,-7.68 -0.3,-4.41 -0.3,-11.45 -0.3,-18.79 0,-7.33 0,-14.96 0.16,-20.15 0.17,-5.19 0.5,-7.93 1.32,-10.29 0.81,-2.36 2.11,-4.34 3.68,-5.96 1.57,-1.61 3.4,-2.87 5.95,-3.54 2.54,-0.67 5.78,-0.75 9.91,-0.7 4.14,0.05 9.15,0.23 12.18,0.23 3.03,-0.02 4.07,-0.21 4.45,-0.98 0.38,-0.76 0.09,-2.08 -0.56,-3.5 -0.66,-1.41 -1.68,-2.91 -2.41,-4.95 -0.73,-2.04 -1.17,-4.62 -1.71,-7.79 -0.54,-3.17 -1.19,-6.94 -0.26,-11.57 0.93,-4.64 3.43,-10.13 6.08,-15.04 2.66,-4.9 5.47,-9.21 9.24,-13.05 3.77,-3.83 8.48,-7.2 12.28,-9.37 3.79,-2.16 6.66,-3.13 9.44,-3.72 2.77,-0.58 5.47,-0.77 9.13,-0.58 3.67,0.19 8.3,0.76 12.34,2.12 4.04,1.37 7.47,3.53 11.33,6.23 3.85,2.71 8.12,5.97 11.16,9.07 3.03,3.09 4.83,6.04 6.66,8.61 1.82,2.58 3.68,4.79 5.02,6.67 1.35,1.88 2.19,3.42 3.26,3.03 1.06,-0.39 2.36,-2.73 4.78,-6.14 2.41,-3.41 5.94,-7.9 10.33,-12.2 4.4,-4.3 9.66,-8.42 14.34,-11.3 4.68,-2.88 8.77,-4.53 12.07,-5.51 3.3,-0.99 5.8,-1.32 9.7,-1.07 3.89,0.25 9.18,1.07 13.43,2.54 4.26,1.48 7.47,3.61 10.6,6.1 3.13,2.5 6.18,5.36 8.95,8.97 2.77,3.62 5.27,7.99 6.93,12.04 1.66,4.06 2.47,7.79 2.91,10.83 0.44,3.04 0.51,5.38 0.36,8.46 -0.14,3.08 -0.49,6.9 -1.08,9.93 -0.6,3.04 -1.44,5.29 -2.23,6.89 -0.79,1.59 -1.53,2.52 -1.27,3.14 0.26,0.63 1.53,0.95 5.69,1.1 4.15,0.15 11.18,0.12 16.11,1.06 4.94,0.93 7.78,2.83 9.73,5.1 1.96,2.27 3.03,4.91 3.73,6.94 0.71,2.04 1.05,3.45 1.18,11.23 0.14,7.78 0.07,21.93 0.07,29.76 0,7.82 0.07,9.33 -0.44,10.71 -0.52,1.38 -1.62,2.64 -2.96,3.53 -1.35,0.88 -2.95,1.4 -6.79,1.67 -3.84,0.28 -9.92,0.31 -49.04,0.53 -39.11,0.21 -111.25,0.61 -148.4,0.85zm11.6 -82.71c-0.6,-1.67 -1.49,-3.6 -1.96,-6.31 -0.48,-2.71 -0.53,-6.2 0.12,-9.32 0.65,-3.12 2,-5.87 4.37,-8.42 2.36,-2.54 5.74,-4.89 8.62,-6.42 2.89,-1.54 5.26,-2.27 7.77,-2.33 2.5,-0.06 5.12,0.56 8.33,2.45 3.2,1.89 6.99,5.06 10.69,8.97 3.71,3.92 7.33,8.58 10.29,12.87 2.97,4.3 5.27,8.22 7.16,11.2 1.89,2.99 3.38,5.04 4.3,6.42 0.92,1.38 1.27,2.1 -0.39,2.45 -1.67,0.35 -5.35,0.34 -13.28,0.4 -7.94,0.06 -20.14,0.18 -27.28,0.07 -7.14,-0.11 -9.22,-0.46 -11.3,-1.76 -2.09,-1.3 -4.17,-3.55 -5.36,-5.38 -1.19,-1.83 -1.49,-3.22 -2.08,-4.89zm77.57 10.84c-0.45,-0.62 -0.37,-1.87 0.82,-3.82 1.19,-1.94 3.49,-4.58 6.4,-8.32 2.91,-3.74 6.42,-8.59 10.02,-13.1 3.6,-4.51 7.28,-8.67 10.48,-11.57 3.21,-2.89 5.93,-4.52 8.44,-5.62 2.5,-1.1 4.77,-1.68 7.22,-1.56 2.45,0.12 5.07,0.94 7.84,2.51 2.77,1.57 5.69,3.87 7.71,6.38 2.01,2.51 3.12,5.22 3.85,7.73 0.73,2.52 1.09,4.84 0.68,7.68 -0.41,2.83 -1.57,6.18 -3.08,8.81 -1.52,2.63 -3.38,4.55 -5.25,6.27 -1.87,1.73 -3.73,3.26 -5.37,4.1 -1.64,0.85 -3.04,1 -10.9,1.08 -7.85,0.07 -22.16,0.06 -29.8,0.05 -7.64,0 -8.62,0.01 -9.06,-0.62z"/>
   <path class="fil2" d="M-78.8 -387.06c0.79,-0.03 1.67,-0.68 2.84,-1.64 1.16,-0.95 2.6,-2.22 4.41,-4.16 1.81,-1.95 3.99,-4.57 6.7,-7.4 2.71,-2.84 5.95,-5.89 9.72,-9.59 3.77,-3.7 93.57,-94.71 96.98,-98.01 3.41,-3.3 5.93,-5.54 8.13,-7.71 2.2,-2.17 4.09,-4.28 5.49,-5.77 1.41,-1.49 2.34,-2.38 2.91,-3.44 0.56,-1.06 0.77,-2.3 0.35,-3.5 -0.42,-1.2 -1.47,-2.36 -2.85,-3.75 -1.39,-1.39 -3.11,-3.01 -4.63,-4.47 -1.53,-1.46 -2.85,-2.75 -4.12,-3.47 -1.26,-0.71 -2.47,-0.84 -3.78,-0.11 -1.31,0.74 -2.73,2.34 -8.49,8.37 -5.77,6.03 -101.38,103.14 -106.88,108.79 -5.49,5.66 -6.36,6.51 -7.18,6.39 -0.83,-0.11 -1.61,-1.2 -4.1,-3.85 -2.49,-2.64 -38.62,-38.61 -41.22,-41.14 -2.61,-2.52 -3.63,-3.38 -4.79,-3.32 -1.16,0.06 -2.47,1.03 -4.7,3.05 -2.23,2.03 -5.39,5.11 -7.22,7.04 -1.83,1.94 -2.35,2.73 -2.11,3.72 0.23,0.99 1.22,2.17 6.42,7.37 5.2,5.21 46.54,46.22 51.59,51.13 5.05,4.91 5.74,5.5 6.53,5.47z"/>
  </g>
  <path class="fil2" d="M718.93 -370.06c1,-0.04 2.11,-0.86 3.58,-2.06 1.46,-1.21 3.28,-2.81 5.56,-5.26 2.29,-2.44 5.03,-5.75 8.45,-9.32 3.41,-3.57 7.49,-7.41 12.25,-12.08 4.75,-4.67 117.92,-119.36 122.21,-123.51 4.3,-4.16 7.47,-6.98 10.25,-9.72 2.77,-2.74 5.14,-5.39 6.92,-7.27 1.77,-1.89 2.94,-3 3.65,-4.34 0.72,-1.33 0.98,-2.89 0.45,-4.4 -0.53,-1.52 -1.85,-2.98 -3.59,-4.74 -1.75,-1.75 -3.92,-3.79 -5.84,-5.63 -1.92,-1.83 -3.59,-3.47 -5.18,-4.37 -1.6,-0.9 -3.12,-1.06 -4.77,-0.14 -1.66,0.93 -3.44,2.95 -10.7,10.55 -7.27,7.6 -127.77,129.97 -134.69,137.1 -6.92,7.13 -8.02,8.2 -9.06,8.05 -1.03,-0.14 -2.02,-1.52 -5.15,-4.85 -3.14,-3.33 -48.67,-48.67 -51.96,-51.85 -3.28,-3.18 -4.56,-4.26 -6.03,-4.18 -1.46,0.07 -3.12,1.3 -5.93,3.85 -2.81,2.55 -6.78,6.43 -9.09,8.87 -2.31,2.44 -2.96,3.44 -2.66,4.68 0.29,1.25 1.54,2.73 8.09,9.29 6.55,6.56 58.65,58.24 65.01,64.43 6.37,6.19 7.24,6.93 8.23,6.9z"/>
 </g>
</svg>
