<?xml version="1.0" encoding="UTF-8"?>
<!DOCTYPE svg PUBLIC "-//W3C//DTD SVG 1.1//EN" "http://www.w3.org/Graphics/SVG/1.1/DTD/svg11.dtd">
<!-- Creator: CorelDRAW 2018 (64-Bit) -->
<svg xmlns="http://www.w3.org/2000/svg" xml:space="preserve" width="31mm" height="14mm" version="1.1" style="shape-rendering:geometricPrecision; text-rendering:geometricPrecision; image-rendering:optimizeQuality; fill-rule:evenodd; clip-rule:evenodd"
viewBox="0 0 3100 1400"
 xmlns:xlink="http://www.w3.org/1999/xlink">
 <defs>
  <style type="text/css">
   <![CDATA[
    .str8 {stroke:#FEFEFE;stroke-width:30;stroke-miterlimit:22.9256}
    .str1 {stroke:black;stroke-width:30;stroke-miterlimit:22.9256}
    .str0 {stroke:#2B2A29;stroke-width:30;stroke-miterlimit:22.9256}
    .str5 {stroke:#7690C9;stroke-width:30;stroke-miterlimit:22.9256}
    .str6 {stroke:#FEFEFE;stroke-width:30;stroke-miterlimit:22.9256}
    .str7 {stroke:#FEFEFE;stroke-width:10;stroke-miterlimit:22.9256}
    .str9 {stroke:#2B2A29;stroke-width:10;stroke-miterlimit:22.9256}
    .str11 {stroke:#FEFEFE;stroke-width:5;stroke-miterlimit:22.9256}
    .str10 {stroke:#2B2A29;stroke-width:50;stroke-linecap:round;stroke-miterlimit:22.9256}
    .str2 {stroke:#009846;stroke-width:30;stroke-linecap:round;stroke-linejoin:round;stroke-miterlimit:22.9256}
    .str4 {stroke:#7690C9;stroke-width:30;stroke-linecap:round;stroke-linejoin:round;stroke-miterlimit:22.9256}
    .str3 {stroke:#FEFEFE;stroke-width:30;stroke-linecap:round;stroke-linejoin:round;stroke-miterlimit:22.9256}
    .fil1 {fill:none}
    .fil4 {fill:none;fill-rule:nonzero}
    .fil0 {fill:#2B2A29}
    .fil3 {fill:#7690C9}
    .fil2 {fill:#FEFEFE}
    .fil5 {fill:#FEFEFE;fill-rule:nonzero}
   ]]>
  </style>
 </defs>
 <g id="Слой_x0020_1">
  <metadata id="CorelCorpID_0Corel-Layer"/>
  <path class="fil0 str0" d="M647.86 387.19c6.41,14.15 9.98,29.86 9.98,46.37l0 10.83c0,62.21 -50.72,112.94 -112.93,112.94l-262.78 0c-62.21,0 -112.93,-50.73 -112.93,-112.94l0 -10.83c0,-16.43 3.53,-32.06 10.94,-46.16l-104.58 0c-14.06,0 -25.57,11.5 -25.57,25.56l0 848.41c0,14.06 11.51,25.56 25.57,25.56l665.79 0c14.06,0 25.56,-11.5 25.56,-25.56l0 -848.41c0,-14.05 -11.5,-25.53 -25.56,-25.56l-93.49 -0.21z"/>
  <path class="fil1 str0" d="M494.68 369.65l50.23 0c35.14,0 63.9,28.76 63.9,63.91l0 10.83c0,35.15 -28.76,63.91 -63.9,63.91l-262.78 0c-35.15,0 -63.9,-28.76 -63.9,-63.91l0 -10.83c0,-35.15 28.75,-63.91 63.9,-63.91l51.92 0 0 -20.64c0,-35.14 28.76,-63.9 63.9,-63.9l32.82 0c35.15,0 63.91,28.76 63.91,63.9l0 20.64z"/>
  <circle class="fil0 str1" cx="413.52" cy="357.81" r="19.17"/>
  <polyline class="fil1 str2" points="235.15,904.91 355.04,1032.85 602.87,733.64 "/>
  <polyline class="fil1 str2" points="235.15,904.91 355.04,1032.85 602.87,733.64 "/>
  <path class="fil2 str3" d="M353.72 989.61l227.12 -274.21c10.05,-12.13 28.14,-13.83 40.27,-3.78 12.13,10.04 13.83,28.13 3.79,40.26l-247.83 299.21c-5.43,6.56 -12.65,10.09 -21.16,10.35 -8.5,0.26 -15.92,-2.83 -21.74,-9.03l-119.89 -127.95c-10.77,-11.49 -10.18,-29.65 1.32,-40.42 11.49,-10.77 29.65,-10.18 40.42,1.31l97.7 104.26z"/>
  <polyline class="fil1 str4" points="235.15,904.91 355.04,1032.85 602.87,733.64 "/>
  <path class="fil3 str5" d="M2822.61 200.57l-335.17 -163.07c-6.9,-3.36 -11.43,6.74 -13.95,13.95l-195.38 558.24c-2.53,7.21 6.49,12.34 13.95,13.96l353.63 76.92c7.48,1.62 11.27,-6.77 13.96,-13.95l176.91 -472.09c2.69,-7.19 -7.05,-10.6 -13.95,-13.96z"/>
  <path class="fil2 str6" d="M2639.7 130.92l-384.4 -27.7c-20.05,-1.44 -37.07,15.58 -36.38,35.56l18.47 533.62c0.64,18.87 15.86,34.17 34.87,34.17l365.93 0c19.23,0 34.89,-15.66 34.89,-34.89l0 -505.93c0,-18.8 -14.9,-33.5 -33.38,-34.83z"/>
  <path class="fil3 str5" d="M2638.19 151.79l-384.39 -27.69c-7.66,-0.55 -14.22,6.29 -13.96,13.96l18.46 533.62c0.26,7.66 6.29,13.95 13.96,13.95l365.93 0c7.68,0 13.96,-6.28 13.96,-13.95l0 -505.93c0,-7.68 -6.3,-13.4 -13.96,-13.96z"/>
  <path class="fil0 str7" d="M2217.69 866.36c-50.25,-11.34 -72.52,-25.77 -104.21,-21.18 -28.19,4.08 -43.41,23.44 -47.36,41.64 -4.82,22.19 4.31,43.04 15.81,53.14 15.72,13.8 71.54,28.5 110.54,34.83 12.16,1.97 33.51,1.8 39.38,-0.46 18.03,-6.97 -10.21,-93.11 -14.16,-107.97z"/>
  <path class="fil0 str7" d="M2268.49 720.98c-9.74,31.28 -19.49,62.56 -29.23,93.84 -19.58,-6.06 -82.7,-7.98 -101.76,-36 -11.11,-16.32 -13.37,-60.85 32.65,-69.48 23.24,-4.36 56.61,0.58 98.34,11.64z"/>
  <path class="fil0 str8" d="M2746.32 1081.91c-0.39,1.27 -3.15,3.43 -4.09,4.09 -3.62,2.5 -8.13,4.37 -12.34,5.62 -1.51,0.45 -3.04,0.83 -4.58,1.14 -2.09,0.43 -4.2,0.75 -6.32,0.99 -34.16,3.78 -71.72,-16.75 -99.65,-34.39 -26.3,-16.62 -52.79,-34.34 -73.53,-57.81 -8.99,-10.17 -16.94,-21.21 -24.63,-32.37 -10.64,-15.42 -20.95,-31.07 -31.57,-46.51 -19.86,-32.79 -39.72,-65.57 -59.57,-98.36l-8.85 -14.61 -5.82 16.06c-5.2,14.33 -10.51,28.62 -16.27,42.74 -9.21,22.59 -19.92,46.08 -33.6,66.34 -8.25,12.21 -22.84,21.67 -34.49,30.48 -8.68,6.57 -17.09,13.53 -23.89,22.09l-1.62 2.04 -0.14 2.6c-5.73,104.13 -1.98,208.56 -7.7,312.68l-0.44 8.12 8.11 0.48c40.79,2.44 82.05,3.12 122.91,3.38 24.14,0.15 48.29,0.07 72.43,-0.29 20.24,-0.3 40.53,-0.77 60.76,-1.76 3.37,-0.16 6.74,-0.29 10.12,-0.39 28.14,-0.84 56.32,0.34 84.45,1.05 29.72,0.76 59.33,0.94 88.98,-1.61 48.78,-4.2 67.5,-76.61 80.86,-114.67l0.05 -0.14c7.51,-22.72 14.02,-45.86 19.75,-69.09 6.42,-25.99 11.91,-52.27 16.3,-78.68 3.37,-20.25 6.11,-40.65 7.97,-61.1 3.06,-33.67 -1.41,-66.93 -12.28,-98.89 -24.64,-72.49 -80.82,-134.68 -142.39,-178.46 -37.07,-26.37 -91.3,-39.24 -135.28,-48.97 -14.88,-3.29 -29.79,-6.41 -44.68,-9.68 -18.47,-4.05 -36.35,-9 -54.31,-14.89 -12.26,-4.03 -24.59,-8.54 -37.15,-11.53 -15.11,-3.59 -29.42,-4.4 -44.9,-3.48 -31.42,1.87 -61.4,15.05 -78.54,42.44 -2.34,3.73 -4.53,9.77 -6.18,13.89 -3.47,8.66 -6.77,17.39 -10.04,26.12 -9.26,24.7 -18.23,49.53 -27.12,74.37 -9.12,25.51 -18.15,51.07 -26.96,76.68 -3.01,8.77 -6.01,17.54 -8.89,26.35 -0.89,2.71 -1.77,5.43 -2.59,8.16 -0.49,1.63 -1.13,3.64 -1.29,5.33 -1.03,11.38 1.67,23.07 7.77,32.75 5.42,8.6 13.85,15.92 24.06,17.88 20.25,3.9 42,-1.9 56.24,-17.19 9.73,-10.45 17.79,-34.44 22.42,-48.06 3.3,-9.69 6.4,-19.45 9.73,-29.12 1.29,-3.74 2.61,-7.48 4.08,-11.14 0.86,-2.12 1.87,-4.61 3.08,-6.55l0.25 -0.42 0.21 -0.44c6.21,-13.31 21.27,-46.81 35,-53.48 17.14,-8.33 29.82,-4.07 43.33,8.01 4.17,3.72 10.46,15.76 13.16,20.81 6.67,12.46 12.91,25.18 19.45,37.72 5.08,9.75 10.31,19.5 16.04,28.89 21.03,34.47 49.16,73.38 80.84,98.64 32.77,26.12 68.7,52.72 106.29,71.39 12.05,5.98 24.02,12.09 36.01,18.19 7.67,3.89 15.43,7.89 23.3,11.36 1.53,0.68 6.95,3.36 7.75,5.2z"/>
  <path class="fil0 str9" d="M2327.3 670.9c14.52,-23.19 40.55,-36.74 72.11,-38.62 49.58,-2.95 60.81,13.64 134.12,29.73 63.16,13.88 133.49,26.39 176.98,57.32 84.35,60 161.48,157.53 151.26,269.96 -6.55,72.18 -25.11,151.03 -43.64,207.04 -12.15,34.63 -30.47,105.89 -73.85,109.24 -64.04,5.91 -123.67,-1.96 -183.25,0.93 -64.28,3.13 -185.46,2.84 -255.21,-1.32 5.64,-102.57 2.06,-210.12 7.7,-312.69 16.66,-20.95 44.57,-32.08 58.75,-53.08 20.84,-30.85 37.12,-73.15 50.78,-110.87 22.05,36.41 37.64,62.16 59.69,98.57 51.21,74.36 54.9,90.31 132.23,139.16 36.36,22.97 75.73,41.84 111.96,34.5 20.31,-4.12 41.96,-19.63 14.93,-31.54 -12,-5.29 -29.37,-14.7 -58.96,-29.39 -36.2,-17.98 -73,-45.08 -104.84,-70.46 -30.5,-24.32 -58.67,-63.25 -78.95,-96.51 -19.51,-31.97 -39.49,-79.69 -50.18,-89.25 -12.61,-11.28 -29.04,-20.6 -52.35,-9.27 -13.57,6.59 -25.23,28.22 -38.83,57.38 -8.78,14.12 -23.41,77.56 -38.35,93.61 -12.36,13.28 -31.32,18.09 -48.72,14.74 -14.31,-2.75 -27.11,-21.22 -25.23,-41.86 0.67,-7.35 74.33,-215.29 81.85,-227.32z"/>
  <path class="fil2 str6" d="M2219.52 1091.34l-188.89 -25.97c-42.5,-5.84 -77.82,25.63 -77.82,68.36 0,40.53 31.83,77.68 72.11,83.22l188.89 25.97c42.49,5.84 77.81,-25.64 77.81,-68.36 0,-40.53 -31.82,-77.68 -72.1,-83.22z"/>
  <path class="fil0 str7" d="M2241.77 1028.19l-157.39 -21.63c-38.54,-5.3 -69.78,15.06 -69.78,45.46l0 0c0,30.4 31.24,59.35 69.77,64.64l157.4 21.64c38.53,5.29 69.77,-15.06 69.77,-45.46l0.01 0c-0.01,-30.4 -31.25,-59.35 -69.78,-64.65l0 0z"/>
  <path class="fil2 str6" d="M2254.24 1160.57l-165.64 -14.32c-42.04,-3.64 -77.24,28.07 -77.24,70.42 0,40.95 32.63,77.86 73.64,81.4l165.64 14.33c42.04,3.63 77.23,-28.07 77.23,-70.42 0,-40.96 -32.61,-77.86 -73.63,-81.41z"/>
  <path class="fil0 str7" d="M2252.44 1181.43l-165.64 -14.32c-30.02,-2.6 -54.5,19.28 -54.5,49.56l0 0c0,30.28 24.49,57.96 54.5,60.55l165.64 14.32c30.01,2.59 54.5,-19.28 54.5,-49.56l0 -0.01c0,-30.28 -24.48,-57.94 -54.5,-60.54z"/>
  <path class="fil2 str5" d="M2331.18 153.5l-65.05 -4.69c-1.29,-0.09 -2.4,1.07 -2.36,2.36l3.12 90.31c0.05,1.3 1.07,2.36 2.37,2.36l61.92 0c1.3,0 2.36,-1.06 2.36,-2.36l0 -85.62c0,-1.3 -1.06,-2.27 -2.36,-2.36z"/>
  <path class="fil2 str5" d="M2629.64 170.43l-65.05 -4.69c-1.29,-0.09 -2.4,1.07 -2.36,2.36l3.13 90.31c0.04,1.29 1.06,2.36 2.36,2.36l61.92 0c1.3,0 2.36,-1.07 2.36,-2.36l0 -85.62c0,-1.3 -1.06,-2.27 -2.36,-2.36z"/>
  <path class="fil2 str6" d="M2809.6 223.26l-35.23 -17.14c-0.72,-0.35 -1.2,0.71 -1.46,1.47l-20.54 58.66c-0.26,0.76 0.68,1.3 1.47,1.47l37.16 8.08c0.79,0.17 1.19,-0.71 1.47,-1.46l18.59 -49.61c0.29,-0.76 -0.74,-1.12 -1.46,-1.47z"/>
  <g id="_2046449829008">
   <line class="fil4 str10" x1="1074.24" y1="718.42" x2="1588.8" y2= "718.42" />
   <line class="fil4 str10" x1="1444.38" y1="635.04" x2="1588.8" y2= "718.42" />
   <line class="fil4 str10" x1="1444.38" y1="801.8" x2="1588.8" y2= "718.42" />
  </g>
  <line class="fil4 str10" x1="1792.09" y1="981.63" x2="1277.53" y2= "981.63" />
  <line class="fil4 str10" x1="1421.94" y1="898.25" x2="1277.53" y2= "981.63" />
  <line class="fil4 str10" x1="1421.94" y1="1065.01" x2="1277.53" y2= "981.63" />
  <path class="fil0 str0" d="M2914.7 898c-5.36,16.89 -5.4,55.18 -15.03,99.12 -8.31,37.89 -21.2,113.5 -31.26,155.54 -1.99,8.33 -10.39,44.1 -22.2,84.64 -11.66,40 -26.76,84.82 -21.08,89.69 10.75,9.22 36.88,14.93 60.82,22.34 32.62,10.1 63.62,21.85 69.87,6.38 6.98,-27.88 42.11,-142.03 65.96,-241.4 21.86,-91.1 33.21,-168.43 26.1,-184.59 -1.57,-3.57 -29.42,-13.8 -58.17,-22.84 -9.67,-3.04 -69.54,-26.13 -75.01,-8.88z"/>
  <g id="_2075010011072">
   <path class="fil1 str11" d="M2499.47 498.09c-11.7,0 -22.49,-1.96 -32.31,-5.87 -9.81,-3.93 -18.3,-9.81 -25.45,-17.56 -7.14,-7.76 -12.68,-17.49 -16.58,-29.11 -3.95,-11.62 -5.91,-24.96 -5.91,-40.03 0,-14.98 1.88,-28.04 5.7,-39.17 3.82,-11.12 9.36,-20.85 16.67,-29.1 7.14,-8.01 15.6,-14.13 25.41,-18.31 9.77,-4.23 20.73,-6.32 32.85,-6.32 5.99,0 11.65,0.45 16.91,1.31 5.26,0.9 10.1,2.01 14.61,3.36 3.82,1.2 7.8,2.72 11.83,4.52 4.06,1.8 8.04,3.78 11.98,5.95l0 28.7 -1.92 0c-2.1,-1.89 -4.77,-4.19 -8.05,-6.85 -3.28,-2.67 -7.31,-5.3 -12.03,-7.93 -4.55,-2.42 -9.52,-4.43 -14.9,-5.99 -5.38,-1.6 -11.58,-2.38 -18.64,-2.38 -7.6,0 -14.82,1.56 -21.64,4.68 -6.81,3.12 -12.8,7.71 -17.9,13.75 -5.05,6.08 -8.99,13.71 -11.78,22.9 -2.83,9.16 -4.23,19.51 -4.23,31 0,12.24 1.48,22.75 4.43,31.57 3,8.83 7.03,16.26 12.16,22.34 4.96,5.91 10.83,10.38 17.57,13.38 6.74,3 13.87,4.47 21.39,4.47 6.9,0 13.26,-0.82 19.13,-2.5 5.83,-1.68 11.04,-3.81 15.6,-6.36 4.43,-2.51 8.21,-5.05 11.45,-7.64 3.21,-2.58 5.71,-4.8 7.56,-6.65l1.8 0 0 28.41c-3.94,1.85 -7.63,3.61 -11.12,5.34 -3.49,1.68 -7.72,3.32 -12.69,4.92 -5.21,1.69 -10.05,2.96 -14.53,3.87 -4.43,0.86 -10.22,1.3 -17.37,1.3z"/>
   <path class="fil5 str11" d="M2463.64 536.73c-11.71,0 -22.5,-1.97 -32.33,-5.87 -9.81,-3.95 -18.31,-9.82 -25.46,-17.58 -7.15,-7.77 -12.69,-17.5 -16.6,-29.13 -3.94,-11.62 -5.91,-24.97 -5.91,-40.05 0,-14.99 1.89,-28.06 5.7,-39.19 3.83,-11.13 9.37,-20.87 16.69,-29.12 7.14,-8.01 15.6,-14.13 25.42,-18.32 9.78,-4.23 20.74,-6.33 32.87,-6.33 5.99,0 11.66,0.45 16.92,1.32 5.26,0.9 10.1,2.01 14.62,3.37 3.82,1.19 7.81,2.71 11.83,4.51 4.07,1.81 8.05,3.78 11.99,5.96l0 28.71 -1.92 0c-2.1,-1.89 -4.77,-4.19 -8.06,-6.85 -3.28,-2.68 -7.31,-5.31 -12.03,-7.93 -4.56,-2.42 -9.53,-4.44 -14.91,-6 -5.39,-1.6 -11.59,-2.38 -18.65,-2.38 -7.6,0 -14.83,1.56 -21.65,4.68 -6.82,3.12 -12.81,7.72 -17.91,13.76 -5.05,6.08 -8.99,13.72 -11.79,22.92 -2.84,9.16 -4.23,19.51 -4.23,31.01 0,12.25 1.48,22.76 4.44,31.59 2.99,8.84 7.02,16.27 12.16,22.35 4.96,5.92 10.84,10.39 17.57,13.39 6.75,3 13.89,4.48 21.41,4.48 6.9,0 13.26,-0.82 19.14,-2.51 5.83,-1.68 11.05,-3.82 15.61,-6.36 4.43,-2.51 8.21,-5.05 11.46,-7.64 3.2,-2.59 5.71,-4.81 7.56,-6.66l1.8 0 0 28.42c-3.94,1.86 -7.64,3.62 -11.13,5.35 -3.48,1.68 -7.72,3.32 -12.69,4.92 -5.22,1.69 -10.06,2.96 -14.54,3.87 -4.43,0.86 -10.23,1.31 -17.38,1.31z"/>
  </g>
 </g>
</svg>
