<?xml version="1.0" encoding="UTF-8"?>
<!DOCTYPE svg PUBLIC "-//W3C//DTD SVG 1.1//EN" "http://www.w3.org/Graphics/SVG/1.1/DTD/svg11.dtd">
<!-- Creator: CorelDRAW 2018 (64-Bit) -->
<svg xmlns="http://www.w3.org/2000/svg" xml:space="preserve" width="31mm" height="14mm" version="1.1" style="shape-rendering:geometricPrecision; text-rendering:geometricPrecision; image-rendering:optimizeQuality; fill-rule:evenodd; clip-rule:evenodd"
viewBox="0 0 3100 1400"
 xmlns:xlink="http://www.w3.org/1999/xlink">
 <defs>
  <style type="text/css">
   <![CDATA[
    .str8 {stroke:#FEFEFE;stroke-width:30;stroke-miterlimit:22.9256}
    .str10 {stroke:#2B2A29;stroke-width:30;stroke-miterlimit:22.9256}
    .str5 {stroke:#7690C9;stroke-width:30;stroke-miterlimit:22.9256}
    .str6 {stroke:#FEFEFE;stroke-width:30;stroke-miterlimit:22.9256}
    .str2 {stroke:#2B2A29;stroke-width:20;stroke-miterlimit:22.9256}
    .str1 {stroke:#FEFEFE;stroke-width:20;stroke-miterlimit:22.9256}
    .str3 {stroke:#FEFEFE;stroke-width:10;stroke-miterlimit:22.9256}
    .str9 {stroke:#2B2A29;stroke-width:10;stroke-miterlimit:22.9256}
    .str7 {stroke:#FEFEFE;stroke-width:10;stroke-miterlimit:22.9256}
    .str0 {stroke:#2B2A29;stroke-width:5;stroke-miterlimit:22.9256}
    .str4 {stroke:#7690C9;stroke-width:5;stroke-miterlimit:22.9256}
    .str11 {stroke:#FEFEFE;stroke-width:5;stroke-miterlimit:22.9256}
    .str12 {stroke:#2B2A29;stroke-width:50;stroke-linecap:round;stroke-miterlimit:22.9256}
    .fil3 {fill:none}
    .fil5 {fill:none;fill-rule:nonzero}
    .fil0 {fill:#2B2A29}
    .fil2 {fill:#7690C9}
    .fil1 {fill:#FEFEFE}
    .fil4 {fill:#FEFEFE;fill-rule:nonzero}
   ]]>
  </style>
 </defs>
 <g id="Слой_x0020_1">
  <metadata id="CorelCorpID_0Corel-Layer"/>
  <path class="fil0 str0" d="M2636.78 927.84c0.23,-26.74 -0.5,-187.3 -0.27,-214.04 0.09,-10.93 2.85,-26.98 -13.18,-26.83 -64.7,0.63 -129.42,1.27 -194.13,1.91 -28.88,0.28 -25.74,-0.59 -25.55,27.3 0.38,54.63 0.76,355.7 1.14,410.33 13.92,-5.99 134.7,39.97 147.89,32.51 60.99,-34.47 0.95,-223.79 84.1,-231.18z"/>
  <path class="fil0 str0" d="M2350.15 689.85l-203.72 0c-7.15,0 -13.08,5.86 -13.01,13.01l3.85 391.04c0.07,7.15 58.8,38.04 65.96,38.04 20.96,0 72.62,16.35 105.53,11.88 42.92,-5.83 12.95,6.46 58.24,-0.07l-3.84 -440.89c-0.06,-7.15 -5.85,-13.01 -13.01,-13.01z"/>
  <path class="fil1 str1" d="M2525.8 1056.7c-7.62,-1.22 -15.27,-2.2 -22.83,-2.8 -8.62,-0.67 -16.56,-0.57 -25.15,0.03 -6.2,0.43 -12.3,0.87 -18.52,0.94 -13.2,0.15 -26.2,-0.36 -39.42,0.24 -20.92,0.96 -41.62,4.03 -62.13,8.13 -14.1,2.82 -28.24,5.46 -42.39,8.02 -19.41,3.51 -38.86,6.88 -58.34,10.01 -6.59,1.06 -13.19,2.1 -19.8,3.03 -2.87,0.4 -8.67,1.46 -11.42,0.61 -22.85,-7.04 -40.53,-30.2 -48.82,-51.73 -9.01,-23.39 -9.62,-51.02 5.9,-71.85 18.48,-24.81 54.51,-37.3 83.22,-44.48 21.42,-5.35 43.35,-8.97 65.19,-12.1 26.62,-3.81 53.41,-6.78 79.95,-11.12 20.23,-3.31 43.67,-7.75 62.36,-16.35 13.71,-6.31 27.13,-13.92 40.51,-20.94 18.4,-9.65 36.94,-18.65 56.18,-26.53 19.51,-8 42,-12.62 62.84,-15.2 36.81,-4.56 74.74,-3.39 111.47,1.2 16.52,2.07 32.39,6.59 48.17,11.74 24.21,7.9 48.25,16.94 72.24,25.51l4.41 1.57 0.39 4.67c1.82,21.58 2.99,43.31 4.44,64.93 2.01,30.09 4.21,60.17 7.03,90.2 2.06,21.79 4.36,43.61 5.84,65.45 0.64,9.53 1.13,19.1 1.19,28.65 0.06,8.04 -0.16,16.24 -1.16,24.22 -0.59,4.7 -4.69,6.5 -8.5,7.93 -3.36,1.26 -6.85,2.34 -10.29,3.39 -9.91,3.02 -19.92,5.77 -29.9,8.56 -8.53,2.39 -17.09,4.76 -25.59,7.28 -3.22,0.96 -6.44,1.93 -9.63,2.99 -1.79,0.59 -3.78,1.22 -5.48,2.01 -9.32,4.32 -18.56,9.47 -27.54,14.47 -12,6.69 -23.9,13.57 -35.79,20.46 -18.19,10.53 -36.41,21.33 -54.9,31.32 -12.06,6.51 -24.03,13.16 -35.97,19.88 -29.8,16.75 -59.41,34.05 -89.58,50.14 -11.95,6.37 -24.11,12.65 -36.5,18.11 -8.43,3.71 -18.51,7.84 -27.63,9.29 -9.62,1.54 -19.29,2.28 -29.03,2.21 -23.69,-0.17 -47.37,-5.09 -70.43,-10.09 -14.88,-3.23 -29.74,-6.59 -44.64,-9.73 -18.84,-3.97 -37.72,-7.6 -56.7,-10.81 -12.23,-2.06 -24.5,-3.19 -36.84,-4.22 -11.78,-0.99 -23.58,-1.92 -35.25,-3.83 -15.72,-2.59 -30.34,-6.92 -44.53,-14.26 -14.18,-7.33 -27.31,-16.61 -40.01,-26.24 -16.86,-12.79 -33.28,-26.28 -49.89,-39.4 -18.54,-14.64 -87.68,-71.43 -91.23,-94.33 -1.09,-7.08 0.46,-16.69 1.47,-23.83 0.81,-5.71 2.19,-13.35 1.87,-19.05l-0.01 -0.31 0.01 -0.3c0.13,-4.73 -2.23,-5.31 -5.22,-8.46 -1.91,-2.02 -3.34,-4.22 -4.2,-6.87 -2.97,-9.11 0.23,-24.28 4.43,-32.74 4.05,-8.16 14.33,-15.52 22.21,-19.63 11.7,-6.09 25.18,-9.24 38.36,-7.52 29.07,3.78 49.71,13.36 70.48,33.98 8.13,8.07 15.07,17.51 22.92,25.93 9.81,10.53 20.26,18.97 33,25.77 45.19,24.13 107,26.97 157.69,28.99 5.32,0.21 10.64,0.28 15.95,-0.02 14.38,-0.82 27.6,-4.61 41.1,-9.43 10.89,-3.89 21.64,-8.32 32.28,-12.85 15.42,-6.58 30.73,-13.46 46,-20.38 3.39,-1.54 6.87,-2.81 10.42,-3.89 10.05,-3.03 20.63,-4.51 30.89,-6.74 5.08,-1.1 10.01,-2.37 14.85,-3.83z"/>
  <path class="fil0 str2" d="M2889.78 806.83c0.09,15.79 10.54,48.24 14.42,88.11 3.33,34.38 13.13,101.98 16.12,140.36 0.59,7.6 3.27,40.21 4.37,77.79 1.08,37.09 0.56,79.2 6.71,81.77 11.63,4.86 35.33,2.55 57.64,2.27 30.41,-0.38 59.9,1.09 60.95,-13.74 -1.72,-25.53 -3.22,-131.87 -10.23,-222.6 -6.43,-83.18 -18,-151.81 -28.45,-163.56 -2.3,-2.59 -28.7,-3.63 -55.54,-3.41 -9.02,0.07 -66.08,-3.1 -65.99,13.01z"/>
  <path class="fil0 str3" d="M2862.57 859.91c2.44,29.11 5.52,91.97 11.47,155.2 4.28,45.44 9.27,89.69 5.89,116.74 -0.4,3.12 -73.4,20.98 -85.23,26.46 -25.92,12.01 -86.62,49.16 -118.63,66.44 -73.97,39.95 -156.12,91.66 -187.36,96.64 -54.02,8.64 -93.9,-10.73 -198.45,-28.4 -42.79,-7.23 -77.44,-2.45 -114.49,-21.6 -25.27,-13.07 -49.01,-33.51 -88.74,-64.89 -44.66,-35.28 -83.78,-77.29 -88.53,-89.73 -4.69,-9.79 -9.15,-26.25 -9.75,-36.96 -0.47,-12.07 -1.83,-17.08 -0.18,-24.09 1.53,-7.61 4.55,-20.02 7.6,-26.17 4.77,-9.63 28.32,-26.4 53.11,-23.16 28.54,3.71 47.36,13.12 66.3,31.92 14.52,14.43 26.84,36.52 57.61,52.95 44.73,23.89 104.31,27.6 160.83,29.85 33.26,1.32 50.47,-3.34 138.63,-43.33 21.36,-9.68 42.92,-6.32 79.96,-23.57 -62.18,-12.43 -67.28,-6.9 -93.4,-6.61 -23.31,0.26 -48.16,-2.43 -102.89,8.5 -49.98,10 -126.02,22.59 -128.37,21.86 -36.19,-11.16 -67.29,-74.62 -39.24,-112.28 10.6,-14.23 31.81,-29.93 79.15,-41.77 71.56,-17.89 161.39,-18.21 208.78,-40.02 23.41,-10.77 53.39,-29.72 96.41,-47.36 24.51,-10.04 81.21,-24.68 170.66,-13.5 28.69,3.59 56.5,14.61 118.86,36.88z"/>
  <path class="fil0 str0" d="M2090.39 547.52l586.62 0c7.18,0 13.01,5.82 13.01,13.01l0 97.02c0,7.19 -5.83,13.01 -13.01,13.01l-586.62 0c-7.18,0 -13.01,-5.82 -13.01,-13.01l0 -97.02c0,-7.19 5.83,-13.01 13.01,-13.01z"/>
  <path class="fil2 str4" d="M2378.76 531.99c-19.31,-49.54 -17.84,-108.4 -68.79,-151.31 -47.62,-40.09 -121.73,-20.71 -140.87,42.12 -8.34,27.37 11.07,72.36 33.7,89.18 40.33,29.96 126.98,20.31 175.96,20.01zm-43.03 -12.24c-13.66,-36.29 -16.36,-61.6 -31.15,-85.18 -18.13,-28.9 -47.53,-41.21 -70.45,-34.2 -21.62,6.61 -31.31,31.42 -28.01,47.22 9.35,44.82 88.89,65.63 129.61,72.16z"/>
  <path class="fil2 str4" d="M2388.65 532.66c19.3,-49.54 17.84,-108.4 68.79,-151.3 47.62,-40.1 121.73,-20.71 140.87,42.12 8.33,27.36 -11.08,72.36 -33.71,89.17 -40.33,29.97 -126.97,20.32 -175.95,20.01zm42.16 -12.91c13.65,-36.29 16.35,-61.6 31.14,-85.18 18.13,-28.9 47.53,-41.21 70.46,-34.2 21.61,6.61 31.3,31.42 28,47.22 -9.34,44.82 -88.88,65.63 -129.6,72.16z"/>
  <path class="fil2 str5" d="M276.29 202.98l333.54 -162.28c6.86,-3.34 11.37,6.71 13.88,13.89l194.44 555.53c2.51,7.18 -6.46,12.27 -13.89,13.89l-351.92 76.55c-7.43,1.61 -11.21,-6.74 -13.88,-13.89l-176.06 -469.8c-2.67,-7.15 7.02,-10.55 13.89,-13.89z"/>
  <path class="fil1 str6" d="M458.31 133.67l382.53 -27.56c19.96,-1.44 36.89,15.5 36.2,35.38l-18.37 531.04c-0.64,18.77 -15.79,33.99 -34.7,33.99l-364.16 0c-19.14,0 -34.72,-15.58 -34.72,-34.71l0 -503.48c0,-18.71 14.83,-33.34 33.22,-34.66z"/>
  <path class="fil2 str5" d="M459.81 154.44l382.53 -27.56c7.62,-0.55 14.14,6.27 13.89,13.89l-18.38 531.04c-0.25,7.62 -6.25,13.88 -13.88,13.88l-364.16 0c-7.64,0 -13.89,-6.25 -13.89,-13.88l0 -503.48c0,-7.64 6.27,-13.34 13.89,-13.89z"/>
  <path class="fil0 str7" d="M878.27 865.55c50,-11.29 72.17,-25.65 103.71,-21.08 28.05,4.06 43.19,23.32 47.13,41.44 4.79,22.08 -4.29,42.83 -15.73,52.88 -15.66,13.73 -71.2,28.36 -110.01,34.66 -12.1,1.96 -33.35,1.79 -39.19,-0.46 -17.94,-6.93 10.16,-92.66 14.09,-107.44z"/>
  <path class="fil0 str7" d="M827.72 720.87c9.69,31.13 19.39,62.26 29.08,93.38 19.49,-6.02 82.31,-7.93 101.28,-35.82 11.05,-16.24 13.3,-60.55 -32.5,-69.14 -23.12,-4.34 -56.33,0.57 -97.86,11.58z"/>
  <path class="fil0 str8" d="M352.2 1080.05c0.39,1.27 3.14,3.42 4.08,4.06 3.6,2.5 8.09,4.36 12.27,5.6 1.5,0.44 3.03,0.83 4.56,1.14 2.08,0.42 4.18,0.75 6.29,0.98 34,3.77 71.38,-16.66 99.17,-34.22 26.17,-16.54 52.53,-34.18 73.18,-57.53 8.94,-10.12 16.85,-21.11 24.5,-32.21 10.59,-15.35 20.85,-30.93 31.42,-46.29 19.76,-32.63 39.52,-65.25 59.28,-97.88l8.81 -14.55 5.79 15.99c5.17,14.26 10.46,28.48 16.19,42.53 9.17,22.48 19.82,45.86 33.44,66.02 8.21,12.15 22.72,21.56 34.32,30.34 8.64,6.53 17,13.46 23.77,21.98l1.62 2.02 0.14 2.59c5.69,103.62 1.96,207.55 7.66,311.17l0.44 8.08 -8.08 0.48c-40.59,2.42 -81.65,3.1 -122.3,3.36 -24.03,0.15 -48.06,0.07 -72.09,-0.29 -20.14,-0.3 -40.33,-0.77 -60.46,-1.75 -3.35,-0.16 -6.71,-0.29 -10.07,-0.39 -28.01,-0.84 -56.05,0.34 -84.05,1.05 -29.57,0.75 -59.03,0.93 -88.54,-1.61 -48.55,-4.18 -67.18,-76.23 -80.47,-114.11l-0.05 -0.14c-7.48,-22.61 -13.95,-45.64 -19.66,-68.76 -6.39,-25.86 -11.84,-52.01 -16.22,-78.29 -3.35,-20.16 -6.08,-40.45 -7.93,-60.8 -3.04,-33.52 1.4,-66.61 12.22,-98.42 24.53,-72.13 80.43,-134.02 141.7,-177.6 36.89,-26.24 90.86,-39.04 134.63,-48.72 14.8,-3.28 29.65,-6.38 44.46,-9.63 18.38,-4.04 36.17,-8.97 54.04,-14.83 12.21,-4 24.48,-8.49 36.98,-11.47 15.03,-3.57 29.27,-4.38 44.68,-3.47 31.26,1.87 61.1,14.98 78.16,42.24 2.33,3.71 4.51,9.72 6.15,13.83 3.45,8.61 6.73,17.3 9.99,25.99 9.21,24.58 18.14,49.29 26.99,74.01 9.07,25.39 18.06,50.82 26.83,76.31 3,8.72 5.98,17.46 8.85,26.22 0.88,2.7 1.76,5.4 2.57,8.12 0.49,1.62 1.13,3.62 1.28,5.31 1.03,11.31 -1.66,22.95 -7.73,32.58 -5.39,8.56 -13.78,15.85 -23.94,17.8 -20.16,3.88 -41.8,-1.89 -55.97,-17.11 -9.68,-10.4 -17.7,-34.27 -22.31,-47.82 -3.29,-9.65 -6.36,-19.36 -9.68,-28.99 -1.28,-3.71 -2.6,-7.44 -4.07,-11.09 -0.84,-2.1 -1.85,-4.58 -3.05,-6.51l-0.26 -0.41 -0.21 -0.44c-6.17,-13.25 -21.16,-46.59 -34.82,-53.23 -17.06,-8.28 -29.68,-4.05 -43.13,7.97 -4.14,3.71 -10.41,15.69 -13.09,20.71 -6.64,12.41 -12.85,25.06 -19.35,37.54 -5.06,9.71 -10.27,19.4 -15.97,28.75 -20.93,34.3 -48.92,73.03 -80.44,98.16 -32.61,26 -68.37,52.47 -105.78,71.04 -11.99,5.96 -23.91,12.04 -35.84,18.11 -7.63,3.87 -15.35,7.85 -23.18,11.3 -1.53,0.68 -6.92,3.35 -7.72,5.18z"/>
  <path class="fil0 str9" d="M769.19 671.04c-14.45,-23.09 -40.35,-36.57 -71.76,-38.44 -49.34,-2.94 -60.51,13.57 -133.47,29.59 -62.85,13.8 -132.84,26.26 -176.12,57.04 -83.95,59.71 -160.69,156.76 -150.53,268.65 6.52,71.82 24.99,150.29 43.43,206.04 12.09,34.45 30.33,105.38 73.5,108.7 63.72,5.88 123.06,-1.95 182.36,0.93 63.96,3.11 184.56,2.83 253.97,-1.32 -5.61,-102.06 -2.05,-209.1 -7.66,-311.16 -16.58,-20.85 -44.36,-31.94 -58.47,-52.83 -20.74,-30.71 -36.94,-72.8 -50.53,-110.33 -21.94,36.23 -37.46,61.86 -59.4,98.09 -50.96,74 -54.64,89.87 -131.59,138.48 -36.19,22.87 -75.37,41.64 -111.42,34.34 -20.21,-4.1 -41.75,-19.54 -14.86,-31.39 11.94,-5.26 29.23,-14.63 58.68,-29.25 36.02,-17.89 72.64,-44.86 104.33,-70.12 30.35,-24.2 58.38,-62.94 78.57,-96.04 19.41,-31.81 39.29,-79.31 49.93,-88.82 12.55,-11.22 28.9,-20.5 52.1,-9.22 13.5,6.56 25.11,28.09 38.64,57.1 8.74,14.05 23.29,77.19 38.17,93.16 12.29,13.21 31.16,18 48.48,14.67 14.24,-2.74 26.98,-21.12 25.1,-41.67 -0.66,-7.31 -73.96,-214.23 -81.45,-226.2z"/>
  <path class="fil0 str7" d="M854.3 1026.59l156.64 -21.53c38.35,-5.27 69.44,14.99 69.44,45.24l-0.01 0c0.01,30.26 -31.08,59.06 -69.43,64.33l-156.64 21.53c-38.33,5.27 -69.43,-14.98 -69.43,-45.24l0 0c0,-30.25 31.1,-59.06 69.44,-64.33l-0.01 0z"/>
  <path class="fil1 str6" d="M841.9 1158.33l164.84 -14.25c41.83,-3.62 76.86,27.93 76.86,70.07 0,40.76 -32.47,77.49 -73.28,81.01l-164.84 14.26c-41.84,3.62 -76.85,-27.94 -76.85,-70.08 0,-40.76 32.45,-77.48 73.27,-81.01z"/>
  <path class="fil0 str7" d="M843.69 1179.09l164.84 -14.26c29.87,-2.58 54.24,19.19 54.24,49.32l0 0.01c0,30.13 -24.38,57.67 -54.24,60.25l-164.84 14.25c-29.87,2.58 -54.23,-19.18 -54.23,-49.32l0 0c0,-30.14 24.36,-57.67 54.23,-60.25z"/>
  <path class="fil1 str5" d="M765.33 156.14l64.73 -4.67c1.29,-0.09 2.4,1.06 2.35,2.36l-3.1 89.86c-0.05,1.29 -1.06,2.35 -2.35,2.35l-61.63 0c-1.29,0 -2.35,-1.06 -2.35,-2.35l0 -85.2c0,-1.29 1.06,-2.26 2.35,-2.35z"/>
  <path class="fil1 str5" d="M468.32 172.98l64.73 -4.66c1.29,-0.09 2.39,1.06 2.35,2.35l-3.11 89.87c-0.04,1.29 -1.06,2.35 -2.35,2.35l-61.62 0c-1.3,0 -2.35,-1.06 -2.35,-2.35l0 -85.21c0,-1.29 1.06,-2.25 2.35,-2.35z"/>
  <path class="fil1 str6" d="M289.23 225.56l35.06 -17.05c0.72,-0.36 1.19,0.7 1.46,1.45l20.43 58.39c0.26,0.75 -0.68,1.29 -1.46,1.45l-36.98 8.05c-0.79,0.17 -1.18,-0.71 -1.46,-1.46l-18.51 -49.37c-0.28,-0.75 0.74,-1.11 1.46,-1.46z"/>
  <path class="fil0 str10" d="M184.64 897.03c5.33,16.81 5.37,54.91 14.96,98.64 8.27,37.71 21.09,112.95 31.1,154.79 1.98,8.29 10.35,43.88 22.1,84.22 11.6,39.81 26.63,84.42 20.97,89.26 -10.69,9.17 -36.69,14.86 -60.52,22.24 -32.46,10.04 -63.31,21.74 -69.53,6.34 -6.94,-27.74 -41.91,-141.34 -65.64,-240.22 -21.75,-90.67 -33.05,-167.62 -25.97,-183.7 1.56,-3.56 29.27,-13.74 57.88,-22.73 9.62,-3.02 69.21,-26.01 74.65,-8.84z"/>
  <g id="_2075002235200">
   <path class="fil3 str11" d="M657.99 499.06c-11.65,0 -22.39,-1.95 -32.16,-5.84 -9.76,-3.92 -18.21,-9.76 -25.33,-17.48 -7.11,-7.72 -12.62,-17.41 -16.5,-28.97 -3.92,-11.56 -5.88,-24.84 -5.88,-39.83 0,-14.91 1.88,-27.91 5.67,-38.98 3.81,-11.07 9.32,-20.75 16.59,-28.96 7.11,-7.97 15.53,-14.06 25.29,-18.23 9.72,-4.21 20.63,-6.28 32.69,-6.28 5.96,0 11.6,0.44 16.83,1.3 5.23,0.9 10.05,2 14.54,3.35 3.8,1.19 7.77,2.7 11.77,4.49 4.05,1.8 8.01,3.76 11.93,5.93l0 28.56 -1.92 0c-2.08,-1.88 -4.74,-4.17 -8.01,-6.82 -3.26,-2.66 -7.27,-5.28 -11.97,-7.89 -4.53,-2.41 -9.48,-4.41 -14.83,-5.97 -5.35,-1.59 -11.52,-2.36 -18.55,-2.36 -7.56,0 -14.75,1.55 -21.53,4.65 -6.78,3.11 -12.74,7.68 -17.81,13.69 -5.03,6.05 -8.95,13.64 -11.73,22.79 -2.82,9.12 -4.21,19.41 -4.21,30.85 0,12.18 1.47,22.63 4.42,31.42 2.98,8.78 6.98,16.18 12.09,22.22 4.94,5.89 10.78,10.34 17.48,13.32 6.71,2.98 13.81,4.45 21.29,4.45 6.87,0 13.2,-0.81 19.04,-2.49 5.8,-1.67 10.99,-3.79 15.52,-6.33 4.42,-2.49 8.17,-5.02 11.4,-7.6 3.19,-2.57 5.69,-4.78 7.52,-6.62l1.8 0 0 28.27c-3.92,1.84 -7.6,3.6 -11.07,5.32 -3.47,1.67 -7.68,3.3 -12.63,4.9 -5.19,1.68 -10.01,2.94 -14.46,3.84 -4.41,0.86 -10.17,1.3 -17.28,1.3z"/>
   <path class="fil4 str11" d="M622.33 537.51c-11.65,0 -22.4,-1.96 -32.17,-5.84 -9.77,-3.93 -18.23,-9.77 -25.34,-17.5 -7.12,-7.72 -12.64,-17.41 -16.52,-28.98 -3.93,-11.57 -5.88,-24.85 -5.88,-39.86 0,-14.92 1.87,-27.92 5.67,-39 3.81,-11.08 9.33,-20.76 16.6,-28.98 7.12,-7.97 15.54,-14.06 25.31,-18.23 9.72,-4.21 20.64,-6.29 32.7,-6.29 5.97,0 11.61,0.44 16.84,1.3 5.24,0.9 10.06,2.01 14.55,3.35 3.8,1.19 7.77,2.71 11.78,4.5 4.05,1.8 8.01,3.76 11.93,5.93l0 28.57 -1.92 0c-2.08,-1.88 -4.74,-4.17 -8.01,-6.82 -3.27,-2.66 -7.28,-5.28 -11.98,-7.89 -4.53,-2.41 -9.48,-4.42 -14.83,-5.97 -5.36,-1.59 -11.53,-2.37 -18.57,-2.37 -7.56,0 -14.75,1.55 -21.54,4.66 -6.78,3.1 -12.75,7.68 -17.82,13.69 -5.03,6.05 -8.95,13.66 -11.73,22.81 -2.83,9.12 -4.22,19.42 -4.22,30.86 0,12.19 1.48,22.65 4.42,31.44 2.98,8.79 6.99,16.19 12.1,22.24 4.95,5.88 10.79,10.34 17.49,13.32 6.71,2.99 13.82,4.46 21.3,4.46 6.87,0 13.21,-0.82 19.05,-2.49 5.81,-1.68 11,-3.8 15.54,-6.34 4.41,-2.49 8.17,-5.02 11.4,-7.6 3.19,-2.57 5.69,-4.78 7.53,-6.62l1.79 0 0 28.28c-3.92,1.84 -7.6,3.6 -11.08,5.32 -3.47,1.67 -7.68,3.31 -12.63,4.9 -5.19,1.68 -10.01,2.94 -14.46,3.85 -4.42,0.86 -10.18,1.3 -17.3,1.3z"/>
  </g>
  <g id="_2075002222752">
   <g id="_2046449829008">
    <line class="fil5 str12" x1="1151.49" y1="813.81" x2="1663.56" y2= "813.81" />
    <line class="fil5 str12" x1="1519.84" y1="730.84" x2="1663.56" y2= "813.81" />
    <line class="fil5 str12" x1="1519.84" y1="896.79" x2="1663.56" y2= "813.82" />
   </g>
   <line class="fil5 str12" x1="1865.86" y1="1075.75" x2="1353.79" y2= "1075.75" />
   <line class="fil5 str12" x1="1497.51" y1="992.78" x2="1353.79" y2= "1075.75" />
   <line class="fil5 str12" x1="1497.51" y1="1158.73" x2="1353.79" y2= "1075.75" />
  </g>
 </g>
</svg>
